<svg width="390" height="425" viewBox="0 0 390 425" fill="none" xmlns="http://www.w3.org/2000/svg">
<path d="M195 264.726C270.192 264.726 331.146 205.392 331.146 132.199C331.146 59.0063 270.192 -0.328125 195 -0.328125C119.808 -0.328125 58.8535 59.0063 58.8535 132.199C58.8535 205.392 119.808 264.726 195 264.726Z" stroke="#0821A1" stroke-opacity="0.5" stroke-width="0.25"/>
<path d="M194.999 221.481C245.654 221.481 286.719 181.508 286.719 132.199C286.719 82.8906 245.654 42.918 194.999 42.918C144.344 42.918 103.279 82.8906 103.279 132.199C103.279 181.508 144.344 221.481 194.999 221.481Z" stroke="#0821A1" stroke-opacity="0.5" stroke-width="0.25"/>
<path d="M195.001 307.042C294.201 307.042 374.618 228.762 374.618 132.199C374.618 35.6363 294.201 -42.6436 195.001 -42.6436C95.8005 -42.6436 15.3828 35.6363 15.3828 132.199C15.3828 228.762 95.8005 307.042 195.001 307.042Z" stroke="#0821A1" stroke-opacity="0.4" stroke-width="0.25"/>
<path d="M195 347.963C317.417 347.963 416.656 251.362 416.656 132.199C416.656 13.0362 317.417 -83.5645 195 -83.5645C72.5825 -83.5645 -26.6562 13.0362 -26.6562 132.199C-26.6562 251.362 72.5825 347.963 195 347.963Z" stroke="#0821A1" stroke-opacity="0.3" stroke-width="0.25"/>
<path d="M195 387.023C339.579 387.023 456.784 272.935 456.784 132.199C456.784 -8.53632 339.579 -122.625 195 -122.625C50.4212 -122.625 -66.7832 -8.53632 -66.7832 132.199C-66.7832 272.935 50.4212 387.023 195 387.023Z" stroke="#0821A1" stroke-opacity="0.2" stroke-width="0.25"/>
<path d="M195 424.224C360.685 424.224 495 293.48 495 132.2C495 -29.0813 360.685 -159.825 195 -159.825C29.3146 -159.825 -105 -29.0813 -105 132.2C-105 293.48 29.3146 424.224 195 424.224Z" stroke="#0821A1" stroke-opacity="0.1" stroke-width="0.25"/>
<path d="M140.109 149.25V149.552L140.323 149.338L149.652 139.975L149.688 139.938V139.886L149.688 121.159V121.034L149.563 121.034L130.906 121.034L130.854 121.034L130.817 121.071L121.488 130.435L121.276 130.648H121.577H140.109L140.109 149.25ZM137.25 134.268V134.143H137.125H126.345H126.292L126.255 134.182L120.865 139.8L120.662 140.011H120.955H131.403L131.403 150.498V150.793L131.614 150.588L137.212 145.178L137.25 145.141V145.088L137.25 134.268ZM249.354 143.356L249.377 143.452H249.475H253.82H253.912L253.939 143.365L257.296 132.836L260.653 143.365L260.681 143.452H260.773H265.118H265.216L265.239 143.356L269.166 127.324L269.204 127.169H269.044H265.15H265.052L265.028 127.265L262.462 137.799L259.089 127.256L259.061 127.169H258.97H255.623H255.531L255.504 127.256L252.163 137.735L249.597 127.264L249.573 127.169H249.475H245.549H245.389L245.427 127.324L249.354 143.356ZM218.3 143.327V143.452H218.425H222.126H222.251V143.327V136.433C222.251 134.338 222.533 132.886 223.14 131.96C223.738 131.047 224.666 130.626 226.02 130.626H228.66H228.785V130.501V127.294V127.169H228.66H225.698C224.811 127.169 224.047 127.496 223.425 128.124C222.947 128.607 222.554 129.266 222.251 130.085V127.294V127.169H222.126H218.425H218.3V127.294V143.327ZM199.533 145.027L199.416 145.036L199.418 145.153C199.434 146.69 200.207 147.999 201.506 148.921C202.803 149.841 204.624 150.375 206.752 150.375C209.338 150.375 211.479 149.556 212.975 148.099C214.471 146.641 215.31 144.555 215.31 142.041V127.291V127.166H215.185H211.483H211.358V127.291V129.838C210.327 127.853 208.402 126.653 205.98 126.653C203.881 126.653 202.108 127.545 200.862 129.072C199.617 130.598 198.903 132.752 198.903 135.276C198.903 140.354 201.833 143.962 206.012 143.962C208.433 143.962 210.331 142.79 211.358 140.81V142.683C211.358 143.951 210.911 145.008 210.149 145.747C209.387 146.487 208.301 146.918 207.01 146.918C205.174 146.918 203.931 146.103 203.689 144.808L203.668 144.697L203.556 144.706L199.533 145.027ZM185.215 149.862H185.34V149.737V140.835C186.367 142.79 188.262 143.962 190.654 143.962C194.864 143.962 197.795 140.355 197.795 135.308C197.795 130.26 194.864 126.653 190.654 126.653C188.262 126.653 186.367 127.825 185.34 129.78V127.291V127.166H185.215H181.513H181.388V127.291V149.737V149.862H181.513H185.215ZM161.208 120.755H161.083V120.88V135.149C161.083 137.759 161.971 139.965 163.513 141.518C165.056 143.071 167.246 143.964 169.834 143.964C172.422 143.964 174.604 143.071 176.139 141.518C177.673 139.964 178.553 137.759 178.553 135.149V120.88V120.755H178.428H174.63H174.505V120.88V135.149C174.505 136.698 174.068 138.038 173.271 138.989C172.475 139.937 171.312 140.507 169.834 140.507C168.34 140.507 167.169 139.937 166.369 138.989C165.567 138.038 165.131 136.698 165.131 135.149V120.88V120.755H165.006H161.208ZM228.229 135.34C228.229 140.374 231.659 143.962 236.497 143.962C238.895 143.962 240.948 143.067 242.401 141.538C243.854 140.009 244.7 137.853 244.7 135.34C244.7 130.276 241.304 126.653 236.497 126.653C231.658 126.653 228.229 130.275 228.229 135.34ZM236.497 140.505C235.213 140.505 234.163 140 233.431 139.108C232.698 138.214 232.277 136.922 232.277 135.34C232.277 133.741 232.698 132.433 233.432 131.527C234.164 130.623 235.214 130.11 236.497 130.11C237.763 130.11 238.805 130.623 239.534 131.526C240.264 132.433 240.685 133.741 240.685 135.34C240.685 136.922 240.264 138.214 239.534 139.109C238.806 140 237.764 140.505 236.497 140.505ZM207.138 140.505C205.888 140.505 204.846 139.993 204.113 139.093C203.379 138.19 202.95 136.889 202.95 135.308C202.95 133.726 203.379 132.425 204.113 131.523C204.846 130.622 205.888 130.11 207.138 130.11C208.389 130.11 209.431 130.622 210.163 131.523C210.898 132.425 211.326 133.726 211.326 135.308C211.326 136.889 210.898 138.19 210.163 139.093C209.431 139.993 208.389 140.505 207.138 140.505ZM189.56 140.505C188.309 140.505 187.267 139.993 186.535 139.093C185.8 138.19 185.372 136.889 185.372 135.308C185.372 133.726 185.8 132.425 186.535 131.523C187.267 130.622 188.309 130.11 189.56 130.11C190.81 130.11 191.852 130.622 192.585 131.523C193.319 132.425 193.747 133.726 193.747 135.308C193.747 136.889 193.319 138.19 192.585 139.093C191.852 139.993 190.81 140.505 189.56 140.505Z" stroke="#0821A1" stroke-opacity="0.5" stroke-width="0.25"/>
</svg>
