<svg width="1440" height="954" viewBox="0 0 1440 954" fill="none" xmlns="http://www.w3.org/2000/svg">
<path d="M720 560.942C900.46 560.942 1046.75 415.121 1046.75 235.241C1046.75 55.3614 900.46 -90.4599 720 -90.4599C539.54 -90.4599 393.248 55.3614 393.248 235.241C393.248 415.121 539.54 560.942 720 560.942Z" stroke="#0821A1" stroke-opacity="0.5" stroke-width="0.5"/>
<path d="M720 454.661C841.573 454.661 940.128 356.423 940.128 235.241C940.128 114.059 841.573 15.8215 720 15.8215C598.427 15.8215 499.873 114.059 499.873 235.241C499.873 356.423 598.427 454.661 720 454.661Z" stroke="#0821A1" stroke-opacity="0.5" stroke-width="0.5"/>
<path d="M720 664.938C958.08 664.938 1151.08 472.556 1151.08 235.241C1151.08 -2.07384 958.08 -194.456 720 -194.456C481.919 -194.456 288.917 -2.07384 288.917 235.241C288.917 472.556 481.919 664.938 720 664.938Z" stroke="#0821A1" stroke-opacity="0.4" stroke-width="0.5"/>
<path d="M720 765.505C1013.8 765.505 1251.97 528.098 1251.97 235.241C1251.97 -57.6156 1013.8 -295.023 720 -295.023C426.199 -295.023 188.025 -57.6156 188.025 235.241C188.025 528.098 426.199 765.505 720 765.505Z" stroke="#0821A1" stroke-opacity="0.3" stroke-width="0.5"/>
<path d="M720.001 861.501C1066.99 861.501 1348.28 581.115 1348.28 235.241C1348.28 -110.633 1066.99 -391.019 720.001 -391.019C373.011 -391.019 91.7207 -110.633 91.7207 235.241C91.7207 581.115 373.011 861.501 720.001 861.501Z" stroke="#0821A1" stroke-opacity="0.2" stroke-width="0.5"/>
<path d="M720 952.926C1117.65 952.926 1440 631.607 1440 235.241C1440 -161.125 1117.65 -482.444 720 -482.444C322.355 -482.444 0 -161.125 0 235.241C0 631.607 322.355 952.926 720 952.926Z" stroke="#0821A1" stroke-opacity="0.1" stroke-width="0.5"/>
<path d="M588.313 268.545V269.15L588.74 268.722L611.129 246.249L611.202 246.176V246.073L611.202 201.128V200.878L610.952 200.878L566.174 200.878L566.071 200.878L565.997 200.952L543.608 223.424L543.184 223.851H543.786H588.313L588.313 268.545ZM581.35 232.589V232.339H581.1H555.229H555.122L555.048 232.416L542.113 245.9L541.707 246.323H542.293H567.417L567.417 271.541V272.131L567.841 271.721L581.274 258.737L581.35 258.663V258.557L581.35 232.589ZM850.499 254.389L850.545 254.579H850.742H861.17H861.352L861.408 254.405L869.512 228.988L877.617 254.405L877.672 254.579H877.855H888.283H888.479L888.526 254.389L897.95 215.911L898.026 215.602H897.707H888.36H888.164L888.117 215.792L881.916 241.248L873.767 215.775L873.712 215.602H873.529H865.496H865.313L865.257 215.776L857.185 241.095L850.984 215.792L850.938 215.602H850.742H841.318H840.999L841.075 215.911L850.499 254.389ZM775.97 254.33V254.58H776.22H785.103H785.353V254.33V237.784C785.353 232.754 786.03 229.257 787.494 227.022C788.942 224.813 791.187 223.797 794.45 223.797H800.784H801.034V223.547V215.852V215.602H800.784H793.677C791.562 215.602 789.741 216.38 788.257 217.879C787.063 219.084 786.093 220.748 785.353 222.835V215.852V215.602H785.103H776.22H775.97V215.852V254.33ZM730.883 258.46L730.65 258.479L730.653 258.712C730.692 262.382 732.537 265.511 735.644 267.715C738.747 269.916 743.107 271.195 748.206 271.195C754.4 271.195 759.526 269.235 763.105 265.747C766.685 262.259 768.694 257.266 768.694 251.245V215.845V215.595H768.444H759.561H759.311V215.845V222.165C756.868 217.307 752.221 214.364 746.352 214.364C741.331 214.364 737.09 216.496 734.108 220.151C731.129 223.801 729.417 228.959 729.417 235.007C729.417 247.178 736.436 255.804 746.429 255.804C752.297 255.804 756.876 252.93 759.311 248.081V252.784C759.311 255.84 758.233 258.389 756.394 260.175C754.553 261.962 751.934 263 748.824 263C744.406 263 741.391 261.036 740.804 257.894L740.763 257.673L740.539 257.691L730.883 258.46ZM696.516 269.964H696.766V269.714V248.144C699.2 252.929 703.774 255.804 709.57 255.804C719.639 255.804 726.66 247.179 726.66 235.084C726.66 222.989 719.639 214.364 709.57 214.364C703.774 214.364 699.2 217.238 696.766 222.024V215.845V215.595H696.516H687.632H687.382V215.845V269.714V269.964H687.632H696.516ZM638.901 200.209H638.651V200.459V234.704C638.651 240.957 640.776 246.236 644.468 249.954C648.161 253.671 653.402 255.809 659.602 255.809C665.803 255.809 671.025 253.671 674.698 249.953C678.371 246.236 680.477 240.956 680.477 234.704V200.459V200.209H680.227H671.112H670.862V200.459V234.704C670.862 238.43 669.813 241.658 667.889 243.951C665.969 246.239 663.163 247.613 659.602 247.613C656.003 247.613 653.177 246.238 651.248 243.95C649.315 241.658 648.266 238.43 648.266 234.704V200.459V200.209H648.016H638.901ZM799.8 235.161C799.8 247.217 808.013 255.804 819.593 255.804C825.335 255.804 830.249 253.663 833.727 250.003C837.204 246.344 839.232 241.182 839.232 235.161C839.232 223.032 831.1 214.364 819.593 214.364C808.011 214.364 799.8 223.03 799.8 235.161ZM819.593 247.609C816.498 247.609 813.963 246.389 812.197 244.237C810.427 242.08 809.415 238.967 809.415 235.161C809.415 231.316 810.428 228.164 812.198 225.978C813.964 223.797 816.499 222.559 819.593 222.559C822.648 222.559 825.163 223.796 826.92 225.977C828.681 228.164 829.694 231.316 829.694 235.161C829.694 238.967 828.682 242.08 826.921 244.238C825.165 246.39 822.649 247.609 819.593 247.609ZM749.133 247.609C746.118 247.609 743.601 246.372 741.834 244.2C740.063 242.022 739.032 238.889 739.032 235.084C739.032 231.28 740.063 228.146 741.834 225.969C743.601 223.796 746.118 222.559 749.133 222.559C752.148 222.559 754.664 223.796 756.432 225.969C758.203 228.146 759.234 231.28 759.234 235.084C759.234 238.889 758.203 242.022 756.432 244.2C754.664 246.372 752.148 247.609 749.133 247.609ZM706.944 247.609C703.929 247.609 701.412 246.372 699.645 244.199C697.874 242.022 696.843 238.888 696.843 235.084C696.843 231.279 697.874 228.146 699.645 225.968C701.412 223.796 703.929 222.559 706.944 222.559C709.959 222.559 712.475 223.796 714.243 225.968C716.014 228.146 717.045 231.279 717.045 235.084C717.045 238.888 716.014 242.022 714.243 244.199C712.475 246.372 709.959 247.609 706.944 247.609Z" stroke="#0821A1" stroke-opacity="0.5" stroke-width="0.5"/>
</svg>
