<svg width="100" height="21" viewBox="0 0 100 21" fill="none" xmlns="http://www.w3.org/2000/svg">
<path fill-rule="evenodd" clip-rule="evenodd" d="M13.0187 19.6795L19.318 13.3566L19.318 0.710947L19.3181 0.710938L19.318 0.710938L6.71932 0.710938L0.419952 7.03379H13.0187L13.0187 19.6795ZM10.9189 9.5629H3.63963L0 13.3566H7.13927L7.13928 20.5225L10.9189 16.8693L10.9189 9.5629Z" fill="white"/>
<path d="M86.7854 15.6797L84.1339 4.85352H86.7854L88.5893 12.2153L90.9366 4.85352H93.197L95.566 12.2586L97.3699 4.85352H99.9997L97.3482 15.6797H94.4141L92.0668 8.31789L89.7195 15.6797H86.7854Z" fill="white"/>
<path d="M78.0222 16.024C74.8055 16.024 72.5235 13.6422 72.5235 10.2861C72.5235 6.9083 74.8055 4.50488 78.0222 4.50488C81.217 4.50488 83.4774 6.9083 83.4774 10.2861C83.4774 13.6422 81.217 16.024 78.0222 16.024ZM75.0881 10.2861C75.0881 12.4513 76.24 13.8587 78.0222 13.8587C79.7826 13.8587 80.9345 12.4513 80.9345 10.2861C80.9345 8.09918 79.7826 6.67012 78.0222 6.67012C76.24 6.67012 75.0881 8.09918 75.0881 10.2861Z" fill="white"/>
<path d="M65.8184 15.6797V4.85352H68.3178V7.27858C68.7525 5.69796 69.5784 4.85352 70.7303 4.85352H72.7298V7.01875H70.9477C69.0785 7.01875 68.3178 8.18798 68.3178 11.0244V15.6797H65.8184Z" fill="white"/>
<path d="M57.9359 20.3544C55.0888 20.3544 53.0892 18.9254 53.0675 16.9117L55.7842 16.6952C55.9581 17.6262 56.8492 18.1892 58.1098 18.1892C59.892 18.1892 61.1308 16.9983 61.1308 15.2445V13.5989C60.5005 15.1146 59.1747 16.024 57.436 16.024C54.6758 16.024 52.7197 13.6422 52.7197 10.2428C52.7197 6.865 54.6323 4.50488 57.4143 4.50488C59.153 4.50488 60.5005 5.43594 61.1308 6.9516V4.85132H63.6302V14.8114C63.6302 18.1676 61.3916 20.3544 57.9359 20.3544ZM55.2844 10.2644C55.2844 12.4297 56.458 13.8587 58.1967 13.8587C59.9354 13.8587 61.1091 12.4297 61.1091 10.2644C61.1091 8.09918 59.9354 6.67012 58.1967 6.67012C56.458 6.67012 55.2844 8.09918 55.2844 10.2644Z" fill="white"/>
<path d="M47.066 16.024C45.349 16.024 44.0233 15.1146 43.393 13.6205V20.008H40.8936V4.85132H43.393V6.9083C44.0233 5.41428 45.349 4.50488 47.066 4.50488C49.848 4.50488 51.804 6.88665 51.804 10.2644C51.804 13.6422 49.848 16.024 47.066 16.024ZM43.4147 10.2644C43.4147 12.4297 44.5884 13.8587 46.3271 13.8587C48.0658 13.8587 49.2394 12.4297 49.2394 10.2644C49.2394 8.09918 48.0658 6.67012 46.3271 6.67012C44.5884 6.67012 43.4147 8.09918 43.4147 10.2644Z" fill="white"/>
<path d="M33.0064 16.0256C29.5507 16.0256 27.1817 13.6438 27.1817 10.1578V0.522461H29.7463V10.1578C29.7463 12.2797 30.9416 13.8603 33.0064 13.8603C35.0494 13.8603 36.2447 12.2797 36.2447 10.1578V0.522461H38.8093V10.1578C38.8093 13.6438 36.4621 16.0256 33.0064 16.0256Z" fill="white"/>
</svg>
