<svg width="30" height="30" viewBox="0 0 30 30" fill="none" xmlns="http://www.w3.org/2000/svg">
<g id="vuesax/bold/lovely">
<g id="vuesax/bold/lovely_2">
<g id="lovely">
<path id="Vector" d="M23.5 12.3875C22.0875 12.3875 20.825 13.075 20.0375 14.125C19.25 13.075 17.9875 12.3875 16.575 12.3875C14.1875 12.3875 12.25 14.3375 12.25 16.7375C12.25 17.6625 12.4 18.525 12.65 19.3125C13.875 23.2 17.675 25.5375 19.55 26.175C19.8125 26.2625 20.25 26.2625 20.5125 26.175C22.3875 25.5375 26.1875 23.2125 27.4125 19.3125C27.675 18.5125 27.8125 17.6625 27.8125 16.7375C27.825 14.3375 25.8875 12.3875 23.5 12.3875Z" fill="#1E2F84"/>
<path id="Vector_2" d="M25.9375 10.425C25.9375 10.7125 25.65 10.9 25.375 10.825C23.6875 10.3875 21.8375 10.75 20.4375 11.75C20.1625 11.95 19.7875 11.95 19.525 11.75C18.5375 11.025 17.3375 10.625 16.075 10.625C12.85 10.625 10.225 13.2625 10.225 16.5125C10.225 20.0375 11.9125 22.675 13.6125 24.4375C13.7 24.525 13.625 24.675 13.5125 24.625C10.1 23.4625 2.5 18.6375 2.5 10.425C2.5 6.8 5.4125 3.875 9.0125 3.875C11.15 3.875 13.0375 4.9 14.225 6.4875C15.425 4.9 17.3125 3.875 19.4375 3.875C23.025 3.875 25.9375 6.8 25.9375 10.425Z" fill="#1E2F84"/>
</g>
</g>
</g>
</svg>
