<svg width="30" height="30" viewBox="0 0 30 30" fill="none" xmlns="http://www.w3.org/2000/svg">
<g id="Loading-Circle--Streamline-Ultimate">
<g id="Loading-Circle--Streamline-Ultimate.svg">
<path id="Vector" d="M15.0001 21.284C14.82 21.2839 14.6417 21.3196 14.4754 21.3889C14.3091 21.4581 14.1582 21.5596 14.0314 21.6875C13.9045 21.8154 13.8043 21.9671 13.7364 22.1339C13.6685 22.3008 13.6343 22.4794 13.6357 22.6595L13.6357 27.0321C13.6357 27.394 13.7795 27.741 14.0354 27.9969C14.2912 28.2527 14.6383 28.3965 15.0001 28.3965C15.362 28.3965 15.709 28.2527 15.9648 27.9969C16.2207 27.741 16.3645 27.394 16.3645 27.0321L16.3645 22.6595C16.3659 22.4794 16.3317 22.3008 16.2638 22.1339C16.1959 21.9671 16.0957 21.8154 15.9688 21.6875C15.842 21.5596 15.6911 21.4581 15.5248 21.3889C15.3586 21.3196 15.1802 21.2839 15.0001 21.284Z" fill="#1E2F84"/>
<path id="Vector_2" d="M20.8265 21.2722C20.7073 21.0634 20.5347 20.8902 20.3263 20.7703C20.118 20.6504 19.8814 20.5882 19.6411 20.59C19.4022 20.5908 19.1674 20.6524 18.9589 20.7689C18.8038 20.8591 18.6681 20.979 18.5594 21.1217C18.4507 21.2644 18.3713 21.4272 18.3256 21.6007C18.2798 21.7741 18.2688 21.9549 18.293 22.1327C18.3173 22.3104 18.3763 22.4816 18.4668 22.6365L19.2832 24.0568C19.3725 24.2128 19.4917 24.3496 19.634 24.4594C19.7763 24.5692 19.9389 24.6498 20.1124 24.6965C20.286 24.7433 20.467 24.7553 20.6452 24.7319C20.8234 24.7085 20.9953 24.6501 21.1508 24.56C21.4636 24.3776 21.6919 24.0793 21.7861 23.7296C21.8803 23.38 21.8329 23.0073 21.6541 22.6924L20.8265 21.2722Z" fill="#1E2F84"/>
<path id="Vector_3" d="M25.1541 18.1868L23.7338 17.3704C23.522 17.267 23.2868 17.2207 23.0516 17.2362C22.8117 17.2366 22.5761 17.2998 22.3681 17.4195C22.1602 17.5392 21.9871 17.7112 21.8662 17.9184C21.7762 18.0739 21.7178 18.2457 21.6943 18.4239C21.6709 18.6021 21.6829 18.7832 21.7297 18.9568C21.7765 19.1303 21.857 19.2929 21.9668 19.4352C22.0766 19.5775 22.2134 19.6967 22.3694 19.786L23.7897 20.5912C23.9453 20.6812 24.1171 20.7396 24.2953 20.763C24.4735 20.7864 24.6546 20.7744 24.8281 20.7277C25.0016 20.6809 25.1642 20.6003 25.3065 20.4905C25.4488 20.3807 25.568 20.2439 25.6573 20.0879C25.7496 19.9302 25.8098 19.7557 25.8345 19.5746C25.8591 19.3936 25.8478 19.2094 25.801 19.0327C25.7542 18.856 25.673 18.6903 25.562 18.5452C25.451 18.4 25.3123 18.2782 25.1541 18.1868Z" fill="#1E2F84"/>
<path id="Vector_4" d="M25.9371 12.5387L24.2932 12.5387C23.9512 12.5696 23.6331 12.7273 23.4015 12.9808C23.1699 13.2343 23.0415 13.5653 23.0415 13.9086C23.0415 14.252 23.1699 14.5829 23.4015 14.8364C23.6331 15.0899 23.9512 15.2476 24.2932 15.2786L25.9371 15.2786C26.2791 15.2476 26.5971 15.0899 26.8287 14.8364C27.0603 14.5829 27.1887 14.252 27.1887 13.9086C27.1887 13.5653 27.0603 13.2343 26.8287 12.9808C26.5971 12.7273 26.2791 12.5696 25.9371 12.5387Z" fill="#1E2F84"/>
<path id="Vector_5" d="M23.7342 10.4474L25.1545 9.61987C25.3184 9.53508 25.4635 9.41792 25.5808 9.27547C25.6982 9.13302 25.7854 8.96824 25.8372 8.79111C25.889 8.61398 25.9044 8.42817 25.8823 8.24494C25.8603 8.0617 25.8012 7.88485 25.7089 7.72507C25.6165 7.5653 25.4927 7.42593 25.3449 7.3154C25.1971 7.20487 25.0284 7.12547 24.849 7.08201C24.6696 7.03855 24.4833 7.03194 24.3013 7.06257C24.1193 7.0932 23.9454 7.16043 23.7902 7.26021L22.3699 8.07658C22.2139 8.16585 22.0771 8.28505 21.9673 8.42736C21.8575 8.56966 21.7769 8.73225 21.7301 8.9058C21.6834 9.07934 21.6714 9.26041 21.6948 9.43861C21.7182 9.61681 21.7766 9.78862 21.8666 9.94418C22.0511 10.2548 22.3494 10.4812 22.6982 10.5752C23.047 10.6691 23.4187 10.6233 23.7342 10.4474Z" fill="#1E2F84"/>
<path id="Vector_6" d="M21.1508 3.25629C20.996 3.1632 20.8241 3.1023 20.6452 3.07725C20.4664 3.0522 20.2843 3.06351 20.1099 3.11049C19.9355 3.15748 19.7724 3.23919 19.6304 3.35071C19.4883 3.46224 19.3702 3.60129 19.2832 3.75954L18.4668 5.1798C18.3671 5.33507 18.2998 5.50896 18.2692 5.69096C18.2386 5.87296 18.2452 6.05928 18.2886 6.23865C18.3321 6.41801 18.4115 6.5867 18.522 6.7345C18.6326 6.8823 18.7719 7.00613 18.9317 7.09852C19.0915 7.1909 19.2683 7.2499 19.4516 7.27196C19.6348 7.29402 19.8206 7.27867 19.9977 7.22684C20.1749 7.17502 20.3396 7.0878 20.4821 6.97046C20.6246 6.85311 20.7417 6.70809 20.8265 6.54416L21.6541 5.12389C21.8329 4.80902 21.8803 4.43634 21.7861 4.0867C21.6919 3.73706 21.4636 3.43868 21.1508 3.25629Z" fill="#1E2F84"/>
<path id="Vector_7" d="M14.9997 1.57887C14.8196 1.57886 14.6413 1.61452 14.475 1.68378C14.3088 1.75305 14.1579 1.85455 14.031 1.98243C13.9042 2.1103 13.8039 2.26203 13.736 2.42886C13.6681 2.59568 13.6339 2.7743 13.6354 2.95441L13.6354 4.60952C13.6354 4.78869 13.6707 4.96611 13.7392 5.13164C13.8078 5.29717 13.9083 5.44757 14.035 5.57427C14.1617 5.70096 14.3121 5.80146 14.4776 5.87002C14.6432 5.93859 14.8206 5.97388 14.9997 5.97388C15.1789 5.97388 15.3563 5.93859 15.5219 5.87002C15.6874 5.80146 15.8378 5.70096 15.9645 5.57427C16.0912 5.44757 16.1917 5.29717 16.2602 5.13164C16.3288 4.96611 16.3641 4.78869 16.3641 4.60952L16.3641 2.97677C16.3686 2.7948 16.3366 2.61377 16.27 2.44435C16.2035 2.27493 16.1037 2.12053 15.9765 1.99027C15.8494 1.86 15.6975 1.75649 15.5297 1.68584C15.362 1.61519 15.1818 1.57881 14.9997 1.57887Z" fill="#1E2F84"/>
<path id="Vector_8" d="M10.7171 3.75954C10.5362 3.43773 10.2348 3.20097 9.87931 3.10135C9.52383 3.00173 9.14333 3.04741 8.82152 3.22833C8.49971 3.40926 8.26295 3.71061 8.16333 4.06609C8.06371 4.42158 8.10939 4.80208 8.29032 5.12389L9.11787 6.54416C9.20266 6.70809 9.31982 6.85311 9.46227 6.97046C9.60472 7.0878 9.7695 7.17502 9.94663 7.22684C10.1238 7.27867 10.3096 7.29402 10.4928 7.27196C10.676 7.2499 10.8529 7.1909 11.0127 7.09852C11.1724 7.00613 11.3118 6.8823 11.4223 6.7345C11.5329 6.5867 11.6123 6.41801 11.6557 6.23865C11.6992 6.05928 11.7058 5.87296 11.6752 5.69096C11.6445 5.50896 11.5773 5.33507 11.4775 5.1798L10.7171 3.75954Z" fill="#1E2F84"/>
<path id="Vector_9" d="M4.84577 9.61987L6.26604 10.4474C6.58156 10.6233 6.95327 10.6691 7.30206 10.5752C7.65086 10.4812 7.94921 10.2548 8.13364 9.94418C8.22367 9.78862 8.28207 9.61681 8.3055 9.43861C8.32893 9.26041 8.31691 9.07934 8.27015 8.9058C8.22339 8.73225 8.1428 8.56966 8.03301 8.42736C7.92322 8.28505 7.78639 8.16585 7.63039 8.07658L6.21012 7.26021C6.05486 7.16043 5.88097 7.0932 5.69897 7.06257C5.51697 7.03194 5.33065 7.03855 5.15128 7.08201C4.97191 7.12547 4.80323 7.20487 4.65543 7.3154C4.50763 7.42593 4.38379 7.5653 4.29141 7.72507C4.19903 7.88485 4.14003 8.0617 4.11797 8.24494C4.09591 8.42817 4.11126 8.61398 4.16308 8.79111C4.2149 8.96824 4.30213 9.13302 4.41947 9.27547C4.53681 9.41792 4.68184 9.53508 4.84577 9.61987Z" fill="#1E2F84"/>
<path id="Vector_10" d="M7.07056 13.8812C7.07056 13.5193 6.92681 13.1723 6.67095 12.9164C6.41508 12.6606 6.06805 12.5168 5.7062 12.5168L4.06227 12.5168C3.7203 12.5478 3.40226 12.7055 3.17066 12.959C2.93906 13.2125 2.81063 13.5434 2.81063 13.8868C2.81063 14.2301 2.93906 14.5611 3.17066 14.8146C3.40226 15.0681 3.7203 15.2258 4.06227 15.2567L5.7062 15.2567C6.06908 15.2538 6.41608 15.1075 6.67163 14.8499C6.92718 14.5923 7.07057 14.2441 7.07056 13.8812Z" fill="#1E2F84"/>
<path id="Vector_11" d="M8.13386 17.8736C8.00744 17.6747 7.83202 17.5116 7.62444 17.4C7.41687 17.2884 7.18409 17.232 6.94844 17.2362C6.70923 17.2345 6.47384 17.2962 6.26627 17.4151L4.846 18.2315C4.53538 18.4159 4.309 18.7143 4.21501 19.0631C4.12103 19.4119 4.16685 19.7836 4.34275 20.0991C4.43294 20.2542 4.55283 20.3899 4.69556 20.4986C4.83828 20.6073 5.00103 20.6867 5.1745 20.7324C5.34797 20.7781 5.52875 20.7892 5.70649 20.7649C5.88424 20.7407 6.05545 20.6816 6.21035 20.5912L7.63062 19.7748C7.79113 19.6856 7.93199 19.5649 8.04475 19.42C8.15752 19.275 8.23986 19.1088 8.28685 18.9313C8.33384 18.7538 8.34451 18.5686 8.31822 18.3869C8.29194 18.2051 8.22923 18.0306 8.13386 17.8736Z" fill="#1E2F84"/>
<path id="Vector_12" d="M11.0411 20.7689C10.8326 20.6524 10.5978 20.5908 10.3589 20.59C10.1186 20.5882 9.88204 20.6504 9.6737 20.7703C9.46535 20.8902 9.2927 21.0634 9.17351 21.2722L8.29004 22.6924C8.11122 23.0073 8.06376 23.38 8.15797 23.7296C8.25219 24.0793 8.48047 24.3776 8.79328 24.56C8.94884 24.6501 9.12066 24.7085 9.29886 24.7319C9.47705 24.7553 9.65813 24.7433 9.83167 24.6965C10.0052 24.6498 10.1678 24.5692 10.3101 24.4594C10.4524 24.3496 10.5716 24.2128 10.6609 24.0568L11.5332 22.6365C11.6237 22.4816 11.6827 22.3104 11.707 22.1327C11.7312 21.9549 11.7202 21.7741 11.6745 21.6007C11.6288 21.4272 11.5493 21.2644 11.4406 21.1217C11.3319 20.979 11.1962 20.8591 11.0411 20.7689Z" fill="#1E2F84"/>
</g>
<path id="Vector_13" d="M15.8231 9.36899L16.658 11.05C16.7705 11.2825 17.0725 11.5031 17.3272 11.5508L18.8371 11.8011C19.8023 11.9621 20.0273 12.6655 19.3345 13.3689L18.1562 14.5552C17.9608 14.7519 17.8482 15.1394 17.9134 15.4196L18.2509 16.886C18.5174 18.0425 17.9015 18.4955 16.889 17.8875L15.4737 17.041C15.2191 16.886 14.7928 16.886 14.5382 17.041L13.1229 17.8875C12.1104 18.4896 11.4945 18.0425 11.761 16.886L12.0985 15.4196C12.1518 15.1334 12.0393 14.746 11.8439 14.5492L10.6655 13.363C9.97271 12.6655 10.1977 11.9621 11.1629 11.7952L12.6729 11.5448C12.9275 11.5031 13.2295 11.2766 13.342 11.0441L14.1769 9.36303C14.6329 8.45694 15.3672 8.45694 15.8231 9.36899Z" fill="#1E2F84"/>
</g>
</svg>
