<svg width="30" height="30" viewBox="0 0 30 30" fill="none" xmlns="http://www.w3.org/2000/svg">
<g id="vuesax/bold/cardano-(ada)">
<g id="vuesax/bold/cardano-(ada)_2">
<g id="cardano-(ada)">
<g id="Group">
<path id="Vector" d="M21.4375 12.5C22.1279 12.5 22.6875 11.9404 22.6875 11.25C22.6875 10.5596 22.1279 10 21.4375 10C20.7471 10 20.1875 10.5596 20.1875 11.25C20.1875 11.9404 20.7471 12.5 21.4375 12.5Z" fill="#1E2F84"/>
<path id="Vector_2" d="M21.4375 20C22.1279 20 22.6875 19.4404 22.6875 18.75C22.6875 18.0596 22.1279 17.5 21.4375 17.5C20.7471 17.5 20.1875 18.0596 20.1875 18.75C20.1875 19.4404 20.7471 20 21.4375 20Z" fill="#1E2F84"/>
<path id="Vector_3" d="M24.6875 16.25C25.3779 16.25 25.9375 15.6904 25.9375 15C25.9375 14.3096 25.3779 13.75 24.6875 13.75C23.9971 13.75 23.4375 14.3096 23.4375 15C23.4375 15.6904 23.9971 16.25 24.6875 16.25Z" fill="#1E2F84"/>
<path id="Vector_4" d="M8.5 12.5C9.19036 12.5 9.75 11.9404 9.75 11.25C9.75 10.5596 9.19036 10 8.5 10C7.80964 10 7.25 10.5596 7.25 11.25C7.25 11.9404 7.80964 12.5 8.5 12.5Z" fill="#1E2F84"/>
<path id="Vector_5" d="M8.5 20C9.19036 20 9.75 19.4404 9.75 18.75C9.75 18.0596 9.19036 17.5 8.5 17.5C7.80964 17.5 7.25 18.0596 7.25 18.75C7.25 19.4404 7.80964 20 8.5 20Z" fill="#1E2F84"/>
<path id="Vector_6" d="M5.25 16.25C5.94036 16.25 6.5 15.6904 6.5 15C6.5 14.3096 5.94036 13.75 5.25 13.75C4.55964 13.75 4 14.3096 4 15C4 15.6904 4.55964 16.25 5.25 16.25Z" fill="#1E2F84"/>
<path id="Vector_7" d="M19.875 7.75C20.5654 7.75 21.125 7.19036 21.125 6.5C21.125 5.80964 20.5654 5.25 19.875 5.25C19.1846 5.25 18.625 5.80964 18.625 6.5C18.625 7.19036 19.1846 7.75 19.875 7.75Z" fill="#1E2F84"/>
<path id="Vector_8" d="M10.125 7.75C10.8154 7.75 11.375 7.19036 11.375 6.5C11.375 5.80964 10.8154 5.25 10.125 5.25C9.43464 5.25 8.875 5.80964 8.875 6.5C8.875 7.19036 9.43464 7.75 10.125 7.75Z" fill="#1E2F84"/>
<path id="Vector_9" d="M15.0625 8.75C15.7529 8.75 16.3125 8.19036 16.3125 7.5C16.3125 6.80964 15.7529 6.25 15.0625 6.25C14.3721 6.25 13.8125 6.80964 13.8125 7.5C13.8125 8.19036 14.3721 8.75 15.0625 8.75Z" fill="#1E2F84"/>
<path id="Vector_10" d="M19.875 25C20.5654 25 21.125 24.4404 21.125 23.75C21.125 23.0596 20.5654 22.5 19.875 22.5C19.1846 22.5 18.625 23.0596 18.625 23.75C18.625 24.4404 19.1846 25 19.875 25Z" fill="#1E2F84"/>
<path id="Vector_11" d="M10.125 25C10.8154 25 11.375 24.4404 11.375 23.75C11.375 23.0596 10.8154 22.5 10.125 22.5C9.43464 22.5 8.875 23.0596 8.875 23.75C8.875 24.4404 9.43464 25 10.125 25Z" fill="#1E2F84"/>
<path id="Vector_12" d="M15.0625 24C15.7529 24 16.3125 23.4404 16.3125 22.75C16.3125 22.0596 15.7529 21.5 15.0625 21.5C14.3721 21.5 13.8125 22.0596 13.8125 22.75C13.8125 23.4404 14.3721 24 15.0625 24Z" fill="#1E2F84"/>
</g>
<g id="Group_2">
<path id="Vector_13" d="M17.1875 12.8125C18.0504 12.8125 18.75 12.1129 18.75 11.25C18.75 10.3871 18.0504 9.6875 17.1875 9.6875C16.3246 9.6875 15.625 10.3871 15.625 11.25C15.625 12.1129 16.3246 12.8125 17.1875 12.8125Z" fill="#1E2F84"/>
<path id="Vector_14" d="M12.8125 12.8125C13.6754 12.8125 14.375 12.1129 14.375 11.25C14.375 10.3871 13.6754 9.6875 12.8125 9.6875C11.9496 9.6875 11.25 10.3871 11.25 11.25C11.25 12.1129 11.9496 12.8125 12.8125 12.8125Z" fill="#1E2F84"/>
<path id="Vector_15" d="M19.375 16.5625C20.2379 16.5625 20.9375 15.8629 20.9375 15C20.9375 14.1371 20.2379 13.4375 19.375 13.4375C18.5121 13.4375 17.8125 14.1371 17.8125 15C17.8125 15.8629 18.5121 16.5625 19.375 16.5625Z" fill="#1E2F84"/>
<path id="Vector_16" d="M10.625 16.5625C11.4879 16.5625 12.1875 15.8629 12.1875 15C12.1875 14.1371 11.4879 13.4375 10.625 13.4375C9.76205 13.4375 9.0625 14.1371 9.0625 15C9.0625 15.8629 9.76205 16.5625 10.625 16.5625Z" fill="#1E2F84"/>
<path id="Vector_17" d="M12.8125 20.3125C13.6754 20.3125 14.375 19.6129 14.375 18.75C14.375 17.8871 13.6754 17.1875 12.8125 17.1875C11.9496 17.1875 11.25 17.8871 11.25 18.75C11.25 19.6129 11.9496 20.3125 12.8125 20.3125Z" fill="#1E2F84"/>
<path id="Vector_18" d="M17.1875 20.3125C18.0504 20.3125 18.75 19.6129 18.75 18.75C18.75 17.8871 18.0504 17.1875 17.1875 17.1875C16.3246 17.1875 15.625 17.8871 15.625 18.75C15.625 19.6129 16.3246 20.3125 17.1875 20.3125Z" fill="#1E2F84"/>
</g>
<g id="Group_3">
<path id="Vector_19" d="M14.9999 4.16252C14.3874 4.16252 13.8999 3.67502 13.8999 3.06252C13.8999 2.45002 14.3874 1.96252 14.9999 1.96252C15.6124 1.96252 16.0999 2.45002 16.0999 3.06252C16.0999 3.67502 15.6124 4.16252 14.9999 4.16252Z" fill="#1E2F84"/>
</g>
<g id="Group_4">
<path id="Vector_20" d="M21.5626 4.5C21.0376 4.5 20.6125 4.075 20.6125 3.5625C20.6125 3.05 21.0375 2.625 21.55 2.625C22.0625 2.625 22.5001 3.05 22.5001 3.5625C22.5001 4.075 22.0876 4.5 21.5626 4.5Z" fill="#1E2F84"/>
</g>
<g id="Group_5">
<path id="Vector_21" d="M8.4375 4.5C7.925 4.5 7.5 4.075 7.5 3.5625C7.5 3.05 7.9125 2.625 8.4375 2.625H8.45001C8.96251 2.625 9.38751 3.05 9.38751 3.5625C9.38751 4.075 8.9625 4.5 8.4375 4.5Z" fill="#1E2F84"/>
</g>
<g id="Group_6">
<path id="Vector_22" d="M14.9999 27.975C14.3874 27.975 13.8999 27.4875 13.8999 26.875C13.8999 26.2625 14.3874 25.775 14.9999 25.775C15.6124 25.775 16.0999 26.2625 16.0999 26.875C16.0999 27.4875 15.6124 27.975 14.9999 27.975Z" fill="#1E2F84"/>
</g>
<g id="Group_7">
<path id="Vector_23" d="M21.5626 27.3125C21.0376 27.3125 20.6125 26.8875 20.6125 26.375C20.6125 25.8625 21.0375 25.4375 21.55 25.4375C22.0625 25.4375 22.5001 25.8625 22.5001 26.375C22.5001 26.8875 22.0876 27.3125 21.5626 27.3125Z" fill="#1E2F84"/>
</g>
<g id="Group_8">
<path id="Vector_24" d="M8.4375 27.3125C7.925 27.3125 7.5 26.8875 7.5 26.375C7.5 25.8625 7.9125 25.4375 8.4375 25.4375H8.45001C8.96251 25.4375 9.38751 25.8625 9.38751 26.375C9.38751 26.8875 8.9625 27.3125 8.4375 27.3125Z" fill="#1E2F84"/>
</g>
<g id="Group_9">
<path id="Vector_25" d="M1.93737 16.1C1.33737 16.1 0.837402 15.6125 0.837402 15.0125V15C0.837402 14.4 1.32487 13.9 1.93737 13.9C2.54987 13.9 3.03738 14.3875 3.03738 15C3.03738 15.6125 2.53737 16.1 1.93737 16.1Z" fill="#1E2F84"/>
</g>
<g id="Group_10">
<path id="Vector_26" d="M4.6875 22.1875C4.175 22.1875 3.75 21.775 3.75 21.25V21.2375C3.75 20.725 4.175 20.3 4.6875 20.3C5.2 20.3 5.625 20.725 5.625 21.2375C5.625 21.75 5.2 22.1875 4.6875 22.1875Z" fill="#1E2F84"/>
</g>
<g id="Group_11">
<path id="Vector_27" d="M4.6875 9.69995C4.175 9.69995 3.75 9.27495 3.75 8.76245C3.75 8.24995 4.175 7.82495 4.6875 7.82495C5.2 7.82495 5.625 8.23745 5.625 8.74995V8.76245C5.625 9.27495 5.2 9.69995 4.6875 9.69995Z" fill="#1E2F84"/>
</g>
<g id="Group_12">
<path id="Vector_28" d="M28.1249 16.1C27.5249 16.1 27.0249 15.6125 27.0249 15.0125V15C27.0249 14.4 27.5124 13.9 28.1249 13.9C28.7374 13.9 29.2249 14.3875 29.2249 15C29.2249 15.6125 28.7249 16.1 28.1249 16.1Z" fill="#1E2F84"/>
</g>
<g id="Group_13">
<path id="Vector_29" d="M25.375 22.1875C24.8625 22.1875 24.4375 21.775 24.4375 21.25V21.2375C24.4375 20.725 24.8625 20.3 25.375 20.3C25.8875 20.3 26.3125 20.725 26.3125 21.2375C26.3125 21.75 25.8875 22.1875 25.375 22.1875Z" fill="#1E2F84"/>
</g>
<g id="Group_14">
<path id="Vector_30" d="M25.375 9.69995C24.8625 9.69995 24.4375 9.27495 24.4375 8.76245C24.4375 8.24995 24.8625 7.82495 25.375 7.82495C25.8875 7.82495 26.3125 8.23745 26.3125 8.76245V8.77495C26.3125 9.27495 25.8875 9.69995 25.375 9.69995Z" fill="#1E2F84"/>
</g>
</g>
</g>
</g>
</svg>
