<svg width="30" height="30" viewBox="0 0 30 30" fill="none" xmlns="http://www.w3.org/2000/svg">
<g id="vuesax/bold/favorite-chart">
<g id="vuesax/bold/favorite-chart_2">
<g id="favorite-chart">
<path id="Vector" d="M23.8999 18.675L24.2999 19.4875C24.4999 19.8875 25.0124 20.2625 25.4374 20.3375L25.9749 20.425C27.6124 20.7 27.9874 21.9 26.8249 23.075L26.3249 23.5751C25.9874 23.9125 25.8124 24.5626 25.9124 25.0375L25.9749 25.3376C26.4249 27.3125 25.3749 28.075 23.6624 27.0375L23.2999 26.8126C22.8624 26.5501 22.1374 26.5501 21.6999 26.8126L21.3374 27.0375C19.6124 28.075 18.5749 27.3125 19.0249 25.3376L19.0874 25.0375C19.1874 24.5751 19.0124 23.9125 18.6749 23.5751L18.1749 23.075C17.0124 21.8875 17.3874 20.7 19.0249 20.425L19.5624 20.3375C19.9999 20.2625 20.4999 19.8875 20.6999 19.4875L21.0999 18.675C21.8749 17.1125 23.1249 17.1125 23.8999 18.675Z" fill="#1E2F84"/>
<path id="Vector_2" d="M20.2375 2.5H9.7625C5.2125 2.5 2.5 5.2125 2.5 9.7625V20.2375C2.5 24.7875 5.2125 27.5 9.7625 27.5H16.3625C16.8 27.5 17.1125 27.05 17.0625 26.6125C17.0125 26.1375 17.0375 25.575 17.1875 24.925C17.2125 24.8375 17.1875 24.7375 17.1125 24.6625L16.8375 24.3875C15.775 23.3125 15.3875 22.0125 15.7625 20.825C16.15 19.65 17.225 18.825 18.7125 18.575L19.0875 18.5125L19.425 17.8375C20.1125 16.4375 21.2375 15.625 22.5 15.625C23.7625 15.625 24.8875 16.4375 25.575 17.8375L25.7625 18.225C25.85 18.4125 26.025 18.5375 26.225 18.575C26.3375 18.6 26.45 18.625 26.5625 18.65C27 18.7625 27.5 18.4125 27.5 17.95V9.7625C27.5 5.2125 24.7875 2.5 20.2375 2.5ZM20.325 11.2L17.4375 14.925C17.075 15.3875 16.5625 15.6875 15.975 15.75C15.4 15.825 14.8125 15.6625 14.3625 15.3L12.075 13.525C11.9875 13.45 11.8875 13.45 11.8375 13.4625C11.7875 13.4625 11.7 13.4875 11.625 13.5875L8.65 17.45C8.4625 17.6875 8.1875 17.8125 7.9 17.8125C7.7 17.8125 7.5 17.75 7.325 17.6125C6.9125 17.3 6.8375 16.7125 7.15 16.3L10.125 12.4375C10.4875 11.975 11 11.675 11.5875 11.6C12.175 11.525 12.75 11.6875 13.2125 12.05L15.5 13.85C15.5875 13.925 15.675 13.9125 15.7375 13.9125C15.7875 13.9125 15.875 13.8875 15.95 13.7875L18.8375 10.0625C19.15 9.65 19.7375 9.575 20.15 9.9C20.575 10.2125 20.6375 10.8 20.325 11.2Z" fill="#1E2F84"/>
</g>
</g>
</g>
</svg>
