<svg width="30" height="30" viewBox="0 0 30 30" fill="none" xmlns="http://www.w3.org/2000/svg">
<g id="vuesax/bold/flash-circle">
<g id="vuesax/bold/flash-circle_2">
<g id="flash-circle">
<path id="Vector" d="M14.9624 2.5C8.0624 2.5 2.4624 8.1 2.4624 15C2.4624 21.9 8.0624 27.5 14.9624 27.5C21.8624 27.5 27.4624 21.9 27.4624 15C27.4624 8.1 21.8749 2.5 14.9624 2.5ZM19.6499 15.4375L14.9999 20.725L14.4499 21.35C13.6874 22.2125 13.0624 21.9875 13.0624 20.825V15.875H10.9374C9.9749 15.875 9.7124 15.2875 10.3499 14.5625L14.9999 9.275L15.5499 8.65C16.3124 7.7875 16.9374 8.0125 16.9374 9.175V14.125H19.0624C20.0249 14.125 20.2874 14.7125 19.6499 15.4375Z" fill="#1E2F84"/>
</g>
</g>
</g>
</svg>
