<svg width="30" height="30" viewBox="0 0 30 30" fill="none" xmlns="http://www.w3.org/2000/svg">
<g id="vuesax/bold/ranking">
<g id="vuesax/bold/ranking_2">
<g id="ranking">
<path id="Vector" d="M8.3375 17.5H5C3.625 17.5 2.5 18.625 2.5 20V26.25C2.5 26.9375 3.0625 27.5 3.75 27.5H8.3375C9.025 27.5 9.5875 26.9375 9.5875 26.25V18.75C9.5875 18.0625 9.025 17.5 8.3375 17.5Z" fill="#1E2F84"/>
<path id="Vector_2" d="M16.6625 12.5H13.325C11.95 12.5 10.825 13.625 10.825 15V26.25C10.825 26.9375 11.3875 27.5 12.075 27.5H17.9125C18.6 27.5 19.1625 26.9375 19.1625 26.25V15C19.1625 13.625 18.05 12.5 16.6625 12.5Z" fill="#1E2F84"/>
<path id="Vector_3" d="M25.0001 21.25H21.6626C20.9751 21.25 20.4126 21.8125 20.4126 22.5V26.25C20.4126 26.9375 20.9751 27.5 21.6626 27.5H26.2501C26.9376 27.5 27.5001 26.9375 27.5001 26.25V23.75C27.5001 22.375 26.3751 21.25 25.0001 21.25Z" fill="#1E2F84"/>
<path id="Vector_4" d="M18.7625 6.06248C19.15 5.67498 19.3 5.21248 19.175 4.81248C19.05 4.41248 18.6625 4.12498 18.1125 4.03748L16.9125 3.83748C16.8625 3.83748 16.75 3.74998 16.725 3.69998L16.0625 2.37498C15.5625 1.36248 14.425 1.36248 13.925 2.37498L13.2625 3.69998C13.25 3.74998 13.1375 3.83748 13.0875 3.83748L11.8875 4.03748C11.3375 4.12498 10.9625 4.41248 10.825 4.81248C10.7 5.21248 10.85 5.67498 11.2375 6.06248L12.1625 6.99998C12.2125 7.03748 12.25 7.18748 12.2375 7.23748L11.975 8.38748C11.775 9.24998 12.1 9.63748 12.3125 9.78748C12.525 9.93748 12.9875 10.1375 13.75 9.68748L14.875 9.02498C14.925 8.98748 15.0875 8.98748 15.1375 9.02498L16.25 9.68748C16.6 9.89998 16.8875 9.96247 17.1125 9.96247C17.375 9.96247 17.5625 9.86248 17.675 9.78748C17.8875 9.63748 18.2125 9.24998 18.0125 8.38748L17.75 7.23748C17.7375 7.17498 17.775 7.03748 17.825 6.99998L18.7625 6.06248Z" fill="#1E2F84"/>
</g>
</g>
</g>
</svg>
