<svg width="24" height="25" viewBox="0 0 24 25" fill="none" xmlns="http://www.w3.org/2000/svg">
<path d="M8.93 2.52246H5.02C3 2.52246 2 3.52246 2 5.54246V9.46246C2 11.5225 3 12.5225 5.02 12.4725H8.94C11 12.5225 12 11.5225 11.95 9.45246V5.54246C12 3.52246 11 2.52246 8.93 2.52246ZM9.01 10.2825C8.33 10.2825 7.67 10.0225 7.12 9.56246C6.5 10.0125 5.75 10.2825 4.94 10.2825C4.53 10.2825 4.19 9.94246 4.19 9.53246C4.19 9.12246 4.53 8.78246 4.94 8.78246C5.96 8.78246 6.81 8.08246 7.12 7.12246H4.94C4.53 7.12246 4.19 6.78246 4.19 6.37246C4.19 5.96246 4.53 5.62246 4.94 5.62246H6.23C6.27 5.24246 6.58 4.94246 6.97 4.94246C7.36 4.94246 7.67 5.24246 7.71 5.62246H7.97C7.98 5.62246 7.99 5.62246 7.99 5.62246H8.01H9C9.41 5.62246 9.75 5.96246 9.75 6.37246C9.75 6.78246 9.42 7.12246 9 7.12246H8.67C8.58 7.60246 8.39 8.05246 8.14 8.46246C8.41 8.66246 8.7 8.78246 9.01 8.78246C9.42 8.78246 9.76 9.12246 9.76 9.53246C9.76 9.94246 9.42 10.2825 9.01 10.2825Z" fill="#393939"/>
<path d="M9 23.2725C4.73 23.2725 1.25 19.7925 1.25 15.5225C1.25 15.1125 1.59 14.7725 2 14.7725C2.41 14.7725 2.75 15.1125 2.75 15.5225C2.75 18.4825 4.81 20.9625 7.58 21.6125L7.31 21.1625C7.1 20.8025 7.21 20.3425 7.57 20.1325C7.92 19.9225 8.39 20.0325 8.6 20.3925L9.65 22.1425C9.79 22.3725 9.79 22.6625 9.66 22.8925C9.52 23.1225 9.27 23.2725 9 23.2725Z" fill="#393939"/>
<path d="M22.0004 10.2725C21.5904 10.2725 21.2504 9.93246 21.2504 9.52246C21.2504 6.56246 19.1904 4.08246 16.4204 3.43246L16.6904 3.88246C16.9004 4.24246 16.7904 4.70246 16.4304 4.91246C16.0804 5.12246 15.6104 5.01246 15.4004 4.65246L14.3504 2.90246C14.2104 2.67246 14.2104 2.38246 14.3404 2.15246C14.4804 1.92246 14.7304 1.77246 15.0004 1.77246C19.2704 1.77246 22.7504 5.25246 22.7504 9.52246C22.7504 9.93246 22.4104 10.2725 22.0004 10.2725Z" fill="#393939"/>
<path d="M16.9198 12.3721C14.1198 12.3721 11.8398 14.6421 11.8398 17.4521C11.8398 20.2521 14.1098 22.5321 16.9198 22.5321C19.7198 22.5321 21.9998 20.2621 21.9998 17.4521C21.9998 14.6421 19.7298 12.3721 16.9198 12.3721ZM19.3998 19.8621C19.0298 20.0421 18.5798 19.9021 18.3898 19.5221L18.2198 19.1821H15.6298L15.4598 19.5221C15.3298 19.7821 15.0598 19.9321 14.7898 19.9321C14.6798 19.9321 14.5598 19.9021 14.4598 19.8521C14.0898 19.6621 13.9398 19.2121 14.1198 18.8421L16.2598 14.5721C16.3898 14.3221 16.6498 14.1621 16.9298 14.1621C17.2098 14.1621 17.4698 14.3221 17.5998 14.5821L19.7398 18.8521C19.9198 19.2221 19.7698 19.6721 19.3998 19.8621Z" fill="#393939"/>
<path d="M16.3799 17.6828H17.4699L16.9199 16.5928L16.3799 17.6828Z" fill="#393939"/>
</svg>
