<svg width="24" height="25" viewBox="0 0 24 25" fill="none" xmlns="http://www.w3.org/2000/svg">
<path d="M9.14999 8.0127C8.58999 8.0127 8.14999 8.4627 8.14999 9.0127C8.14999 9.5627 8.59999 10.0127 9.14999 10.0127C9.69999 10.0127 10.15 9.5627 10.15 9.0127C10.15 8.4627 9.69999 8.0127 9.14999 8.0127Z" fill="#5B5B5B"/>
<path d="M21.46 5.56246C20.62 3.61246 18.77 2.52246 16.19 2.52246H7.81C4.6 2.52246 2 5.12246 2 8.33246V16.7125C2 19.2925 3.09 21.1425 5.04 21.9825C5.23 22.0625 5.45 22.0125 5.59 21.8725L21.35 6.11246C21.5 5.96246 21.55 5.74246 21.46 5.56246ZM10.53 12.7625C10.14 13.1425 9.63 13.3225 9.12 13.3225C8.61 13.3225 8.1 13.1325 7.71 12.7625C6.69 11.8025 5.57 10.2725 6 8.45246C6.38 6.80246 7.84 6.06246 9.12 6.06246C10.4 6.06246 11.86 6.80246 12.24 8.46246C12.66 10.2725 11.54 11.8025 10.53 12.7625Z" fill="#5B5B5B"/>
<path d="M19.47 21.0525C19.69 21.2725 19.66 21.6325 19.39 21.7825C18.51 22.2725 17.44 22.5225 16.19 22.5225H7.81C7.52 22.5225 7.4 22.1825 7.6 21.9825L13.64 15.9425C13.84 15.7425 14.15 15.7425 14.35 15.9425L19.47 21.0525Z" fill="#5B5B5B"/>
<path d="M22 8.33236V16.7124C22 17.9624 21.75 19.0424 21.26 19.9124C21.11 20.1824 20.75 20.2024 20.53 19.9924L15.41 14.8724C15.21 14.6724 15.21 14.3624 15.41 14.1624L21.45 8.12236C21.66 7.92236 22 8.04236 22 8.33236Z" fill="#5B5B5B"/>
</svg>
