<svg width="176" height="36" viewBox="0 0 176 36" fill="none" xmlns="http://www.w3.org/2000/svg">
<path fill-rule="evenodd" clip-rule="evenodd" d="M22.9129 34.3659L33.9998 23.1957L33.9998 0.855364L33.9998 0.855347L33.9998 0.855347L11.826 0.855347L0.739116 12.0255H22.9129L22.9129 34.3659ZM19.2173 16.4935H6.40576L0 23.1956H12.5651L12.5651 35.8552L19.2173 29.4013L19.2173 16.4935Z" fill="#2644D9"/>
<path d="M152.743 27.2997L148.076 8.17383H152.743L155.918 21.1795L160.049 8.17383H164.027L168.197 21.256L171.372 8.17383H176L171.333 27.2997H166.169L162.038 14.2941L157.907 27.2997H152.743Z" fill="black"/>
<path d="M137.318 27.9086C131.657 27.9086 127.641 23.7009 127.641 17.7718C127.641 11.8046 131.657 7.55859 137.318 7.55859C142.941 7.55859 146.92 11.8046 146.92 17.7718C146.92 23.7009 142.941 27.9086 137.318 27.9086ZM132.154 17.7718C132.154 21.597 134.182 24.0834 137.318 24.0834C140.417 24.0834 142.444 21.597 142.444 17.7718C142.444 13.9084 140.417 11.3838 137.318 11.3838C134.182 11.3838 132.154 13.9084 132.154 17.7718Z" fill="black"/>
<path d="M115.84 27.2997V8.17383H120.239V12.458C121.004 9.66565 122.458 8.17383 124.485 8.17383H128.004V11.999H124.867C121.578 11.999 120.239 14.0646 120.239 19.0756V27.2997H115.84Z" fill="black"/>
<path d="M101.968 35.559C96.9566 35.559 93.4374 33.0344 93.3991 29.4769L98.1806 29.0944C98.4866 30.7392 100.055 31.7338 102.274 31.7338C105.41 31.7338 107.591 29.6299 107.591 26.5315V23.6244C106.481 26.302 104.148 27.9086 101.088 27.9086C96.2298 27.9086 92.7871 23.7009 92.7871 17.6953C92.7871 11.7281 96.1533 7.55859 101.05 7.55859C104.11 7.55859 106.481 9.20342 107.591 11.8811V8.17063H111.99V25.7665C111.99 31.6955 108.05 35.559 101.968 35.559ZM97.3008 17.7336C97.3008 21.5588 99.3664 24.0834 102.427 24.0834C105.487 24.0834 107.552 21.5588 107.552 17.7336C107.552 13.9084 105.487 11.3838 102.427 11.3838C99.3664 11.3838 97.3008 13.9084 97.3008 17.7336Z" fill="black"/>
<path d="M82.8351 27.9085C79.8133 27.9085 77.4799 26.3019 76.3706 23.6625V34.9468H71.9716V8.1705H76.3706V11.8044C77.4799 9.16505 79.8133 7.55847 82.8351 7.55847C87.7314 7.55847 91.174 11.7662 91.174 17.7335C91.174 23.7008 87.7314 27.9085 82.8351 27.9085ZM76.4088 17.7335C76.4088 21.5587 78.4744 24.0833 81.5346 24.0833C84.5947 24.0833 86.6603 21.5587 86.6603 17.7335C86.6603 13.9083 84.5947 11.3837 81.5346 11.3837C78.4744 11.3837 76.4088 13.9083 76.4088 17.7335Z" fill="black"/>
<path d="M58.0913 27.9108C52.0093 27.9108 47.8398 23.7031 47.8398 17.5445V0.522461H52.3536V17.5445C52.3536 21.2932 54.4574 24.0856 58.0913 24.0856C61.687 24.0856 63.7909 21.2932 63.7909 17.5445V0.522461H68.3046V17.5445C68.3046 23.7031 64.1734 27.9108 58.0913 27.9108Z" fill="black"/>
</svg>
