<svg width="195" height="40" viewBox="0 0 195 40" fill="none" xmlns="http://www.w3.org/2000/svg">
<path d="M102.024 3.33963C100.132 3.33963 99.0069 4.27059 98.999 5.53837C98.9831 6.94616 100.466 7.53085 101.836 7.8601L103.402 8.25557C105.913 8.85728 108.302 10.1894 108.31 13.1128C108.302 16.0855 105.978 18.1007 101.975 18.1007C97.9708 18.1007 95.616 16.2161 95.4934 12.865H98.4691C98.5917 14.6342 100.059 15.4913 101.951 15.4913C103.843 15.4913 105.277 14.5282 105.284 13.0882C105.277 11.7788 104.086 11.2112 102.285 10.7495L100.385 10.2556C97.6367 9.53848 95.9343 8.14771 95.9343 5.72759C95.9264 2.74737 98.56 0.754883 102.066 0.754883C105.571 0.754883 108.025 2.77197 108.082 5.61973H105.172C105.018 4.18733 103.827 3.33963 102.024 3.33963Z" fill="#5B5B5B"/>
<path d="M114.697 0.984375L119.654 13.2004H119.85L124.807 0.984375H128.508V17.8439H125.606V6.26172H125.451L120.837 17.7947H118.668L114.053 6.23712H113.899V17.8439H110.996V0.984375H114.697Z" fill="#5B5B5B"/>
<path d="M130.712 17.8439L136.59 0.984375H140.323L146.209 17.8439H142.98L141.594 13.6867H135.317L133.939 17.8439H130.71H130.712ZM140.78 11.2325L138.522 4.44142H138.391L136.133 11.2325H140.78Z" fill="#5B5B5B"/>
<path d="M148.408 0.984375H154.67C158.502 0.984375 160.556 3.15851 160.556 6.37715C160.556 8.66482 159.52 10.3621 157.557 11.1606L161.169 17.8458H157.794L154.516 11.6715H151.435V17.8458H148.41V0.984375H148.408ZM154.221 9.13408C156.463 9.13408 157.474 8.17095 157.474 6.37525C157.474 4.57956 156.463 3.53506 154.205 3.53506H151.433V9.13408H154.221Z" fill="#5B5B5B"/>
<path d="M162.604 0.984375H175.927V3.54452H170.766V17.8439H167.767V3.54452H162.606V0.984375H162.604Z" fill="#5B5B5B"/>
<path d="M95.3641 21.8984H108.684V24.4586H103.524V38.7579H100.525V24.4586H95.3641V21.8984Z" fill="#5B5B5B"/>
<path d="M131.819 28.0727H131.95L135.643 21.8984H139.091L133.947 30.3282L139.172 38.7579H135.667L131.95 32.6253H131.819L128.102 38.7579H124.612L129.887 30.3282L124.678 21.8984H128.144L131.821 28.0727H131.819Z" fill="#5B5B5B"/>
<path d="M155.178 38.7599H152.487L144.62 27.2761H144.481V38.7599H141.456V21.9004H144.163L152.022 33.3936H152.168V21.9004H155.178V38.7599Z" fill="#5B5B5B"/>
<path d="M161.484 38.7599H158.459V21.9004H161.484V38.7599Z" fill="#5B5B5B"/>
<path d="M164.767 21.8984H167.792V29.6451H167.995L174.51 21.8984H178.204L171.746 29.4635L178.259 38.7579H174.623L169.642 31.5297L167.792 33.736V38.7579H164.767V21.8984Z" fill="#5B5B5B"/>
<path d="M179.219 38.7599L185.097 21.9004H188.83L194.716 38.7599H191.487L190.101 34.6027H183.824L182.446 38.7599H179.217H179.219ZM189.287 32.1485L187.029 25.3574H186.898L184.64 32.1485H189.287Z" fill="#5B5B5B"/>
<path d="M21.5673 12.1822L39.7139 12.1765C45.772 12.1746 50.2187 17.6204 48.7516 23.2459L46.8516 30.5271C45.5308 35.5887 40.7776 39.1404 35.3285 39.1404H0.00012207L1.00651 35.3257H32.4161C38.1559 35.3257 41.5349 32.7939 42.9604 27.7664C44.384 22.5855 44.4671 22.0387 44.4671 20.8712C44.4671 17.5579 42.1478 15.9231 37.4658 15.9231H19.7364C19.248 15.9231 18.8823 15.8058 18.8823 15.2986C18.8823 15.1813 18.9238 14.9486 19.2896 13.7414C19.6158 12.6496 20.4719 12.1822 21.5693 12.1822H21.5673Z" fill="#5B5B5B"/>
<path d="M82.8795 0.522461L78.9627 15.3762H63.4655L57.1978 39.1404H53.3996L60.4345 12.1727H75.9455L78.0176 4.11764H37.8748L37.8649 4.15549H21.6084C15.9082 4.15549 12.3651 6.68914 10.981 11.7546C9.47443 17.4804 9.39337 17.7945 9.39337 18.7671C9.39337 21.8457 11.7957 23.4048 16.5982 23.4048H34.3257C34.9367 23.4048 35.1818 23.4446 35.1818 23.8722C35.1818 24.0671 35.1818 24.1844 34.733 25.7417C34.4068 26.8713 33.4716 27.299 32.3722 27.299H14.1841C7.6831 27.316 4.31793 22.7596 5.55169 18.084L7.96782 8.92383C9.27078 3.9833 13.9152 0.522461 19.2398 0.522461H82.8795Z" fill="#5B5B5B"/>
<path d="M122.442 21.8987H110.811V24.4561H122.442V21.8987Z" fill="#5B5B5B"/>
<path d="M122.442 29.0474H110.811V31.6048H122.442V29.0474Z" fill="#5B5B5B"/>
<path d="M122.442 36.2014H110.811V38.7588H122.442V36.2014Z" fill="#5B5B5B"/>
</svg>
