<svg width="169" height="48" viewBox="0 0 169 48" fill="none" xmlns="http://www.w3.org/2000/svg">
<path d="M61.3415 17.001V37.9968H54.3613V17.001H48.6328V11.0664H67.0699V17.001H61.3415Z" fill="#5B5B5B"/>
<path d="M86.311 35.6207C83.9251 37.9614 81.1495 38.6116 78.244 38.6116C75.6219 38.6116 72.7164 38.0914 70.2125 35.6207C68.24 33.6818 67.425 31.3765 67.425 28.9531C67.425 25.7256 68.8778 23.6214 70.2125 22.3328C71.7007 20.8786 74.3228 19.3418 78.244 19.3418C82.2361 19.3418 84.8228 20.9142 86.311 22.3328C87.6455 23.6214 89.0983 25.7256 89.0983 28.9531C89.0983 31.3765 88.2952 33.6818 86.311 35.6207ZM75.3857 26.0094C74.5826 26.7779 74.1337 27.9127 74.1337 28.9531C74.1337 30.0406 74.6534 31.0929 75.3857 31.8258C76.1535 32.5942 77.2046 33.0316 78.2912 33.0316C79.3425 33.0316 80.3936 32.5824 81.1613 31.8258C81.9644 31.0573 82.4133 30.0052 82.4133 28.9531C82.4133 27.9837 81.9644 26.8133 81.1613 26.0094C80.4408 25.3237 79.307 24.839 78.2912 24.839C77.2401 24.839 76.1062 25.3237 75.3857 26.0094Z" fill="#5B5B5B"/>
<path d="M99.2683 47.2545H92.8076V19.9459H99.2683V21.9201C100.402 20.5014 102.138 19.3311 104.796 19.3311C107.583 19.3311 109.756 20.5014 111.21 21.9556C112.698 23.4451 113.949 25.8331 113.949 28.9423C113.949 31.9687 112.78 34.3923 111.044 36.0946C109.024 38.0689 106.686 38.6009 104.867 38.6009C103.697 38.6009 101.276 38.3644 99.2564 36.2601V47.2545H99.2683ZM100.319 26.0459C99.5163 26.8498 99.0675 28.0202 99.0675 29.0369C99.0675 30.0891 99.6344 31.2121 100.319 31.9096C101.087 32.6781 102.138 33.1155 103.225 33.1155C104.359 33.1155 105.363 32.6662 106.095 31.9096C106.78 31.2239 107.347 30.1364 107.347 29.0369C107.347 28.032 106.898 26.8617 106.095 26.0459C105.375 25.2776 104.359 24.8401 103.225 24.8401C102.127 24.8401 101.087 25.2776 100.319 26.0459Z" fill="#5B5B5B"/>
<path d="M125.25 11.0664V27.0142C125.25 28.1491 125.285 29.8869 126.62 31.1755C127.423 31.944 128.722 32.4641 129.926 32.4641C131.132 32.4641 132.384 31.9794 133.152 31.2938C134.769 29.8752 134.722 27.9009 134.722 26.4113V11.0664H141.702V26.5295C141.702 29.3549 141.584 32.3105 138.679 35.2541C136.423 37.5593 133.6 38.6116 129.797 38.6116C125.557 38.6116 122.533 37.1574 120.879 35.3841C118.541 32.8424 118.258 29.4022 118.258 26.5413V11.0664H125.25Z" fill="#5B5B5B"/>
<path d="M153.242 35.5374L144.525 19.9443H152.025L156.832 29.189L161.509 19.9443H168.891L154.411 47.2412H147.182L153.242 35.5374Z" fill="#5B5B5B"/>
<path fill-rule="evenodd" clip-rule="evenodd" d="M25.3082 28.2326C22.1261 30.9398 17.3349 30.5734 14.5937 27.4169C11.8525 24.2604 12.2339 19.4962 15.4161 16.7889C18.5982 14.0817 23.4014 14.4482 26.1306 17.6047C28.8599 20.773 28.4904 25.5254 25.3082 28.2326Z" fill="#5B5B5B"/>
<path fill-rule="evenodd" clip-rule="evenodd" d="M38.9062 16.1984L22.5782 1.37364C21.3267 0.238734 19.396 0.238734 18.1446 1.37364L1.81658 16.1984C1.13724 16.8131 0.755859 17.6879 0.755859 18.5982V35.8228C0.755859 37.6197 2.2218 39.0856 4.04529 39.0856H27.6315L26.1536 37.3715C25.7723 36.9341 25.8319 36.2838 26.2728 35.9055L26.4397 35.7637L24.199 33.1746C19.8727 34.6997 14.8671 33.5411 11.7087 29.8763C7.60885 25.1239 8.169 17.9834 12.9483 13.9285C17.7393 9.86179 24.938 10.4174 29.0259 15.158C32.8994 19.6385 32.6133 26.2707 28.5254 30.4202L30.3012 32.4771L30.468 32.3353C30.909 31.957 31.5764 32.0161 31.9459 32.4535L37.5713 38.9792C38.9539 38.6009 39.9669 37.336 39.9669 35.8464V18.5982C39.9669 17.6879 39.5855 16.8131 38.9062 16.1984Z" fill="#5B5B5B"/>
</svg>
