<svg width="99" height="69" viewBox="0 0 99 69" fill="none" xmlns="http://www.w3.org/2000/svg">
<path d="M34.2566 0.694341C34.503 0.653691 34.7222 0.592929 34.9435 0.585654C35.8342 0.555274 36.7265 0.508204 37.6167 0.526604C40.4443 0.585227 43.0126 1.43375 45.275 3.12653C46.4081 3.9742 47.3082 5.04994 48.1565 6.17147C49.0968 7.41452 50.0538 8.64516 51.0105 9.87581C51.1839 10.0987 51.3915 10.296 51.6077 10.5318C51.7151 10.4346 51.8057 10.37 51.8748 10.2883C52.7969 9.19673 53.6974 8.08633 54.6411 7.01315C55.5947 5.92885 56.6031 4.89162 57.5615 3.81117C57.8899 3.44104 58.2377 3.23607 58.746 3.25447C59.272 3.27373 59.8001 3.23222 60.3926 3.21553C60.1716 3.48083 59.9801 3.72174 59.7768 3.95238C58.9924 4.84241 58.2074 5.73159 57.4169 6.61606C56.645 7.47999 55.8657 8.3375 55.0912 9.19887C54.9574 9.34778 54.8228 9.49711 54.705 9.658C54.4758 9.96994 54.4806 10.0346 54.7218 10.3298C55.0653 10.7504 55.42 11.1629 55.7561 11.5895C57.6495 13.9931 59.5373 16.4009 61.4303 18.8044C62.8793 20.6439 64.661 22.074 66.793 23.0718C67.1274 23.2284 67.4515 23.4069 67.7924 23.5815C67.7337 23.768 67.6879 23.9139 67.6318 24.0919C67.461 24.1112 67.2931 24.145 67.1253 24.1463C66.1911 24.1544 65.253 24.2066 64.3227 24.1463C62.5401 24.0312 60.7852 23.7573 59.1481 22.9803C57.4692 22.1835 56.0694 21.0406 54.9177 19.605C53.6025 17.9653 52.3205 16.2999 51.0221 14.6473C50.928 14.5275 50.818 14.4201 50.6907 14.2802C50.355 14.6499 50.0482 14.9854 49.7436 15.3234C48.9487 16.2049 48.1526 17.0851 47.3608 17.9695C46.4642 18.9713 45.5731 19.9773 44.6778 20.9798C43.9921 21.7475 43.2974 22.5074 42.6182 23.2811C42.0525 23.9255 41.5166 24.596 40.9423 25.2327C40.4931 25.7308 40.0072 26.1968 39.533 26.6722C39.3746 26.8309 39.1779 26.887 38.9474 26.8947C38.5466 26.9075 38.147 26.9606 37.7461 26.9867C37.5524 26.9991 37.3574 26.9888 37.0946 26.9888C37.1981 26.8429 37.2529 26.7484 37.3241 26.6679C38.8249 24.9768 40.3252 23.2854 41.8316 21.5994C42.6135 20.7244 43.4122 19.8647 44.1936 18.9897C44.67 18.4561 45.1226 17.9019 45.5973 17.3666C46.204 16.682 46.8176 16.0029 47.4368 15.329C47.8955 14.8296 47.8838 14.7654 47.423 14.2862C47.0471 13.8955 46.7024 13.4732 46.3684 13.0461C44.7912 11.0303 43.2253 9.00588 41.6499 6.98876C40.8482 5.96265 40.0176 4.95837 39.0626 4.06791C38.2531 3.31309 37.3323 2.70162 36.3619 2.1676C35.8225 1.87064 35.2715 1.59593 34.7248 1.31223C34.5 1.19584 34.3157 1.04693 34.257 0.695197L34.2566 0.694341Z" fill="#5B5B5B"/>
<path d="M79.3752 51.993C78.8729 51.9121 78.5648 51.6511 78.2934 51.3255C77.1305 49.9305 75.9668 48.536 74.7991 47.1445C73.4019 45.4791 71.9996 43.8184 70.6011 42.1539C69.8649 41.278 69.134 40.3982 68.397 39.5236C68.2826 39.3879 68.1463 39.2707 68.0198 39.1453C67.9883 39.1581 67.9568 39.171 67.9258 39.1838C67.9141 39.3755 67.8917 39.5672 67.893 39.7589C67.9081 42.6391 67.9305 45.5193 67.94 48.3995C67.9426 49.2262 67.9124 50.0533 67.8925 50.88C67.8831 51.2729 67.8127 51.3482 67.4231 51.4059C67.2259 51.4355 67.0278 51.4577 66.8125 51.4855V35.6143C67.7527 35.7234 68.5385 36.0297 69.1396 36.7366C69.9823 37.7285 70.8397 38.708 71.6798 39.702C73.1663 41.4607 74.6451 43.2262 76.1264 44.9891C76.614 45.5698 77.096 46.1547 77.5892 46.7311C77.7144 46.8775 77.8714 46.9973 78.0259 47.1402C78.224 46.907 78.1868 46.6716 78.1873 46.4513C78.1886 44.797 78.1821 43.1427 78.1812 41.488C78.1804 39.9476 78.1847 38.4076 78.1851 36.8671C78.1851 36.1585 78.5049 35.797 79.2647 35.6733C79.433 41.0999 79.2427 46.5249 79.3761 51.9926L79.3752 51.993Z" fill="#5B5B5B"/>
<path d="M98.5451 46.7866C98.5451 47.7134 98.5175 48.6416 98.5541 49.5667C98.5813 50.2569 98.2844 50.663 97.6497 50.8906C95.9211 51.5098 94.1636 51.9715 92.303 51.7888C89.7498 51.5384 87.7209 50.3874 86.3021 48.2457C85.2946 46.7246 84.7884 45.0527 84.9295 43.2256C85.0805 41.2671 85.7627 39.4875 87.059 38.0044C88.5886 36.2551 90.5537 35.3505 92.9192 35.4143C93.9617 35.4425 94.9127 35.7819 95.7999 36.324C96.8135 36.9432 97.5992 37.7797 98.2206 38.7729C98.3768 39.0228 98.486 39.309 98.5723 39.5923C98.6404 39.8161 98.5494 39.9051 98.3181 39.9333C97.9997 39.9719 97.7766 39.8568 97.6031 39.576C97.1604 38.8585 96.6857 38.1614 96.0553 37.5855C95.3861 36.9744 94.6016 36.6265 93.6911 36.5799C92.2434 36.5059 90.9597 36.9406 89.8918 37.9047C89.1975 38.5311 88.662 39.2898 88.2926 40.1588C87.7041 41.544 87.5017 42.9907 87.6609 44.4708C87.8473 46.2025 88.3712 47.8273 89.6139 49.1225C90.8001 50.3591 92.2456 51.0365 94.0061 50.8953C94.8234 50.8298 95.5574 50.5008 96.2745 50.1298C96.4756 50.0258 96.5162 49.8435 96.5222 49.6634C96.542 49.0656 96.5485 48.467 96.5433 47.8688C96.5347 46.8854 96.5196 45.9021 96.4937 44.9192C96.4803 44.4075 96.7052 44.0356 97.1384 43.7943C97.4245 43.6351 97.7295 43.4999 98.0402 43.3968C98.5697 43.1944 98.5118 43.2042 98.5101 43.2791C98.514 44.2915 98.5338 46.7857 98.5446 46.7857L98.5451 46.7866Z" fill="#5B5B5B"/>
<path d="M43.6849 44.3814V43.5727C43.8769 43.5385 44.0543 43.4905 44.2342 43.4777C44.736 43.4418 45.2387 43.4187 45.741 43.393C46.3606 43.3618 46.8681 43.1101 47.2983 42.6673C48.2122 41.7267 48.5225 40.6159 48.2075 39.3617C48.0172 38.6056 47.4976 38.04 46.916 37.5325C46.3943 37.0776 45.7734 36.8739 45.0989 36.8478C44.396 36.8209 43.6905 36.829 42.9867 36.8491C42.4888 36.8632 42.4392 36.9462 42.4396 37.4516C42.443 41.6159 42.4456 45.7802 42.443 49.945C42.4426 50.8072 42.3114 50.9895 41.4709 51.1996C41.0156 51.3134 40.541 51.3498 40.1289 51.4131C40.0569 51.3631 40.0443 51.3566 40.0348 51.3472C40.0245 51.3374 40.0128 51.3263 40.009 51.3134C39.9969 51.2728 39.98 51.2313 39.98 51.1898C39.9792 46.0271 39.9796 40.865 39.9813 35.7023C39.9813 35.6625 40.0033 35.6227 40.0241 35.5513C40.1432 35.5406 40.2687 35.5196 40.3939 35.5196C42.0046 35.5149 43.6163 35.4751 45.2254 35.5235C46.3175 35.556 47.4023 35.743 48.4172 36.1807C49.9753 36.8525 50.8116 38.0622 51.0592 39.7105C51.171 40.4537 51.0782 41.1568 50.7542 41.8329C50.5294 42.3023 50.2109 42.6925 49.8049 43.0271C48.6286 43.9976 47.2362 44.3104 45.7574 44.3707C45.2405 44.3917 44.7231 44.3977 44.2057 44.405C44.05 44.4071 43.8942 44.3913 43.6849 44.3806V44.3814Z" fill="#5B5B5B"/>
<path d="M16.6064 51.401C16.2672 51.401 16.0252 51.4091 15.7835 51.3993C15.1531 51.374 14.5227 51.3424 13.8927 51.3103C13.6346 51.297 13.4262 51.1798 13.2558 50.9915C13.0353 50.748 12.7962 50.5182 12.5973 50.2581C11.2761 48.534 9.96603 46.8015 8.64564 45.0775C8.46657 44.8438 8.24866 44.6397 8.02471 44.3958C7.91554 44.5199 7.83442 44.5961 7.77271 44.6851C7.16948 45.5563 6.43679 46.3209 5.74337 47.1185C4.80572 48.1969 3.87497 49.2816 2.93646 50.3595C2.76774 50.5529 2.58349 50.7347 2.39234 50.9068C1.82836 51.4134 1.61736 51.4716 0.757812 51.3629C1.09568 50.8734 1.52373 50.5032 1.88964 50.0835C2.25598 49.6633 2.64174 49.2602 3.01283 48.8438C3.39298 48.4168 3.76537 47.9829 4.14077 47.5516C4.51618 47.1203 4.8877 46.6859 5.26656 46.258C5.63635 45.8408 6.01694 45.433 6.38717 45.0163C6.76559 44.5901 7.13668 44.1579 7.53625 43.6992C5.44045 40.9829 3.35286 38.2764 1.20269 35.4895C1.39298 35.4895 1.48403 35.4895 1.57507 35.4895C2.23656 35.4912 2.89762 35.5006 3.55868 35.4925C4.16149 35.4848 4.62492 35.6957 4.99687 36.1904C6.31036 37.9379 7.64844 39.6671 8.97746 41.4031C9.03744 41.4818 9.09958 41.5593 9.19149 41.6761C9.29375 41.5837 9.39256 41.5109 9.47153 41.421C10.4722 40.2837 11.4689 39.1425 12.4687 38.0047C13.0064 37.3928 13.5427 36.7796 14.0912 36.1776C14.4942 35.7351 14.9766 35.4197 15.6088 35.3389C15.6942 35.7257 15.4702 35.9897 15.264 36.2272C14.0549 37.6183 12.8273 38.9931 11.6118 40.3791C11.075 40.9914 10.552 41.6153 10.023 42.2345C9.82536 42.466 9.81587 42.5546 10.029 42.834C10.5058 43.4587 10.9982 44.0719 11.478 44.6949C12.5852 46.1331 13.6869 47.576 14.7941 49.0141C15.2649 49.6256 15.7455 50.2294 16.218 50.84C16.338 50.9953 16.4424 51.1626 16.6073 51.4018L16.6064 51.401Z" fill="#5B5B5B"/>
<path d="M20.9928 35.4565C22.0172 35.4219 23.014 36.041 23.3928 36.8515C23.5024 37.0855 23.5249 37.3769 23.5249 37.6418C23.5249 40.0522 23.505 42.4621 23.5059 44.8725C23.5059 45.4698 23.5206 46.0727 23.5965 46.6641C23.8464 48.6123 24.8798 49.9589 26.7948 50.5627C27.8943 50.9093 28.9747 50.7797 30.0358 50.3475C31.5905 49.7142 32.5074 48.5862 32.627 46.9268C32.7232 45.5931 32.7042 44.2499 32.7081 42.911C32.7141 40.7719 32.6994 38.6324 32.6861 36.4933C32.6848 36.2914 32.7417 36.1343 32.8854 35.9991C33.1366 35.7625 33.4101 35.5618 33.7825 35.4287C33.7967 35.5562 33.8183 35.6611 33.8183 35.7655C33.8067 39.231 33.7933 42.6962 33.7786 46.1617C33.7726 47.5879 33.3225 48.852 32.3275 49.8943C31.7471 50.5024 31.033 50.9294 30.2446 51.2298C29.146 51.6487 28.0116 51.8614 26.8306 51.8207C25.9538 51.7908 25.1327 51.5571 24.3439 51.1904C23.0472 50.5875 22.0621 49.671 21.4653 48.3689C21.1883 47.7642 21.0636 47.1185 21.0407 46.4613C20.9946 45.151 20.9583 43.8395 20.9527 42.5284C20.9437 40.3179 20.9613 38.1074 20.9695 35.8968C20.97 35.7573 20.9838 35.6183 20.9928 35.4561V35.4565Z" fill="#5B5B5B"/>
<path d="M59.0736 51.4082C58.337 51.3825 57.6492 51.3085 57.0671 50.8378C56.8531 50.665 56.7219 50.4617 56.709 50.1883C56.6999 49.9889 56.6874 49.7895 56.6874 49.5901C56.6874 45.0864 56.6882 40.5828 56.6891 36.0791C56.6891 35.9097 56.6891 35.7406 56.6891 35.5845C57.553 35.3153 58.3068 35.5648 58.7702 36.228C58.9622 36.5027 59.0019 36.8061 59.0063 37.121C59.0257 38.6174 59.0498 40.1134 59.0559 41.6097C59.0675 44.5456 59.0684 47.4814 59.0736 50.4172C59.074 50.7287 59.0736 51.0402 59.0736 51.4082Z" fill="#5B5B5B"/>
<path d="M3.86719 63.9892V63.5922C3.9181 63.5755 3.9578 63.5519 3.9975 63.5515C7.92286 63.5309 11.8482 63.5103 15.774 63.4962C16.3345 63.494 16.8946 63.5275 17.4551 63.5416C17.626 63.5459 17.7766 63.5601 17.7671 63.7898C17.758 64.0089 17.6074 64.0368 17.44 64.0406C16.8506 64.053 16.2612 64.0715 15.6717 64.0706C11.9906 64.0668 8.30948 64.0595 4.62792 64.0492C4.38671 64.0483 4.14594 64.0119 3.86719 63.9892Z" fill="#5B5B5B"/>
<path d="M94.4529 63.5265C94.4878 63.938 94.427 64.0272 94.0995 64.0491C93.813 64.0684 93.5247 64.0701 93.2374 64.0696C89.255 64.0658 85.2723 64.0602 81.29 64.0538C81.1467 64.0538 81.0009 64.0521 80.8615 64.0242C80.5909 63.9702 80.5858 63.9492 80.6414 63.5595C85.2425 63.5595 89.8505 63.4515 94.4533 63.5265H94.4529Z" fill="#5B5B5B"/>
<path d="M23.4126 61.626C23.4126 61.1622 23.3574 60.6889 23.3574 60.6889L24.3114 60.6436V66.2384C24.3114 66.6479 24.2562 66.9572 24.1461 67.2756C23.6473 68.261 22.3848 68.5221 22.3848 68.5221C22.761 68.0124 23.1645 67.6761 23.3207 67.1301C23.385 66.8935 23.4126 66.6025 23.4126 66.2478V61.6264V61.626Z" fill="#5B5B5B"/>
<path d="M29.0993 61.6251C29.0993 61.1613 29.0441 60.697 29.0441 60.697H33.0165L32.9707 61.4155C32.9707 61.4155 32.5211 61.3701 32.081 61.3607L29.9985 61.3333V63.5165L32.5582 63.4711L32.5125 64.2533L29.999 64.1806V66.4185L32.2924 66.3911C32.7601 66.3821 33.0173 66.3363 33.0173 66.3363L32.9716 67.0642H29.1002V61.6243L29.0993 61.6251Z" fill="#5B5B5B"/>
<path d="M41.2547 60.6528L42.3187 64.7101C42.5112 65.447 42.6122 66.1021 42.6122 66.1021H42.6488C42.6488 66.1021 42.7679 65.4654 42.9884 64.7101L43.7133 62.2814C43.9153 61.6173 43.961 61.1988 44.0163 60.6986H44.8879C44.796 61.3353 44.6583 61.945 44.4016 62.7088L43.007 67.0482L42.0987 67.1029L41.0346 63.0546C40.8788 62.4632 40.7869 61.8539 40.7869 61.8539H40.7593C40.7593 61.8539 40.6769 62.4363 40.5302 63.0456L39.5485 67.0482L38.5668 67.1029L36.9983 61.7991C36.7964 61.1166 36.6406 60.7255 36.6406 60.7255L37.6037 60.6707L38.7597 64.7371C38.925 65.3374 39.0808 66.1106 39.0808 66.1106H39.1174C39.1174 66.1106 39.2551 65.3284 39.4018 64.7277L40.3925 60.6977L41.2547 60.6523V60.6528Z" fill="#5B5B5B"/>
<path d="M49.0064 61.6251C49.0064 61.1613 48.9512 60.697 48.9512 60.697H52.9236L52.8778 61.4155C52.8778 61.4155 52.4282 61.3701 51.9881 61.3607L49.9057 61.3333V63.5165L52.4653 63.4711L52.4196 64.2533L49.9061 64.1806V66.4185L52.1995 66.3911C52.6673 66.3821 52.924 66.3363 52.924 66.3363L52.8783 67.0642H49.0068V61.6243L49.0064 61.6251Z" fill="#5B5B5B"/>
<path d="M61.2001 67.0657H57.3287V61.6258C57.3287 61.162 57.2734 60.6977 57.2734 60.6977L58.2275 60.6523V66.42L60.4752 66.3836C60.9339 66.3747 61.2458 66.3383 61.2458 66.3383L61.2001 67.0661V67.0657Z" fill="#5B5B5B"/>
<path d="M69.3419 66.3738L68.1125 64.2903C68.8284 64.0811 69.3785 63.5171 69.3785 62.5805C69.3785 61.4615 68.5531 60.6973 66.966 60.6973H65.168C65.168 60.6973 65.2228 61.1611 65.2228 61.625V67.0653H66.1678C66.1678 67.0653 66.122 66.6378 66.122 66.2193V61.352H66.8374C67.9934 61.352 68.4612 61.8616 68.4612 62.6258C68.4612 63.304 68.0465 63.7914 67.3164 63.8834L66.9751 63.904L67.3164 64.5394L68.7822 67.1106L69.8191 67.0653C69.8191 67.0653 69.5619 66.7375 69.3419 66.3738Z" fill="#5B5B5B"/>
<path d="M75.1064 64.5368L73.4002 61.5347C73.1525 61.1162 72.8682 60.6977 72.8682 60.6977L73.8956 60.6523L75.6751 63.8727L76.7668 61.7803C77.1245 61.0982 77.2531 60.6977 77.2531 60.6977H78.1428C78.1428 60.6977 77.9409 61.2801 77.4088 62.135L76.0052 64.5274V66.2193C76.0052 66.6378 76.0509 67.0653 76.0509 67.0653H75.1059V64.5364L75.1064 64.5368Z" fill="#5B5B5B"/>
</svg>
