<svg width="201" height="45" viewBox="0 0 201 45" fill="none" xmlns="http://www.w3.org/2000/svg">
<path fill-rule="evenodd" clip-rule="evenodd" d="M0 22.5225V44.5225H21.865H43.73V22.5225V0.522461H21.865H0V22.5225ZM2.37909 22.5225V42.1287H21.865H41.3509V22.5225V2.91624H21.865H2.37909V22.5225ZM121.297 7.93817C120.872 7.98787 120.159 8.14016 119.713 8.27661C117.555 8.93604 116.655 9.94108 116.652 11.6934C116.65 12.7133 116.883 13.255 117.601 13.9082C118.505 14.7301 119.665 15.0907 122.58 15.4565C125.893 15.8722 126.758 16.0931 127.366 16.6794C127.607 16.9111 127.678 17.0861 127.678 17.4459C127.678 18.6939 126.39 19.1667 123.229 19.0794C121.156 19.0222 120.155 18.7808 118.523 17.9448C117.299 17.3177 117.405 17.2947 116.758 18.3258L116.351 18.9739L117.002 19.3681C119.176 20.6869 121.865 21.2752 124.668 21.045C127.504 20.8124 129.081 20.1355 129.774 18.8535C130.042 18.3588 130.094 18.1286 130.091 17.4565C130.086 16.427 129.834 15.806 129.19 15.236C128.181 14.3423 127.082 13.9966 123.886 13.568C121.238 13.2127 120.361 13.034 119.764 12.7278C119.229 12.453 119.045 12.1671 119.045 11.6081C119.045 10.4709 120.487 9.82949 123.033 9.83405C124.686 9.83701 126.976 10.4897 128.388 11.3605C128.685 11.5437 128.947 11.6934 128.97 11.6934C128.993 11.6934 129.224 11.3542 129.482 10.9395C130.042 10.0413 130.121 10.1544 128.301 9.25498C125.723 7.98092 123.885 7.63541 121.297 7.93817ZM60.9501 8.10072C60.9501 8.13104 61.1522 8.48806 61.3993 8.89409L61.8483 9.6324L58.567 15.1651C56.7622 18.2082 55.2856 20.7237 55.2856 20.7553C55.2856 20.7869 55.8082 20.812 56.4468 20.8114L57.608 20.8101L60.2048 16.4177C61.633 14.0021 62.8572 11.949 62.9252 11.8554C63.0239 11.7195 63.5911 12.6013 65.7512 16.249L68.4537 20.8126H69.8111H71.1686L70.9193 20.3852C70.7823 20.1501 69.0835 17.2776 67.1444 14.0017L63.6187 8.04578H62.2844C61.5505 8.04578 60.9501 8.07051 60.9501 8.10072ZM70.9196 9.12868V10.2116H73.6952H76.4708V15.5121V20.8126H77.6037H78.7366V15.5121V10.2116H81.5688H84.4011V9.12868V8.04578H77.6603H70.9196V9.12868ZM87.4599 14.4292V20.8126H92.6146H97.7693V19.7867V18.7608H93.8042H89.839V13.4033V8.04578H88.6495H87.4599V14.4292ZM105.247 8.13127C105.247 8.17823 105.425 8.51428 105.643 8.8779C105.861 9.24153 106.04 9.58783 106.04 9.64745C106.04 9.74935 99.7939 20.3589 99.5484 20.6741C99.4567 20.792 99.6756 20.8143 100.666 20.7881L101.897 20.7556L104.518 16.3331C105.959 13.9006 107.184 11.8666 107.24 11.8129C107.299 11.7564 108.465 13.6168 110.011 16.2355L112.68 20.7556L114.07 20.7877L115.46 20.8198L115.167 20.3317C115.006 20.0634 113.307 17.1915 111.392 13.95L107.909 8.05615L106.578 8.05102C105.846 8.04817 105.247 8.08431 105.247 8.13127ZM143.312 14.4292V20.8126H148.41H153.508V19.7867V18.7608H149.543H145.578V13.4033V8.04578H144.445H143.312V14.4292ZM156.137 12.5199C156.169 16.8482 156.179 17.0144 156.424 17.6209C157.276 19.7303 159.609 21.0618 162.458 21.0642C165.283 21.0665 167.426 19.9214 168.434 17.8716L168.859 17.0065L168.893 12.5261L168.928 8.04578H167.799H166.671L166.624 12.2349C166.583 15.8207 166.549 16.4967 166.384 16.9291C165.797 18.4722 164.403 19.182 162.175 19.0712C160.871 19.0063 160.158 18.7761 159.496 18.2072C158.491 17.3423 158.38 16.7066 158.38 11.8435V8.04578H157.242H156.104L156.137 12.5199ZM172.767 8.14495C172.767 8.19944 173.97 9.63924 175.44 11.3444C177.844 14.1333 178.097 14.4641 177.952 14.6364C177.863 14.7419 176.634 16.1747 175.221 17.8204L172.653 20.8126L173.871 20.8086L175.09 20.8045L177.179 18.3578C178.328 17.0121 179.296 15.9125 179.331 15.9145C179.366 15.9163 180.338 17.0189 181.491 18.3646L183.587 20.8114L185.031 20.8119C185.826 20.8124 186.475 20.7861 186.475 20.7535C186.475 20.7071 181.956 15.4148 181.016 14.3597C180.802 14.1197 180.808 14.1115 183.355 11.1442C184.76 9.50804 185.909 8.14153 185.909 8.10756C185.909 8.07359 185.387 8.04885 184.748 8.05262L183.587 8.05946L181.944 9.98862C181.04 11.0496 180.144 12.1026 179.953 12.3285L179.605 12.7392L177.587 10.3925L175.568 8.04578H174.168C173.398 8.04578 172.767 8.09035 172.767 8.14495ZM189.874 14.4292V20.8126H195.312H200.75V19.9007V18.9888H196.502H192.253V17.2219V15.4551H196.093H199.932L200.171 14.5639C200.303 14.0738 200.41 13.6121 200.41 13.538C200.41 13.4369 199.394 13.4033 196.332 13.4033H192.253V11.7504V10.0976H196.502H200.75V9.07168V8.04578H195.312H189.874V14.4292ZM19.9522 8.50675C16.597 9.39085 14.3007 12.9131 14.8323 16.3602C15.0885 18.0222 15.6923 19.2453 16.827 20.4015C19.7588 23.389 24.6196 23.1728 27.3166 19.9348C28.3638 18.6777 28.9141 17.0857 28.9047 15.3411C28.8896 12.5269 27.4399 10.1813 24.9651 8.96704C23.5042 8.25039 21.5915 8.07473 19.9522 8.50675ZM12.1411 22.6972C10.8954 22.9693 9.79834 23.5991 8.77839 24.6276C7.73828 25.6764 7.23856 26.5331 6.90786 27.8339C6.48427 29.5007 6.64571 31.2293 7.36487 32.7245C8.01777 34.0819 8.93893 35.1004 10.171 35.8269C12.1856 37.0148 14.869 37.0829 17.0223 36.0009C18.1769 35.4206 19.5105 34.0632 20.0873 32.8808C22.103 28.7491 19.8786 23.8865 15.4517 22.7472C14.4381 22.4864 13.1925 22.4676 12.1411 22.6972ZM28.6057 22.6393C26.5814 23.0493 24.748 24.3957 23.7372 26.2142C22.5642 28.3248 22.6196 31.2449 23.8723 33.3259C25.1097 35.3819 27.148 36.6139 29.5225 36.7408C31.7577 36.8605 33.4219 36.2268 34.9525 34.6731C36.4825 33.12 37.1259 31.424 37.0112 29.2479C36.8929 27.0027 35.7802 24.992 33.987 23.7831C32.4285 22.7323 30.3389 22.2881 28.6057 22.6393ZM55.2856 30.5587V30.9577H56.4185H57.5514V34.0924V37.2271H58.1178H58.6843V34.0924V30.9577H59.8172H60.9501V30.5587V30.1598H58.1178H55.2856V30.5587ZM64.3488 30.2809C64.3488 30.3572 64.438 30.4852 64.547 30.5653C64.7265 30.6972 64.7484 31.021 64.7786 33.9691L64.8119 37.2271H65.3167H65.8215V35.9732V34.7194H66.6606H67.4995L68.3243 35.8877C68.7779 36.5303 69.2034 37.0939 69.2696 37.1399C69.4285 37.2503 70.4682 37.2517 70.4602 37.1416C70.4567 37.0946 70.053 36.4919 69.563 35.8023L68.6721 34.5484L69.0458 34.3532C69.5532 34.0882 69.9887 33.5423 70.079 33.0578C70.2079 32.3664 70.0756 31.4622 69.7824 31.0317C69.2892 30.3076 68.9772 30.2261 66.5296 30.1818C64.8713 30.1518 64.3488 30.1755 64.3488 30.2809ZM76.4327 30.2453C76.388 30.3196 73.7075 36.6933 73.5537 37.0911C73.5097 37.2047 73.637 37.2317 74.0883 37.2051L74.6805 37.1701L75.0262 36.3407L75.372 35.5114L77.0056 35.5428L78.6393 35.5743L78.9821 36.4007L79.3248 37.2271H79.8925C80.3854 37.2271 80.4506 37.2009 80.3872 37.0276C80.347 36.918 79.6916 35.3283 78.9307 33.4951L77.5471 30.1619L77.0156 30.1609C76.7233 30.1602 76.4611 30.1982 76.4327 30.2453ZM82.4752 30.3308C82.4752 30.4248 82.5252 30.5017 82.5865 30.5017C82.7398 30.5017 83.0455 31.1399 84.4585 34.4112L85.6795 37.238L86.2364 37.204L86.7933 37.1701L88.2595 33.7585C89.0659 31.8822 89.7257 30.3048 89.7257 30.2534C89.7257 30.0994 88.7365 30.1452 88.6702 30.3023C88.6371 30.3807 88.0794 31.686 87.4308 33.2031L86.2516 35.9615L85.1281 33.284C84.5102 31.8115 83.9134 30.5061 83.8019 30.3832C83.5426 30.0973 82.4752 30.0551 82.4752 30.3308ZM93.1244 30.3033C93.1244 30.3823 93.2264 30.511 93.351 30.5893C93.569 30.7262 93.5776 30.8551 93.5776 33.9793V37.2271H96.07H98.5624V36.7712V36.3152H96.6364H94.7105V35.2323V34.1494H96.4099H98.1092V33.6934V33.2375H96.4099H94.7105V32.0976V30.9577H96.6364H98.5624V30.5587V30.1598H95.8434C93.7329 30.1598 93.1244 30.1919 93.1244 30.3033ZM102.301 30.2738C102.301 30.3365 102.403 30.4903 102.528 30.6157C102.743 30.8329 102.754 30.9957 102.754 34.0354V37.2271H105.077H107.399V36.7712V36.3152H105.586H103.774V33.3743C103.774 31.2389 103.736 30.3958 103.638 30.2966C103.474 30.1318 102.301 30.1119 102.301 30.2738ZM65.8215 32.3826V33.8074H66.909C68.2308 33.8074 68.7133 33.623 68.9626 33.0224C69.1788 32.502 69.088 31.8144 68.7564 31.4592C68.4145 31.0931 67.8796 30.9591 66.7562 30.9584L65.8215 30.9577V32.3826ZM76.3793 32.9982C76.0557 33.8038 75.7911 34.495 75.7911 34.5341C75.7911 34.5733 76.3478 34.6054 77.0281 34.6054H78.2652L77.6463 33.0996C77.3059 32.2713 77.0139 31.5802 76.9975 31.5636C76.9809 31.547 76.7028 32.1925 76.3793 32.9982Z" fill="#5B5B5B"/>
</svg>
