<svg width="146" height="51" viewBox="0 0 146 51" fill="none" xmlns="http://www.w3.org/2000/svg">
<path d="M132.741 8.18498C132.37 8.18498 132.076 8.15867 131.79 8.19004C130.972 8.28467 130.148 8.36613 129.341 8.51592C126.753 8.99411 124.767 10.3386 123.506 12.6521C123.13 13.3403 122.846 14.0781 122.511 14.7901C122.441 14.9398 122.338 15.074 122.247 15.2131C122.194 15.1974 122.142 15.1817 122.089 15.1686V6.7666C121.88 6.99786 121.827 7.03986 121.798 7.09249C119.809 10.667 116.811 13.1091 113.185 14.9637C110.418 16.3765 107.364 16.8045 104.466 17.7528C102.454 18.4122 100.237 18.4749 98.0813 18.2022C96.7729 18.0367 95.4569 17.9001 94.2572 17.2569C91.1133 15.5708 90.8965 11.5607 93.8413 9.57503C94.7155 8.984 95.6952 8.70315 96.7123 8.56399C98.8361 8.27253 102.271 9.05231 103.458 12.1279C103.958 13.4228 104.345 14.7304 104.374 16.128C104.387 16.7585 104.623 17.0312 105.206 16.9159C106.303 16.6953 107.391 16.4144 108.458 16.0835C108.998 15.9155 109.189 15.54 109.072 14.996C108.94 14.3918 108.802 13.7512 108.487 13.2365C107.385 11.4321 105.944 9.97478 103.908 9.18691C101.807 8.37524 99.6198 8.14703 97.3899 8.17587C95.9993 8.19409 94.7175 8.58829 93.5684 9.35795C91.6349 10.6448 91.0684 12.7589 91.7119 14.9125C92.1013 16.2206 93.0254 17.0818 94.2384 17.6673C94.5373 17.8116 94.8287 17.9719 95.2768 18.2032C94.9348 18.3161 94.7869 18.3712 94.6359 18.4132C93.0417 18.8625 91.4787 19.3903 90.0565 20.2541C88.6792 21.089 87.5725 22.2002 87.2653 23.7917C87.051 24.8973 87.0111 26.0926 87.1754 27.2058C87.4219 28.8868 88.2695 30.3235 89.8555 31.132C93.0019 32.7366 96.2596 33.1464 99.5989 31.7388C101.506 30.9351 103.119 29.785 103.919 27.7755C103.987 27.6051 104.125 27.4659 104.35 27.135C104.509 27.8074 104.642 28.2958 104.734 28.7947C105.081 30.6149 106.26 31.6679 107.986 32.1167C108.876 32.348 109.814 32.3976 110.731 32.5079C110.927 32.5316 111.132 32.471 111.509 32.4315C111.185 32.2448 111.051 32.1557 110.905 32.0824C109.917 31.5835 109.338 30.7981 109.206 29.7031C109.149 29.2486 109.102 28.7891 109.099 28.3322C109.083 26.2312 109.083 24.1302 109.077 22.0292C109.075 20.619 109.075 19.2086 109.069 17.7959C109.067 17.3495 109.12 16.9842 109.628 16.7661C111.384 16.0122 113.119 15.2061 114.869 14.4394C116.005 13.943 117.017 14.4444 117.279 15.6634C117.417 16.2991 117.499 16.9609 117.504 17.6121C117.526 21.1235 117.517 24.6347 117.507 28.146C117.504 28.7026 117.438 29.2598 117.42 29.8164C117.369 31.1346 116.779 31.9937 115.399 32.2089C115.375 32.2114 115.357 32.269 115.333 32.306H124.451C124.377 32.2377 124.358 32.2063 124.331 32.1957C124.238 32.1617 124.143 32.1193 124.049 32.1036C122.872 31.9301 122.348 31.174 122.257 30.0785C122.171 29.0361 122.083 27.9856 122.088 26.9377C122.101 23.9886 122.125 21.0339 122.221 18.0843C122.282 16.1462 123.206 14.6387 124.912 13.6566C126.659 12.6531 128.561 12.346 130.555 12.5403C131.299 12.6137 132.044 12.7139 132.908 12.816C132.827 11.2353 133.043 9.74505 132.741 8.18498ZM104.061 26.2514C103.266 29.4506 100.801 31.5697 97.3919 31.6036C96.4387 31.6117 95.4876 31.6537 94.5582 31.2834C93.4515 30.8395 92.6381 30.1174 92.212 29.0275C91.3511 26.8242 91.3776 24.618 92.339 22.4356C93.1285 20.6417 94.6721 19.7121 96.3938 19.0477C97.1169 18.7668 97.9323 18.5959 98.7059 18.5959C100.366 18.5959 102.003 18.4567 103.637 18.2179C103.857 18.1839 104.085 18.2128 104.331 18.2128C104.392 18.4178 104.474 18.5675 104.48 18.7224C104.557 21.2439 104.675 23.7749 104.061 26.2514Z" fill="#5B5B5B"/>
<path d="M83.131 32.1139C82.0717 31.8356 81.5445 31.0765 81.37 30.0762C81.2296 29.2725 81.1184 28.4503 81.1159 27.6391C81.0949 18.9437 81.1001 10.2502 81.0949 1.55474C81.0949 1.20812 81.0709 0.864025 81.0577 0.522461C78.7298 1.06896 76.513 1.58612 74.0948 2.15337C74.5158 2.28493 74.7541 2.35578 74.9924 2.43421C75.7951 2.6943 76.2691 3.25902 76.3641 4.07575C76.4646 4.95267 76.5335 5.84074 76.5416 6.72324C76.5682 9.3156 76.56 11.9074 76.5625 14.4998V15.6656C76.4886 15.6839 76.414 15.7051 76.3376 15.7233C76.237 15.5002 76.1232 15.2821 76.0329 15.0538C75.8395 14.5681 75.6726 14.0691 75.469 13.5859C74.1366 10.4081 70.5325 7.88658 67.0075 8.16237C66.3823 8.21247 65.7572 8.25446 65.1378 8.34099C62.4842 8.72203 60.3226 9.9299 58.8316 12.17C57.2135 14.602 56.6389 17.3568 56.5542 20.2041C56.4985 22.1448 56.8772 24.0646 57.5794 25.8822C58.8877 29.2624 61.2371 31.5289 64.8994 32.2692C68.0484 32.9047 70.8719 32.2429 73.2737 30.0685C74.4948 28.9655 75.3292 27.5997 75.9487 26.0922C76.0681 25.7956 76.0681 25.399 76.5789 25.2072C76.5789 26.1474 76.5499 26.9955 76.584 27.844C76.6662 29.9952 77.6485 31.3948 79.7064 32.0146C80.7342 32.3274 81.8466 32.3664 82.9243 32.503C83.0728 32.5238 83.2422 32.4034 83.4857 32.3194C83.2973 32.2091 83.2207 32.1376 83.131 32.1139ZM74.9343 27.46C73.6657 29.6081 71.8965 31.2708 69.4308 31.8168C66.29 32.5126 64.1815 32.1766 62.5981 28.7913C61.8699 27.2313 61.5096 25.5715 61.4274 23.854C61.3585 22.4175 61.2025 20.9758 61.229 19.5417C61.2795 16.9155 61.5469 14.31 62.5847 11.8518C63.2732 10.2259 64.3723 9.00742 66.1497 8.57427C67.5111 8.2408 68.8486 8.52164 70.1279 9.0049C72.914 10.0605 74.5959 12.1589 75.6073 14.8641C76.3064 16.7339 76.5105 18.675 76.4258 20.5893C76.5768 23.0606 76.1763 25.3565 74.9343 27.46Z" fill="#5B5B5B"/>
<path d="M23.7966 4.95286C22.5361 3.52436 20.9206 2.7203 19.0794 2.47386C17.3501 2.24261 15.5916 2.15607 13.8434 2.13229C9.70905 2.07967 5.57216 2.10092 1.43526 2.10092C1.23676 2.10092 1.04081 2.1743 0.841797 2.21376C1.01683 2.37114 1.17552 2.39745 1.33422 2.42629C2.50738 2.65198 3.21973 3.31385 3.36313 4.51666C3.41058 4.9397 3.4958 5.36223 3.49836 5.78526C3.50346 13.6276 3.50346 21.4694 3.49019 29.3118C3.49019 29.7974 3.40038 30.2888 3.30751 30.7665C3.15901 31.5149 2.67169 31.9668 1.94096 32.1768C1.74501 32.2345 1.55671 32.3185 1.36382 32.3893C1.37454 32.4262 1.3878 32.4602 1.39801 32.4946H10.2729C10.2995 32.4262 10.3234 32.3579 10.35 32.2896C8.70277 32.1454 8.15421 31.0919 8.144 29.7079C8.12563 27.3519 8.04858 24.9807 8.24198 22.6378C8.43538 20.2767 9.77539 18.5224 11.9896 17.5903C13.2265 17.07 14.545 16.7159 15.8565 16.4005C17.5225 15.9988 19.2305 15.7625 20.8966 15.3581C22.3371 15.0065 23.6087 14.3208 24.44 13.0208C26.0051 10.5758 25.7193 7.13533 23.7966 4.95286ZM20.1628 12.0989C19.4688 13.4201 18.3431 14.2418 16.9689 14.7515C15.9494 15.1325 14.9084 15.4604 13.8838 15.8308C11.5742 16.6657 9.67537 18.0132 8.45171 20.1826C8.42007 20.2352 8.35373 20.2665 8.14451 20.4452C8.11033 20.0171 8.07307 19.7387 8.07307 19.4605C8.06797 14.2105 8.06797 8.96055 8.06797 3.70805C8.06797 3.51374 8.07052 3.31689 8.08124 3.11954C8.10777 2.64945 8.34607 2.39492 8.83595 2.40504C10.6209 2.43894 12.4084 2.42882 14.1909 2.53104C15.036 2.5781 15.9044 2.74357 16.7015 3.02997C19.1912 3.92311 20.4965 5.7716 20.743 8.35636C20.865 9.64064 20.7827 10.9168 20.1628 12.0989Z" fill="#5B5B5B"/>
<path d="M53.0613 18.2003C52.5025 14.4603 50.6088 11.6028 47.298 9.70418C45.4417 8.63799 43.4127 8.26505 41.2807 8.22559C40.0652 8.35157 38.8283 8.36473 37.6393 8.61977C32.8798 9.6389 29.1512 14.1061 28.8863 18.9674C28.7858 20.8215 28.9686 22.6366 29.5298 24.4066C30.4463 27.2747 32.1466 29.528 34.8374 31.0041C37.626 32.5353 40.5847 32.8319 43.675 32.2621C47.9762 31.4661 50.8812 29.0053 52.4362 24.9794C53.2837 22.7889 53.4057 20.5088 53.0613 18.2003ZM47.2848 27.5368C46.7577 28.8657 46.0163 30.0452 44.843 30.9353C42.2156 32.931 38.3756 32.4848 36.2968 29.9293C35.0307 28.3774 34.4113 26.5491 34.051 24.6374C33.7703 23.1613 33.6458 21.6564 33.4499 20.1672C33.577 17.9402 33.9056 15.7785 34.5807 13.6699C34.9675 12.4645 35.5844 11.3927 36.4636 10.4708C39.1599 7.64467 43.699 7.91792 46.0244 10.9672C47.023 12.2778 47.6317 13.764 47.9446 15.3478C48.2385 16.8213 48.5007 18.3263 48.5273 19.8206C48.5722 22.4494 48.2671 25.0577 47.2848 27.5368Z" fill="#5B5B5B"/>
<path d="M145.489 32.3979C143.809 32.5765 142.134 32.4161 140.459 32.4061C138.773 32.3954 137.089 32.4035 135.245 32.4035C135.599 32.3221 135.846 32.2618 136.092 32.2066C137.166 31.9653 137.822 31.3687 138.013 30.2398C138.36 28.1832 138.278 26.1218 138.267 24.0546C138.251 21.4967 138.288 18.9388 138.265 16.3809C138.251 14.9705 138.198 13.5602 138.089 12.155C138.013 11.1465 137.486 10.4346 136.409 10.2377C136.29 10.2165 136.182 10.1487 135.907 10.0328C138.258 9.47617 140.444 8.96104 142.756 8.41504C142.785 8.76166 142.845 9.16598 142.845 9.56776C142.851 15.6082 142.843 21.646 142.854 27.6864C142.856 28.5031 142.904 29.3254 142.992 30.1365C143.127 31.3919 143.9 32.0483 145.129 32.2243C145.251 32.24 145.372 32.282 145.489 32.3979Z" fill="#5B5B5B"/>
<path d="M142.96 3.8156C143.013 5.33366 141.813 6.5471 140.332 6.55469C138.82 6.56278 137.771 5.49356 137.795 3.91022C137.825 1.89069 138.992 1.09219 140.359 1.06335C142.051 1.02944 142.914 2.43415 142.96 3.8156Z" fill="#5B5B5B"/>
<path d="M83.3029 50.393C83.2049 50.3905 83.1043 50.385 83.0038 50.3798C82.9855 48.7359 82.9666 47.0942 82.9483 45.432C82.4185 45.4214 82.3522 45.7999 82.1986 46.0544C81.4914 47.2334 80.8004 48.4206 80.0192 49.7469C79.0843 48.1999 78.2183 46.7633 77.3494 45.3243C77.2779 45.3348 77.2039 45.3424 77.1294 45.3531C77.0845 45.5763 76.9998 45.8019 76.9968 46.0255C76.9835 47.1732 76.9968 48.3208 76.9916 49.466C76.9916 49.7706 76.9544 50.0728 76.8696 50.3692C76.5278 49.7863 76.4619 45.382 76.7053 44.0217C77.1131 43.9221 77.1952 44.2763 77.3305 44.505C78.0188 45.6607 78.6838 46.8292 79.3645 47.9874C79.5446 48.2945 79.7487 48.586 80.0161 48.9985C81.1627 47.2861 81.9894 45.5186 83.1758 43.793C83.6024 44.6806 83.3902 45.432 83.4299 46.1541C83.4672 46.8712 83.4723 47.5957 83.4433 48.3154C83.4167 49.006 83.6285 49.7418 83.3029 50.393Z" fill="#5B5B5B"/>
<path d="M31.9899 47.2907C31.2882 47.6166 30.4938 47.7896 30.0064 48.2703C29.5431 48.7297 29.3997 49.51 29.1191 50.1431C28.8119 49.5024 28.6292 48.7116 28.1393 48.2232C27.6734 47.7557 26.8865 47.6089 26.1104 47.2618C26.3966 47.1464 26.6084 47.0149 26.8334 46.9779C27.9352 46.7967 28.6343 46.2321 28.7935 45.0895C28.8225 44.8739 28.9389 44.6694 29.0609 44.333C29.4212 45.1158 29.5823 45.893 30.0539 46.3605C30.5254 46.8282 31.3067 46.981 31.9899 47.2907Z" fill="#5B5B5B"/>
<path d="M119.522 47.2861C118.855 47.6014 118.056 47.7852 117.56 48.2734C117.097 48.7303 116.956 49.5107 116.628 50.2509C116.498 49.8937 116.352 49.6103 116.297 49.3108C116.134 48.4389 115.632 47.9187 114.776 47.7036C114.438 47.6171 114.109 47.4881 113.627 47.3332C114.43 46.9653 115.216 46.7999 115.703 46.3298C116.174 45.8729 116.336 45.1032 116.64 44.457C116.969 45.1321 117.151 45.9149 117.639 46.3951C118.102 46.8546 118.881 47.0028 119.522 47.2861Z" fill="#5B5B5B"/>
<path d="M40.0329 44.0827C38.7853 43.7385 37.4932 43.8357 36.0338 43.9147C36.0338 46.0025 36.0313 47.9644 36.0364 49.9262C36.0364 50.3437 36.3063 50.4909 36.6906 50.4853C37.5831 50.4722 38.4811 50.5116 39.368 50.4353C40.9622 50.2961 42.0645 49.1747 42.2017 47.6385C42.3579 45.9104 41.5429 44.5002 40.0329 44.0827ZM39.8396 49.9211C38.9389 50.2389 38.0173 50.1524 37.0983 50.1656C36.6451 50.1706 36.4441 49.9185 36.4232 49.493C36.4151 49.3301 36.4181 49.1671 36.4181 49.0047C36.4206 47.7599 36.4206 46.5176 36.4288 45.2728C36.4313 44.989 36.4737 44.703 36.5028 44.3533C37.7157 44.1616 38.8654 44.1378 39.9723 44.4875C41.1031 44.8421 41.8419 46.0526 41.7995 47.2529C41.7521 48.5528 41.0367 49.4986 39.8396 49.9211Z" fill="#5B5B5B"/>
<path d="M70.7111 50.1716C71.5531 50.1873 72.3955 50.2161 73.2375 50.2425C73.2375 50.3214 73.2349 50.3998 73.2325 50.4788C71.9613 50.4788 70.6927 50.497 69.4211 50.4575C69.2384 50.4494 69.0185 50.1766 68.9047 49.9767C68.8174 49.827 68.8705 49.5932 68.8705 49.3989C68.8731 47.8257 68.8654 46.2525 68.8812 44.6823C68.8894 44.0179 68.9924 43.8762 69.5885 43.8656C70.7774 43.8417 71.9639 43.8706 73.1534 43.8837C73.1982 43.8837 73.2462 43.9572 73.463 44.1489C73.1161 44.2148 72.912 44.2831 72.7058 44.2855C71.8796 44.2962 71.056 44.2805 70.2294 44.2805C69.4772 44.278 69.3634 44.3802 69.3446 45.1104C69.3313 45.6644 69.342 46.2161 69.342 46.8384C70.4968 47.1431 71.625 46.8597 72.7293 47.1775C72.5756 47.222 72.4247 47.2984 72.2711 47.3035C71.5771 47.3166 70.883 47.2984 70.1896 47.3166C69.5354 47.3324 69.3792 47.4871 69.3261 48.1258C69.3078 48.3514 69.3154 48.5827 69.3154 48.8114C69.3237 49.9803 69.4981 50.1458 70.7111 50.1716Z" fill="#5B5B5B"/>
<path d="M89.8814 43.8407C87.7045 43.9115 86.4435 45.2723 86.3803 47.3257C86.3247 49.0512 87.9825 50.548 89.8232 50.585C91.7618 50.6244 93.409 49.1114 93.4121 47.2862C93.4171 45.3163 91.8806 43.7775 89.8814 43.8407ZM89.9104 50.2014C88.4485 50.1908 86.7772 48.9353 86.812 47.1339C86.8436 45.3927 88.4092 44.203 89.9237 44.2055C91.5975 44.2263 93.0038 45.5845 92.9589 47.2072C92.9114 48.9566 91.4729 50.2115 89.9104 50.2014Z" fill="#5B5B5B"/>
<path d="M57.3233 47.8388C58.0755 47.261 58.3695 46.4812 58.1602 45.5775C57.9484 44.6635 57.3259 44.0882 56.3671 43.9966C55.3583 43.8994 54.3438 43.8813 53.1094 43.8154C53.1094 45.0972 53.091 46.1685 53.1144 47.2402C53.1359 48.2801 53.019 49.3332 53.2838 50.3655C53.5829 49.9844 53.4457 49.5669 53.464 49.1652C53.4931 48.5559 53.7024 48.3352 54.2876 48.2801C55.9747 48.1197 56.1042 48.1779 57.0738 49.5198C57.2274 49.7324 57.3703 49.9586 57.5427 50.1529C57.6515 50.2738 57.8127 50.3472 57.9505 50.4444C58.001 50.3973 58.0535 50.3522 58.1041 50.3052C57.6326 49.6301 57.1585 48.9551 56.6686 48.2543C56.9416 48.0838 57.1431 47.9754 57.3233 47.8388ZM56.3329 47.8727C55.6256 47.9831 54.8893 47.936 54.1692 47.9067C53.7457 47.8884 53.539 47.5651 53.5099 47.1714C53.4783 46.7828 53.5018 46.3916 53.5018 45.9974C53.4513 44.2512 53.3956 44.285 55.3107 44.2167C55.6976 44.2036 56.1053 44.2669 56.4732 44.3822C57.3789 44.6687 57.7866 45.296 57.7499 46.2388C57.7183 47.09 57.2335 47.7311 56.3329 47.8727Z" fill="#5B5B5B"/>
<path d="M49.0723 47.0416C48.5478 45.983 48.209 44.8196 47.3879 43.7246C46.8 44.5099 46.5484 45.2846 46.1933 45.9992C45.8305 46.7318 45.4728 47.4696 45.1549 48.2211C44.8558 48.93 44.3655 49.5787 44.4078 50.4167C44.7099 50.0752 44.9243 49.6946 45.0886 49.2928C45.2896 48.8046 45.6207 48.5733 46.153 48.589C46.9766 48.6153 47.8028 48.6573 48.6269 48.631C49.2148 48.6153 49.5459 48.8434 49.7444 49.3794C49.8847 49.7574 50.1124 50.104 50.3006 50.4638C50.396 50.4112 50.489 50.3559 50.5838 50.3033C50.0807 49.2133 49.605 48.1127 49.0723 47.0416ZM45.6427 48.2863C46.2147 46.9757 46.7261 45.7967 47.3246 44.4204C48.1192 45.6651 48.585 46.8604 49.1653 48.2363C47.9497 48.3597 46.8847 48.307 45.6427 48.2863Z" fill="#5B5B5B"/>
<path d="M106.992 48.8462C106.994 49.466 106.716 49.8941 106.168 50.1937C104.881 50.895 103.226 50.6637 102.188 49.511C102.476 49.59 102.646 49.6239 102.804 49.6846C103.204 49.8344 103.591 50.0261 104.002 50.1497C104.711 50.3677 105.384 50.1967 105.991 49.8136C106.788 49.3122 106.783 48.3983 105.982 47.8912C105.709 47.7176 105.381 47.6286 105.069 47.5289C104.472 47.3346 103.842 47.2218 103.278 46.9667C102.152 46.4597 102.065 44.921 103.087 44.2459C104.006 43.6366 105.664 43.7444 106.543 44.5925C106.103 44.4847 105.669 44.3116 105.224 44.2797C104.708 44.2459 104.165 44.2616 103.669 44.3926C103.171 44.5242 102.822 44.9229 102.782 45.472C102.742 46.0285 103.057 46.407 103.55 46.6222C103.879 46.7663 104.233 46.8534 104.575 46.9688C105.105 47.1448 105.648 47.2997 106.164 47.5097C106.747 47.7516 106.988 48.2318 106.99 48.8466L106.992 48.8462Z" fill="#5B5B5B"/>
<path d="M100.275 43.9917C99.9593 44.3069 99.5756 44.2204 99.2178 44.2254C97.9916 44.2411 97.9891 44.236 97.9865 45.41C97.9839 46.8491 97.9891 48.2883 97.9839 49.7279C97.9814 49.9434 97.9365 50.1611 97.9099 50.3974C97.3936 50.4024 97.4518 50.0614 97.4518 49.7856C97.4467 48.4462 97.4492 47.1041 97.4518 45.7648V44.3256C96.6863 44.273 96.0112 44.2259 95.1846 44.1683C95.7856 43.6981 96.347 43.9081 96.8582 43.8768C97.4486 43.8398 98.0447 43.8661 98.6381 43.8687C99.1811 43.8712 99.7241 43.8789 100.275 43.9917Z" fill="#5B5B5B"/>
<path d="M61.6251 50.0436C61.6251 50.1565 61.5613 50.2668 61.5246 50.3795C61.4506 50.3795 61.3791 50.3771 61.3047 50.3745V43.8271C61.4929 44.1267 61.62 44.237 61.62 44.3473C61.6333 46.2459 61.6307 48.145 61.6251 50.0436Z" fill="#5B5B5B"/>
<path d="M110.297 44.2606C110.299 46.225 110.294 48.1924 110.281 50.1593C110.281 50.2327 110.194 50.3092 110.017 50.5875C109.86 49.7075 109.937 49.0143 109.924 48.3316C109.911 47.6121 109.921 46.89 109.918 46.1673V44.0426C110.003 44.04 110.085 44.0375 110.167 44.0344C110.213 44.1109 110.297 44.1848 110.297 44.2606Z" fill="#5B5B5B"/>
</svg>
