<svg width="146" height="59" viewBox="0 0 146 59" fill="none" xmlns="http://www.w3.org/2000/svg">
<path fill-rule="evenodd" clip-rule="evenodd" d="M31.5982 0.554776C31.2814 0.536823 30.4246 0.522461 29.6902 0.522461C28.9558 0.526051 28.1566 0.544004 27.9082 0.558366C27.6598 0.576319 27.199 0.612225 26.8822 0.644539C26.5654 0.676854 25.9714 0.748665 25.5574 0.806114C25.147 0.867153 24.4918 0.97846 24.0994 1.05386C23.7106 1.13285 23.0914 1.26929 22.7242 1.36265C22.3569 1.45241 21.8133 1.59962 21.5181 1.6858C21.2193 1.77197 20.6865 1.94432 20.3301 2.0628C19.9737 2.18488 19.3761 2.4075 18.9981 2.55471C18.6237 2.70551 17.9829 2.97839 17.5761 3.1651C17.1693 3.35181 16.5285 3.66419 16.1541 3.86526C15.7797 4.06274 15.2109 4.3823 14.8941 4.569C14.5773 4.75571 14.0085 5.11118 13.634 5.36251C13.2596 5.61026 12.6584 6.03036 12.302 6.29965C11.9456 6.56535 11.4596 6.94594 11.222 7.13983C10.9844 7.33731 10.5776 7.6856 10.322 7.9118C10.0664 8.13801 9.53 8.64786 9.1304 9.04641C8.73439 9.44137 8.20879 9.99073 7.96039 10.2708C7.71558 10.5473 7.31958 11.014 7.07838 11.312C6.84077 11.6065 6.47357 12.0732 6.26837 12.3497C6.06316 12.6262 5.71396 13.1181 5.49796 13.4448C5.27836 13.7716 4.91835 14.3353 4.69875 14.7015C4.48275 15.0678 4.14794 15.6566 3.95714 16.0121C3.76634 16.3675 3.48914 16.9205 3.33793 17.2436C3.19033 17.5632 2.97793 18.0407 2.86633 18.3028C2.75473 18.5614 2.56033 19.0425 2.43792 19.3692C2.31552 19.696 2.13192 20.213 2.03112 20.5182C1.93032 20.8234 1.78272 21.3009 1.70352 21.5774C1.62432 21.8539 1.51271 22.274 1.45151 22.511C1.39391 22.7479 1.29671 23.1608 1.23551 23.4265C1.17791 23.6922 1.06991 24.2416 1.00151 24.6473C0.929508 25.0531 0.843107 25.6419 0.803506 25.9579C0.763906 26.2738 0.702705 26.816 0.670305 27.1607C0.634304 27.5521 0.605504 28.3276 0.594704 29.2253C0.583904 30.1265 0.591104 30.9164 0.616304 31.3437C0.641504 31.7207 0.684705 32.2701 0.713505 32.5645C0.742305 32.8625 0.814306 33.4442 0.875507 33.8571C0.933108 34.27 1.04111 34.9019 1.10951 35.2574C1.17791 35.6129 1.31831 36.234 1.41551 36.6397C1.51631 37.0455 1.69992 37.7169 1.82592 38.1298C1.95192 38.5427 2.17152 39.1998 2.31192 39.584C2.45232 39.9682 2.65753 40.5032 2.76913 40.7689C2.88073 41.0346 3.07513 41.4798 3.20113 41.7563C3.32713 42.0327 3.60794 42.6001 3.82034 43.013C4.03274 43.4259 4.34595 44.0004 4.51515 44.2876C4.68435 44.5748 4.97235 45.0488 5.15955 45.3396C5.34676 45.6305 5.71756 46.1762 5.98396 46.5496C6.25037 46.9231 6.64637 47.4509 6.86597 47.7238C7.08198 47.9966 7.45638 48.4455 7.69398 48.7219C7.93159 48.9984 8.48959 49.5944 8.936 50.0468C9.3824 50.4957 9.94761 51.0486 10.196 51.2712C10.4444 51.4902 10.8656 51.8565 11.132 52.0791C11.3984 52.3017 11.9024 52.6967 12.248 52.9552C12.5936 53.2173 13.1696 53.623 13.526 53.86C13.8825 54.1006 14.4009 54.4309 14.6781 54.5996C14.9553 54.7684 15.4341 55.0413 15.7401 55.21C16.0461 55.3788 16.4745 55.605 16.6941 55.7163C16.9137 55.824 17.3637 56.0359 17.7021 56.1903C18.0405 56.3411 18.5337 56.5565 18.8001 56.6642C19.0665 56.7719 19.5705 56.9622 19.9161 57.0879C20.2617 57.2136 20.8377 57.4039 21.1941 57.5116C21.5505 57.6193 22.0617 57.7665 22.3281 57.8383C22.5945 57.9065 23.1058 58.0286 23.4622 58.1076C23.8186 58.1866 24.3946 58.3015 24.7402 58.359C25.0858 58.42 25.687 58.5098 26.0722 58.5564C26.4574 58.6067 27.1054 58.6749 27.5122 58.7108C28.063 58.7575 28.6318 58.7719 29.7622 58.7719C30.6838 58.7755 31.501 58.7575 31.8503 58.7288C32.1671 58.7036 32.7179 58.6498 33.0743 58.6103C33.4307 58.5708 33.9743 58.499 34.2803 58.4523C34.5863 58.4056 35.1299 58.3087 35.4863 58.2405C35.8427 58.1687 36.4331 58.0394 36.8003 57.9496C37.1675 57.8599 37.7075 57.7127 38.0063 57.6265C38.3015 57.5403 38.8307 57.3715 39.1763 57.2566C39.5219 57.1382 40.0079 56.9658 40.2563 56.8725C40.5047 56.7791 40.9332 56.6032 41.2104 56.4883C41.4876 56.3698 41.9736 56.1508 42.2904 56C42.6072 55.8527 43.1256 55.5942 43.4424 55.4255C43.7592 55.2567 44.2452 54.9874 44.5224 54.8259C44.7996 54.6643 45.2136 54.4129 45.4404 54.2693C45.6672 54.1257 46.056 53.8708 46.3044 53.702C46.5528 53.5297 47.0388 53.1814 47.3844 52.9193C47.73 52.6608 48.1836 52.3053 48.3924 52.1329C48.6012 51.957 48.9576 51.6554 49.1844 51.4543C49.4112 51.2569 49.9801 50.7147 50.4445 50.2479C50.9125 49.7847 51.4561 49.2174 51.6541 48.9912C51.8557 48.765 52.1581 48.4095 52.3345 48.2013C52.5073 47.993 52.8925 47.5011 53.1913 47.1062C53.4865 46.7112 53.9293 46.0901 54.1705 45.7238C54.4117 45.3576 54.7393 44.8405 54.8977 44.5748C55.0597 44.3092 55.3117 43.8639 55.4629 43.5875C55.6177 43.311 55.8661 42.8263 56.0245 42.5103C56.1793 42.1943 56.4061 41.7096 56.5285 41.4331C56.6509 41.1567 56.8165 40.7689 56.8957 40.5714C56.9749 40.3739 57.1513 39.9143 57.2845 39.5481C57.4177 39.1819 57.6013 38.6433 57.6913 38.3453C57.7849 38.0508 57.9217 37.5733 58.0009 37.286C58.0801 36.9988 58.2097 36.4818 58.2889 36.1371C58.3645 35.7924 58.4797 35.243 58.5409 34.9163C58.5985 34.5895 58.6814 34.0869 58.721 33.796C58.7642 33.5016 58.8289 32.9523 58.8685 32.5752C58.9046 32.1947 58.955 31.5268 58.9802 31.0924C59.0054 30.604 59.0126 29.8572 59.0018 29.1355C58.9874 28.4928 58.955 27.6706 58.9226 27.3043C58.8938 26.9381 58.8362 26.3744 58.7929 26.0476C58.7533 25.7209 58.667 25.1321 58.5985 24.7371C58.5337 24.3421 58.4041 23.6887 58.3141 23.2829C58.2241 22.8772 58.0621 22.2237 57.9505 21.8288C57.8389 21.4338 57.6373 20.7695 57.4969 20.3566C57.3565 19.9437 57.1261 19.3046 56.9785 18.9384C56.8345 18.5721 56.5897 18.0012 56.4385 17.6637C56.2873 17.3262 56.0065 16.7445 55.8121 16.3711C55.6177 15.9977 55.3261 15.4555 55.1605 15.1683C54.9949 14.881 54.7069 14.4071 54.5197 14.1091C54.3361 13.8147 53.9941 13.3048 53.7673 12.9781C53.5369 12.6513 53.1949 12.1845 53.0041 11.9368C52.8133 11.6891 52.4965 11.2941 52.2985 11.0571C52.1041 10.8201 51.7513 10.4144 51.5209 10.1595C51.2905 9.90455 50.8549 9.44137 50.5489 9.13618C50.2429 8.82739 49.7856 8.38575 49.5264 8.14878C49.2672 7.91539 48.8064 7.51325 48.5004 7.25832C48.1944 7.00339 47.658 6.57971 47.3124 6.32119C46.9668 6.06267 46.416 5.6713 46.0884 5.45228C45.7608 5.23326 45.2604 4.9137 44.9724 4.73776C44.6844 4.56541 44.256 4.31408 44.0184 4.18123C43.7808 4.04838 43.2552 3.7719 42.8484 3.57083C42.4416 3.36976 41.8908 3.10765 41.6244 2.98916C41.358 2.87068 40.9044 2.68038 40.6163 2.56548C40.3283 2.45058 39.8351 2.26747 39.5183 2.15257C39.2015 2.04126 38.6759 1.86892 38.3483 1.77197C38.0207 1.67144 37.4771 1.52063 37.1423 1.43446C36.8039 1.3447 36.2711 1.21903 35.9543 1.15081C35.6375 1.08259 35.0867 0.97846 34.7303 0.917421C34.3739 0.859972 33.8951 0.784571 33.6683 0.755846C33.4415 0.723531 33.0131 0.676854 32.7143 0.64813C32.4191 0.615815 31.9151 0.576319 31.5982 0.554776ZM141.723 15.5525C141.547 15.5238 141.245 15.4879 141.057 15.4807C140.87 15.4699 140.593 15.4771 140.445 15.4914C140.298 15.5058 140.046 15.5453 139.887 15.5812C139.729 15.6135 139.484 15.6853 139.347 15.732C139.211 15.7823 138.991 15.8756 138.861 15.9403C138.732 16.0049 138.512 16.1413 138.375 16.2383C138.239 16.3352 138.048 16.4896 137.951 16.583L137.781 16.7481V15.7787H134.757V25.6168H137.817C137.839 20.0837 137.846 19.7606 137.9 19.5847C137.933 19.4769 138.012 19.2831 138.077 19.1538C138.145 19.0138 138.278 18.8342 138.411 18.7014C138.552 18.5614 138.717 18.4393 138.897 18.3531C139.045 18.2813 139.272 18.1951 139.401 18.1592C139.56 18.1197 139.772 18.0982 140.049 18.1018C140.384 18.1018 140.514 18.1197 140.733 18.1879C140.881 18.2382 141.09 18.3316 141.198 18.3998C141.306 18.468 141.475 18.6152 141.576 18.7229C141.677 18.8306 141.813 19.0245 141.878 19.1538C141.943 19.2831 142.022 19.4769 142.055 19.5847C142.105 19.7534 142.116 20.0658 142.137 21.7031C142.155 23.3511 142.17 23.6563 142.22 23.8395C142.256 23.9579 142.343 24.177 142.415 24.3242C142.512 24.5181 142.631 24.6725 142.839 24.8843C143.016 25.0602 143.217 25.2254 143.361 25.3044C143.491 25.3726 143.711 25.466 143.848 25.5091C144.038 25.5701 144.236 25.5916 144.668 25.6096L145.237 25.6347L145.237 25.6081C145.212 19.2327 145.212 19.2036 145.129 18.8486C145.086 18.6511 144.985 18.328 144.91 18.1305C144.83 17.933 144.676 17.6206 144.56 17.4339C144.424 17.2113 144.233 16.9743 144.01 16.7481C143.822 16.5542 143.538 16.3137 143.379 16.2095C143.221 16.1018 142.976 15.9654 142.839 15.9008C142.703 15.8361 142.465 15.7464 142.317 15.6961C142.17 15.6494 141.9 15.5848 141.723 15.5525ZM76.2495 11.47H72.7647V25.6168C74.2515 25.5952 74.3091 25.5881 74.5647 25.4983C74.7123 25.4444 74.9463 25.3259 75.0831 25.2326C75.2199 25.1356 75.4035 24.9705 75.4935 24.8628C75.5799 24.755 75.6987 24.5755 75.7527 24.4678C75.8067 24.3601 75.8787 24.1734 75.9111 24.0549C75.9579 23.8754 75.9687 23.5845 75.9687 22.2524V20.6618H78.5968C80.9872 24.0369 81.538 24.7766 81.6928 24.9346C81.8476 25.0854 82.0312 25.2218 82.2148 25.3188C82.3732 25.4013 82.6 25.4947 82.7188 25.5306C82.906 25.5845 83.1364 25.5952 84.4108 25.606C85.2244 25.6132 85.8977 25.606 85.9085 25.5916C85.9229 25.5773 85.0444 24.3421 83.9536 22.8521C82.8664 21.362 81.9808 20.134 81.9808 20.1232C81.9808 20.1125 82.1572 20.0227 82.3696 19.9222C82.582 19.818 82.8916 19.6385 83.0608 19.5164C83.23 19.398 83.4856 19.1825 83.6332 19.0389C83.7772 18.8953 83.9752 18.6727 84.0724 18.5434C84.1696 18.4141 84.3208 18.1628 84.4072 17.9869C84.4972 17.8109 84.6016 17.5596 84.6448 17.4303C84.6844 17.3011 84.7456 17.0605 84.778 16.8918C84.8176 16.6943 84.8392 16.407 84.8392 16.0659C84.8392 15.7428 84.814 15.4232 84.778 15.2221C84.7456 15.0462 84.67 14.7518 84.6088 14.5759C84.544 14.3999 84.4288 14.1306 84.3496 13.9834C84.2704 13.8362 84.13 13.61 84.0328 13.4807C83.9392 13.3515 83.734 13.1253 83.5792 12.9781C83.4208 12.8273 83.1796 12.6262 83.0428 12.5292C82.906 12.4323 82.6216 12.2635 82.4128 12.1594C82.204 12.0553 81.8404 11.9081 81.6028 11.8291C81.3652 11.7537 80.9944 11.6567 80.7748 11.6172C80.5552 11.5742 80.2312 11.5275 80.0548 11.5059C79.8604 11.4844 78.3232 11.47 76.2495 11.47ZM79.1368 17.9689C78.8884 17.9905 78.0748 18.0048 75.9687 18.0048V14.127H77.488C78.3268 14.127 79.1656 14.145 79.3528 14.1629C79.54 14.1845 79.8316 14.2347 80.0008 14.2742C80.17 14.3137 80.4364 14.4071 80.5948 14.4825C80.7856 14.5687 80.962 14.6907 81.1168 14.8344C81.2464 14.9529 81.394 15.1288 81.448 15.2257C81.502 15.3227 81.5704 15.4986 81.5992 15.6171C81.6316 15.7356 81.6568 15.9367 81.6568 16.0659C81.6568 16.1952 81.6388 16.3711 81.6172 16.4609C81.5956 16.5506 81.5344 16.7122 81.484 16.8199C81.43 16.9277 81.2932 17.1108 81.1816 17.2221C81.0304 17.3729 80.8792 17.477 80.6416 17.5919C80.458 17.6817 80.1448 17.7966 79.9468 17.8432C79.7488 17.8935 79.3852 17.951 79.1368 17.9689ZM91.3769 15.5345C91.2293 15.513 90.9593 15.4878 90.7829 15.4771C90.6065 15.4699 90.3113 15.4771 90.1349 15.4914C89.9585 15.5058 89.6741 15.5453 89.5049 15.5812C89.3357 15.6135 89.0513 15.6925 88.8749 15.75C88.6985 15.8074 88.3961 15.9367 88.2089 16.0372C88.0217 16.1341 87.7409 16.3065 87.5825 16.4178C87.4277 16.5291 87.1613 16.7697 86.9885 16.9456C86.8193 17.1251 86.5889 17.4052 86.4773 17.574C86.3657 17.7427 86.2109 18.0012 86.1389 18.1484C86.0633 18.2957 85.9409 18.6044 85.8653 18.8306C85.7897 19.0569 85.6997 19.398 85.6637 19.5847C85.6133 19.8504 85.5988 20.1053 85.5988 20.7336C85.6024 21.4374 85.6133 21.5918 85.6816 21.9185C85.7285 22.1268 85.8149 22.4391 85.8725 22.6187C85.9337 22.7982 86.0561 23.0854 86.1425 23.265C86.2325 23.4445 86.3801 23.6994 86.4737 23.8395C86.5673 23.9795 86.7869 24.2416 86.9669 24.4283C87.1433 24.615 87.4205 24.8628 87.5789 24.9812C87.7373 25.0961 88.0613 25.29 88.2989 25.4049C88.5365 25.5198 88.8785 25.6563 89.0549 25.7065C89.2313 25.7568 89.5265 25.825 89.7029 25.8573C89.9153 25.8968 90.2285 25.9148 90.6029 25.9148C91.0529 25.9148 91.2617 25.8968 91.5497 25.8358C91.7513 25.7963 92.0501 25.7137 92.2121 25.6527C92.3777 25.5952 92.6405 25.4732 92.7989 25.3798C92.9573 25.29 93.1697 25.1536 93.2669 25.0782C93.3421 25.0193 93.4432 24.9345 93.5256 24.8654C93.5538 24.8418 93.5797 24.82 93.6017 24.8017L93.7565 24.6653L93.7529 25.6168C94.7105 25.6168 95.013 25.5952 95.175 25.5629C95.3118 25.5342 95.5494 25.4516 95.697 25.3762C95.8842 25.2864 96.039 25.1715 96.201 25.01C96.345 24.8628 96.4818 24.6832 96.5502 24.5396C96.615 24.4104 96.6906 24.2093 96.723 24.0908C96.7698 23.9041 96.777 23.3332 96.777 19.8288V15.7787H93.7529L93.7565 16.7661C93.4037 16.425 93.1805 16.249 93.0329 16.1557C92.8853 16.0587 92.6477 15.9295 92.5109 15.8649C92.3741 15.8002 92.1221 15.7069 91.9529 15.6602C91.7837 15.6099 91.5245 15.5525 91.3769 15.5345ZM89.8469 18.2167C89.9477 18.1592 90.1169 18.0766 90.2249 18.0371C90.3329 17.994 90.5381 17.9402 90.6749 17.9115C90.8261 17.8827 91.0637 17.8684 91.2689 17.8792C91.4561 17.8863 91.7081 17.9186 91.8269 17.951C91.9457 17.9797 92.1653 18.0659 92.3129 18.1377C92.5217 18.2382 92.6513 18.3352 92.8889 18.5757C93.1337 18.8199 93.2273 18.9491 93.3461 19.1897C93.4289 19.3585 93.5333 19.617 93.5729 19.7642C93.6269 19.9473 93.6557 20.1879 93.6701 20.5182C93.6845 20.8378 93.6773 21.0999 93.6449 21.2902C93.6197 21.4482 93.5657 21.6815 93.5189 21.8108C93.4757 21.9401 93.3893 22.1411 93.3281 22.2596C93.2633 22.3781 93.1373 22.5684 93.0437 22.6797C92.9465 22.7946 92.7809 22.9562 92.6729 23.0352C92.5649 23.1178 92.3597 23.2398 92.2229 23.3045C92.0861 23.3691 91.8449 23.4481 91.6937 23.4768C91.5389 23.5091 91.2977 23.5343 91.1609 23.5343C91.0241 23.5343 90.7829 23.5091 90.6317 23.4768C90.4769 23.4445 90.2717 23.387 90.1709 23.344C90.0737 23.3045 89.8865 23.2039 89.7605 23.1249C89.6309 23.0424 89.4293 22.87 89.3105 22.7407C89.1881 22.6115 89.0225 22.3781 88.9397 22.2201C88.8605 22.0657 88.7597 21.8323 88.7201 21.7031C88.6805 21.5738 88.6301 21.3153 88.6049 21.1286C88.5797 20.9239 88.5689 20.6654 88.5833 20.4823C88.5977 20.3135 88.6409 20.0443 88.6769 19.8827C88.7165 19.7175 88.7957 19.4841 88.8497 19.362C88.9073 19.2364 89.0153 19.0389 89.0981 18.9204C89.1773 18.8019 89.3393 18.6188 89.4545 18.5111C89.5697 18.407 89.7497 18.2705 89.8469 18.2167ZM128.54 15.4914C128.267 15.4735 128.004 15.4591 127.953 15.4627C127.903 15.4627 127.694 15.4771 127.485 15.4914C127.277 15.5094 126.96 15.5453 126.783 15.5776C126.607 15.6063 126.312 15.6746 126.135 15.7248C125.959 15.7751 125.674 15.8756 125.505 15.9438C125.336 16.0121 125.07 16.1413 124.911 16.2347C124.753 16.3244 124.508 16.486 124.371 16.5866C124.234 16.6907 123.99 16.9097 123.831 17.0749C123.669 17.24 123.457 17.4986 123.356 17.6458C123.255 17.793 123.1 18.0623 123.01 18.2382C122.924 18.4141 122.805 18.6906 122.751 18.8486C122.697 19.0066 122.625 19.2795 122.586 19.459C122.55 19.6385 122.503 19.9832 122.481 20.231C122.452 20.5505 122.452 20.8162 122.478 21.1573C122.499 21.4158 122.55 21.7821 122.589 21.9652C122.629 22.1447 122.697 22.3996 122.737 22.5289C122.78 22.6582 122.892 22.9239 122.985 23.1213C123.079 23.3188 123.262 23.624 123.385 23.8C123.511 23.9723 123.77 24.2667 123.957 24.4463C124.144 24.6258 124.436 24.8664 124.605 24.9777C124.774 25.089 125.066 25.2541 125.253 25.3439C125.44 25.4337 125.743 25.5521 125.919 25.6096C126.096 25.6706 126.42 25.7532 126.639 25.7927C126.859 25.8358 127.262 25.8897 127.539 25.9112C127.91 25.9399 128.18 25.9363 128.565 25.9076C128.853 25.8861 129.249 25.8322 129.447 25.7927C129.645 25.7532 129.977 25.6635 130.185 25.5952C130.394 25.5234 130.693 25.4049 130.851 25.3295C131.01 25.2541 131.287 25.0961 131.463 24.9777C131.64 24.8592 131.906 24.6509 132.054 24.5145C132.201 24.3816 132.421 24.1411 132.543 23.9831C132.666 23.8251 132.831 23.5845 132.914 23.4445C132.997 23.3045 133.123 23.0567 133.195 22.888C133.263 22.7192 133.368 22.4032 133.425 22.1878C133.483 21.9724 133.548 21.6241 133.573 21.4158C133.598 21.186 133.609 20.8234 133.595 20.4823C133.584 20.1268 133.548 19.7821 133.497 19.5308C133.454 19.3154 133.368 18.9994 133.31 18.8306C133.249 18.6619 133.145 18.4034 133.073 18.2562C133.001 18.1089 132.853 17.8504 132.738 17.6817C132.626 17.5129 132.399 17.2364 132.234 17.0677C132.068 16.8989 131.802 16.6655 131.643 16.5471C131.485 16.4286 131.168 16.2383 130.941 16.1234C130.715 16.0085 130.365 15.8577 130.167 15.793C129.969 15.732 129.635 15.6422 129.419 15.6027C129.206 15.5597 128.81 15.513 128.54 15.4914ZM126.729 18.31C126.859 18.2454 127.061 18.1628 127.179 18.1305C127.298 18.0946 127.467 18.0551 127.557 18.0371C127.647 18.0228 127.907 18.0156 128.133 18.0228C128.36 18.03 128.652 18.0623 128.781 18.0946C128.911 18.1269 129.152 18.2203 129.321 18.3028C129.559 18.4177 129.692 18.5147 129.919 18.7409C130.131 18.9527 130.247 19.1035 130.355 19.3154C130.437 19.4734 130.538 19.7319 130.578 19.8899C130.621 20.0478 130.664 20.3387 130.675 20.5362C130.693 20.7911 130.682 20.9922 130.639 21.2291C130.607 21.4087 130.545 21.66 130.499 21.7857C130.455 21.9077 130.362 22.1052 130.293 22.2201C130.225 22.3386 130.059 22.5433 129.926 22.6797C129.735 22.87 129.609 22.9598 129.35 23.0854C129.167 23.1752 128.911 23.2757 128.781 23.3081C128.612 23.3547 128.407 23.3691 128.025 23.3691C127.64 23.3691 127.442 23.3547 127.269 23.3081C127.14 23.2721 126.899 23.1752 126.729 23.0926C126.488 22.9777 126.362 22.8844 126.135 22.6546C125.905 22.4284 125.811 22.3027 125.696 22.0621C125.613 21.8934 125.516 21.6528 125.48 21.5236C125.433 21.344 125.415 21.1537 125.415 20.7157C125.415 20.2776 125.43 20.0873 125.48 19.9078C125.516 19.7786 125.595 19.5631 125.66 19.4231C125.725 19.2831 125.851 19.0748 125.941 18.9599C126.027 18.8414 126.189 18.6763 126.297 18.5865C126.405 18.5003 126.6 18.3746 126.729 18.31ZM102.375 19.0497L100.755 15.7787C98.2674 15.7787 97.533 15.7859 97.5222 15.7966C97.5078 15.8074 98.6166 18.0479 99.981 20.7767C101.349 23.5091 102.465 25.7676 102.465 25.7963C102.465 25.825 102.004 26.8376 101.443 28.0404C100.881 29.2432 100.427 30.2414 100.435 30.2593C100.442 30.2737 100.877 30.2845 101.403 30.2845C102.109 30.2845 102.429 30.2701 102.638 30.2306C102.789 30.2019 103.045 30.1121 103.203 30.0367C103.387 29.947 103.581 29.8141 103.743 29.6669C103.88 29.5376 104.06 29.333 104.143 29.2037C104.222 29.0781 105.572 26.123 107.141 22.6366C108.711 19.1502 110.004 16.2885 110.018 16.2742C110.032 16.2598 111.12 18.3926 112.434 21.0137L114.828 25.7784C113.226 29.2289 112.761 30.2414 112.761 30.2593C112.761 30.2737 113.251 30.2809 113.852 30.2737L113.861 30.2736C114.918 30.2629 114.944 30.2627 115.227 30.1696C115.386 30.1157 115.616 30.008 115.742 29.9254C115.864 29.8464 116.034 29.7208 116.113 29.649C116.196 29.5736 116.332 29.4156 116.419 29.2971C116.527 29.1427 117.445 27.1499 119.558 22.4571C121.2 18.8127 122.535 15.8218 122.521 15.8074C122.51 15.793 121.779 15.7823 120.897 15.7895L119.299 15.7966C117.034 20.8737 116.372 22.3494 116.361 22.3494C116.35 22.3494 115.612 20.8737 114.723 19.0712L113.1 15.7966H106.961C104.704 20.8737 104.038 22.3422 104.024 22.335C104.006 22.3278 103.268 20.8485 102.375 19.0497ZM113.24 31.9002H112.545V47.5191H115.605L115.609 43.013C117.542 44.9878 118.453 45.9105 118.878 46.3378C119.616 47.0739 119.67 47.1241 119.961 47.2606C120.13 47.3396 120.393 47.4329 120.548 47.4616C120.771 47.5083 121.106 47.5191 122.301 47.5191C123.115 47.5191 123.784 47.5083 123.795 47.494C123.802 47.476 122.823 46.4491 121.614 45.2032C120.404 43.9573 119.389 42.8945 119.36 42.8334C119.328 42.7724 119.302 42.6683 119.302 42.6001C119.302 42.5318 119.317 42.4349 119.335 42.3846C119.349 42.3344 120.231 41.268 121.293 40.0149L123.226 37.7349C120.717 37.7169 120.447 37.7277 120.267 37.7708C120.148 37.8031 119.954 37.8713 119.835 37.9288C119.716 37.9826 119.522 38.1047 119.403 38.1945C119.252 38.3093 118.658 38.9808 117.405 40.4565L115.623 42.5534L115.623 42.4348C115.587 33.3573 115.587 33.2782 115.515 33.1031C115.472 33.0061 115.4 32.8517 115.346 32.762C115.296 32.6722 115.159 32.5106 115.044 32.4029C114.925 32.2916 114.741 32.1587 114.633 32.1049C114.525 32.051 114.32 31.9828 114.183 31.9541C114.01 31.9182 113.712 31.9002 113.24 31.9002ZM137.619 34.5931H136.881V37.7169H134.649V40.1585H136.881C136.907 44.2194 136.914 44.5174 136.968 44.7544C137.004 44.9016 137.065 45.1206 137.101 45.2391C137.141 45.3576 137.241 45.591 137.324 45.7561C137.407 45.9213 137.58 46.187 137.709 46.3486C137.839 46.5066 138.059 46.7328 138.195 46.8477C138.332 46.9661 138.57 47.1313 138.717 47.2175C138.865 47.3073 139.117 47.4257 139.275 47.4868C139.434 47.5478 139.718 47.6376 139.905 47.6843C140.093 47.7345 140.467 47.792 140.733 47.8135C141.111 47.8458 141.342 47.8458 141.777 47.8135C142.083 47.7884 142.512 47.7345 142.731 47.6879L143.127 47.6089L143.149 45.0596C142.908 45.0991 142.587 45.1278 142.281 45.1529C141.839 45.1888 141.655 45.1888 141.399 45.1529C141.223 45.1278 140.971 45.0632 140.841 45.0129C140.712 44.959 140.532 44.8441 140.435 44.7544C140.319 44.6503 140.211 44.4994 140.125 44.3271L139.995 44.0578L139.977 40.1585H143.145V37.7169H139.977C139.977 36.6721 139.959 36.2591 139.941 36.1191C139.916 35.9647 139.855 35.7637 139.776 35.5985C139.686 35.4118 139.578 35.261 139.423 35.1102C139.286 34.9737 139.117 34.8517 138.969 34.7834C138.84 34.7224 138.649 34.6542 138.548 34.6326C138.444 34.6111 138.026 34.5931 137.619 34.5931ZM79.5508 37.4476C79.3672 37.4189 79.0396 37.3938 78.7948 37.3974C78.5572 37.3974 78.2404 37.4225 78.0928 37.4476C77.9452 37.4763 77.686 37.541 77.5168 37.5912C77.3476 37.6451 77.0632 37.7636 76.8867 37.8533C76.7104 37.9467 76.4655 38.0939 76.3467 38.1801C76.2279 38.2699 76.0515 38.4135 75.9579 38.5032L75.7851 38.6684L75.7887 37.7169H72.7647V47.5191H75.8247C75.8427 41.9538 75.8499 41.6629 75.9075 41.469C75.9435 41.3505 76.0227 41.1495 76.0839 41.0202C76.1559 40.8694 76.2784 40.7042 76.4332 40.5534C76.5664 40.4206 76.7571 40.277 76.8688 40.2231C76.9768 40.1693 77.164 40.101 77.2828 40.0723C77.4052 40.04 77.6464 40.0149 77.8408 40.0149C78.0784 40.0149 78.2548 40.0364 78.4168 40.0831C78.5464 40.1226 78.748 40.2159 78.8668 40.2949C78.9856 40.3739 79.1512 40.5247 79.2376 40.6288C79.324 40.7366 79.4392 40.9197 79.4968 41.0382C79.5544 41.1567 79.6264 41.3505 79.6624 41.469C79.7164 41.6557 79.7272 41.9322 79.7488 43.6413C79.7704 45.3073 79.7812 45.6269 79.8316 45.7956C79.864 45.9034 79.9396 46.0901 79.9972 46.2085C80.0584 46.327 80.1808 46.5173 80.2708 46.6322C80.3608 46.7435 80.5264 46.9087 80.6416 46.9985C80.7532 47.0882 80.944 47.2067 81.0628 47.2642C81.1816 47.3252 81.3832 47.4006 81.5128 47.4329C81.6784 47.476 81.9016 47.494 82.2868 47.4976L82.8268 47.5011C82.8628 41.8173 82.87 41.5588 82.9312 41.3613C82.9672 41.2428 83.0464 41.0489 83.1076 40.9304C83.1652 40.812 83.2984 40.6288 83.3992 40.5211C83.5 40.417 83.6548 40.2877 83.7448 40.2375C83.8348 40.1872 84.0004 40.1154 84.1156 40.0795C84.2524 40.0364 84.436 40.0149 84.6736 40.0149C84.8644 40.0149 85.1128 40.04 85.2208 40.0687C85.3288 40.0974 85.5232 40.1728 85.6528 40.2375C85.786 40.3021 85.9697 40.4385 86.0849 40.5534C86.1929 40.6612 86.3405 40.8658 86.4161 41.0023C86.4881 41.1423 86.5745 41.3434 86.6105 41.4511C86.6681 41.627 86.6789 41.864 86.6969 43.5875C86.7185 45.2463 86.7293 45.5587 86.7797 45.7418C86.8157 45.8603 86.8985 46.0721 86.9669 46.2085C87.0353 46.345 87.1577 46.5425 87.2441 46.6466C87.3305 46.7471 87.4817 46.8979 87.5789 46.9805C87.6797 47.0595 87.8741 47.1852 88.0109 47.2534C88.1477 47.3216 88.3529 47.4006 88.4609 47.4329C88.5725 47.4652 88.9073 47.4976 89.2277 47.5119L89.7929 47.537C89.7929 42.5749 89.7785 41.3972 89.7533 41.1997C89.7317 41.031 89.6741 40.7402 89.6273 40.5534C89.5769 40.3667 89.4617 40.0508 89.3645 39.8533C89.2709 39.6558 89.1233 39.3901 89.0369 39.2608C88.9505 39.1316 88.7489 38.891 88.5905 38.7294C88.4285 38.5643 88.1945 38.3524 88.0649 38.2555C87.9353 38.1621 87.7265 38.0257 87.5969 37.9575C87.4673 37.8857 87.2333 37.778 87.0749 37.7169C86.9165 37.6523 86.6177 37.5625 86.4089 37.5122C86.1209 37.444 85.8904 37.4189 85.4368 37.4045C85.0012 37.3902 84.7492 37.4009 84.4828 37.444C84.2848 37.4728 83.9752 37.541 83.7988 37.5912C83.6224 37.6415 83.3452 37.742 83.1868 37.8103C83.0284 37.8785 82.7764 38.0077 82.6288 38.0975C82.4812 38.1873 82.2508 38.3488 82.1176 38.453L81.8728 38.6505C81.6064 38.4099 81.4336 38.2699 81.3148 38.1801C81.196 38.0939 80.9692 37.9539 80.8108 37.8713C80.6524 37.7887 80.3752 37.6738 80.1988 37.6128C80.0224 37.5553 79.7272 37.4799 79.5508 37.4476ZM97.1118 37.4476C96.9138 37.4117 96.5862 37.3938 96.237 37.3974C95.865 37.3997 95.553 37.4225 95.301 37.4656C95.0922 37.5051 94.7934 37.5769 94.6349 37.6271C94.4765 37.681 94.2101 37.7851 94.0409 37.8641C93.8717 37.9431 93.5981 38.1011 93.4289 38.2124C93.2597 38.3237 92.9753 38.5535 92.7989 38.7259C92.6225 38.8982 92.3705 39.1819 92.2445 39.3542C92.1221 39.5301 91.9385 39.8317 91.8413 40.0256C91.7441 40.2159 91.6181 40.5139 91.5605 40.6899C91.4993 40.8622 91.4165 41.171 91.3697 41.3793C91.2977 41.7132 91.2905 41.8568 91.2905 42.618C91.2905 43.3684 91.2977 43.5264 91.3661 43.8388C91.4093 44.0363 91.5065 44.3666 91.5785 44.5748C91.6505 44.7831 91.7585 45.0488 91.8161 45.1673C91.8773 45.2858 92.0105 45.512 92.1113 45.67C92.2157 45.8279 92.4065 46.0793 92.5325 46.2265C92.6621 46.3737 92.8889 46.5927 93.0365 46.7112C93.1841 46.8297 93.4325 47.0092 93.5909 47.1062C93.7493 47.2031 94.0265 47.3468 94.2029 47.4257C94.3793 47.5011 94.7034 47.6089 94.923 47.6627C95.1426 47.7202 95.5134 47.7848 95.751 47.8063C95.9958 47.8315 96.3378 47.8422 96.543 47.8315C96.741 47.8171 97.0398 47.7812 97.209 47.7489C97.3782 47.7166 97.6518 47.6412 97.821 47.5837C97.9902 47.5227 98.2314 47.4222 98.361 47.3575C98.4906 47.2929 98.703 47.16 98.8362 47.0631C98.9694 46.9697 99.1602 46.8225 99.2574 46.7399L99.441 46.5856V47.5191C100.766 47.4976 100.849 47.4868 101.061 47.4078C101.191 47.3611 101.378 47.2713 101.475 47.2175C101.576 47.16 101.752 47.0128 101.871 46.8943C101.997 46.7687 102.145 46.5676 102.22 46.424C102.292 46.2875 102.379 46.0685 102.407 45.9393C102.458 45.7346 102.465 45.1888 102.465 41.7132V37.7169H99.441L99.4446 38.6684C99.0918 38.3345 98.8938 38.1729 98.775 38.0939C98.6562 38.0149 98.4546 37.9 98.325 37.8354C98.1954 37.7708 97.9398 37.6666 97.7598 37.6092C97.5762 37.5482 97.2846 37.4763 97.1118 37.4476ZM95.607 40.0795C95.7438 40.0113 95.9418 39.9251 96.039 39.8928C96.1398 39.8605 96.3162 39.821 96.435 39.803C96.5538 39.7815 96.7986 39.7743 96.975 39.7851C97.1514 39.7922 97.3962 39.8246 97.515 39.8569C97.6338 39.8856 97.8534 39.9718 98.001 40.0436C98.1954 40.1369 98.3466 40.2518 98.5446 40.4457C98.6958 40.5929 98.8722 40.812 98.9406 40.9304C99.009 41.0489 99.1026 41.2356 99.1458 41.3434C99.189 41.4511 99.2538 41.645 99.2862 41.7742C99.3366 41.9573 99.351 42.1441 99.3474 42.636C99.3474 43.2104 99.3366 43.2894 99.2502 43.5803C99.1962 43.7526 99.1062 43.986 99.0486 44.1009C98.991 44.2122 98.8722 44.4025 98.7822 44.521C98.6922 44.6395 98.5338 44.8082 98.4258 44.8944C98.3214 44.9806 98.1054 45.1134 97.947 45.1888C97.7886 45.2678 97.5366 45.354 97.389 45.3863C97.1946 45.4258 97.0074 45.4402 96.723 45.4258C96.435 45.4114 96.2478 45.3827 96.039 45.3145C95.8806 45.2642 95.6466 45.1637 95.5206 45.0883C95.3946 45.0129 95.2002 44.8621 95.0886 44.7508C94.977 44.6431 94.8222 44.4564 94.7466 44.3379C94.6674 44.223 94.5593 44.0219 94.5089 43.8926C94.4549 43.7634 94.3793 43.53 94.3434 43.372C94.293 43.153 94.2749 42.9591 94.2785 42.5641C94.2822 42.1584 94.3001 41.9789 94.3577 41.7563C94.4009 41.5983 94.5125 41.3146 94.6061 41.1279C94.743 40.8515 94.833 40.7294 95.067 40.4996C95.2614 40.3021 95.4342 40.1693 95.607 40.0795ZM110.961 37.5015C110.752 37.4404 110.407 37.4153 110.061 37.4081C109.582 37.3974 109.37 37.4081 109.179 37.4512C109.042 37.4835 108.83 37.5482 108.711 37.5948C108.592 37.6451 108.38 37.7492 108.243 37.8318C108.106 37.9144 107.876 38.0975 107.736 38.2375C107.595 38.374 107.422 38.5786 107.35 38.6864L107.217 38.8838V37.7169H104.193V47.5191H107.253C107.253 43.8065 107.267 42.6755 107.289 42.5103C107.307 42.3523 107.35 42.1261 107.379 42.0076C107.408 41.8891 107.509 41.6378 107.602 41.4511C107.732 41.1854 107.826 41.0561 108.024 40.8586C108.211 40.6719 108.362 40.5642 108.585 40.4529C108.78 40.356 109.014 40.277 109.233 40.2303C109.435 40.1872 109.716 40.1585 109.917 40.1585C110.104 40.1585 110.407 40.1836 110.583 40.2123C110.76 40.2411 110.918 40.2662 110.936 40.2662C110.95 40.2662 110.961 39.645 110.961 38.8838V37.5015ZM129.717 37.4476C129.483 37.4153 129.087 37.3974 128.673 37.3974C128.306 37.4009 127.871 37.4225 127.701 37.4476C127.532 37.4728 127.259 37.5302 127.089 37.5733C126.92 37.6164 126.621 37.7133 126.423 37.7923C126.225 37.8677 125.934 38.0042 125.775 38.0939C125.617 38.1837 125.372 38.3453 125.235 38.4494C125.098 38.5571 124.854 38.7797 124.695 38.9449C124.533 39.1064 124.321 39.365 124.22 39.5122C124.123 39.6594 123.975 39.9107 123.896 40.0687C123.813 40.2267 123.702 40.4924 123.64 40.6612C123.583 40.8299 123.5 41.1207 123.46 41.3075C123.417 41.4942 123.367 41.8676 123.345 42.1333C123.313 42.4887 123.313 42.7401 123.342 43.0776C123.363 43.3289 123.406 43.6593 123.439 43.8137C123.468 43.9645 123.547 44.2517 123.612 44.4492C123.68 44.6467 123.792 44.9303 123.867 45.0775C123.939 45.2247 124.087 45.4761 124.191 45.6341C124.296 45.792 124.501 46.0506 124.648 46.205C124.792 46.3594 125.066 46.6035 125.253 46.7435C125.44 46.8836 125.757 47.0846 125.955 47.1852C126.153 47.2857 126.452 47.415 126.621 47.476C126.791 47.5335 127.115 47.6232 127.341 47.6771C127.568 47.7273 127.989 47.7884 128.277 47.8135C128.688 47.8458 128.915 47.8458 129.339 47.8135C129.638 47.7884 130.067 47.7273 130.293 47.6771C130.52 47.6268 130.862 47.5263 131.049 47.4581C131.237 47.3862 131.507 47.2749 131.643 47.2067C131.78 47.1385 132.025 46.9949 132.183 46.8908C132.342 46.7866 132.597 46.582 132.756 46.4383C132.911 46.2911 133.137 46.0434 133.256 45.8854C133.375 45.7274 133.526 45.4833 133.598 45.3468C133.667 45.2104 133.753 45.0057 133.793 44.898C133.829 44.7903 133.857 44.6969 133.857 44.6933C133.857 44.6862 133.177 44.6826 132.345 44.6826H130.833C130.506 45.0093 130.319 45.1457 130.185 45.2104C130.056 45.275 129.822 45.3612 129.663 45.4043C129.437 45.4653 129.275 45.4833 128.907 45.4833C128.569 45.4868 128.375 45.4689 128.205 45.4222C128.076 45.3863 127.892 45.3253 127.791 45.2822C127.694 45.2427 127.507 45.1422 127.377 45.056C127.248 44.9734 127.061 44.819 126.956 44.7149C126.855 44.6072 126.715 44.4312 126.647 44.3235C126.578 44.2158 126.481 44.0219 126.427 43.8926C126.377 43.7634 126.333 43.6377 126.333 43.6162C126.333 43.5803 127.125 43.5695 130.167 43.5695H134.001C133.976 41.9358 133.962 41.7275 133.893 41.3972C133.85 41.1818 133.767 40.8586 133.706 40.6791C133.649 40.4996 133.544 40.2339 133.476 40.0867C133.407 39.9395 133.245 39.663 133.123 39.4763C132.997 39.2896 132.767 39.0059 132.612 38.8479C132.453 38.6899 132.212 38.4745 132.075 38.374C131.939 38.2699 131.669 38.1047 131.481 38.0077C131.294 37.9108 131.049 37.7959 130.941 37.7564C130.833 37.7133 130.596 37.6415 130.419 37.5912C130.243 37.541 129.926 37.4799 129.717 37.4476ZM127.323 40.0903C127.46 39.9969 127.673 39.8856 127.791 39.8389C127.91 39.7922 128.105 39.7348 128.223 39.7097C128.342 39.6845 128.58 39.6594 128.756 39.6594C128.929 39.6558 129.195 39.6809 129.35 39.7133C129.501 39.742 129.761 39.8317 129.926 39.9107C130.142 40.0113 130.283 40.1118 130.448 40.277C130.578 40.4062 130.725 40.6073 130.805 40.7509C130.877 40.891 130.959 41.092 130.992 41.1997C131.021 41.3075 131.053 41.4726 131.085 41.7383H126.297L126.319 41.6234C126.33 41.5588 126.38 41.39 126.427 41.2536C126.474 41.1172 126.567 40.9161 126.632 40.812C126.693 40.7078 126.819 40.5391 126.909 40.4385C126.999 40.338 127.187 40.18 127.323 40.0903ZM16.331 13.3263C16.3454 13.5418 16.3814 13.8829 16.4102 14.0911C16.439 14.2994 16.5074 14.6369 16.5578 14.8451C16.6082 15.0534 16.7054 15.3837 16.7738 15.5812C16.8422 15.7787 17.0006 16.1521 17.1266 16.407C17.249 16.662 17.465 17.0426 17.6018 17.2508C17.7386 17.4591 17.9546 17.7571 18.0842 17.9151C18.2102 18.073 18.4586 18.3495 18.6386 18.5255C18.815 18.705 19.085 18.9491 19.2326 19.0712C19.3802 19.1897 19.6646 19.398 19.8626 19.5308C20.0606 19.6637 20.4674 19.8899 20.7626 20.0371C21.0614 20.1807 21.5006 20.3638 21.7454 20.4428C21.9866 20.5254 22.3827 20.6295 22.6275 20.6762C22.8687 20.7265 23.2251 20.7839 23.4195 20.8019C23.6463 20.827 25.3815 20.8414 28.3407 20.8414C31.5196 20.8414 32.992 20.8521 33.1756 20.8809C33.316 20.9024 33.5464 20.9634 33.6868 21.0101C33.8272 21.0604 34.0216 21.1466 34.1188 21.204C34.2196 21.2579 34.396 21.3835 34.5148 21.4769C34.63 21.5702 34.8064 21.7462 34.9 21.8647C34.9972 21.9832 35.1376 22.2022 35.2168 22.3494C35.2924 22.4966 35.3932 22.7479 35.4328 22.9059C35.4904 23.1178 35.512 23.3009 35.512 23.6061C35.512 23.9041 35.4904 24.0944 35.44 24.2883C35.4004 24.4355 35.3176 24.6617 35.2528 24.791C35.188 24.9202 35.0692 25.1213 34.9828 25.2398C34.9 25.3583 34.7344 25.5414 34.6192 25.6491C34.504 25.7532 34.3024 25.904 34.1728 25.9794C34.0432 26.0548 33.8272 26.159 33.6868 26.2056C33.5464 26.2559 33.3304 26.3133 33.2008 26.3313C33.0496 26.3564 31.7716 26.3708 29.5827 26.3708C27.5163 26.3708 26.0367 26.3852 25.7847 26.4103C25.5579 26.4282 25.1763 26.4785 24.9387 26.518C24.7011 26.5575 24.3195 26.6401 24.0927 26.6975C23.8659 26.7586 23.5347 26.8555 23.3547 26.9166C23.1747 26.974 22.8939 27.0817 22.7247 27.1499C22.5555 27.2182 22.2171 27.3761 21.9686 27.5018C21.7202 27.6275 21.3566 27.8321 21.1586 27.9578C20.9606 28.0835 20.6366 28.3097 20.4386 28.4569C20.2406 28.6077 19.9094 28.8806 19.7042 29.0673C19.4954 29.254 19.1822 29.5664 19.0058 29.7639C18.8294 29.9613 18.5522 30.3024 18.3866 30.5179C18.221 30.7333 17.969 31.1067 17.825 31.3437C17.681 31.5807 17.4614 31.9864 17.339 32.2413C17.2166 32.4963 17.0402 32.9199 16.9466 33.1749C16.853 33.4298 16.7234 33.8607 16.655 34.1264C16.5866 34.3921 16.4966 34.805 16.4606 35.042C16.421 35.2789 16.3706 35.7062 16.3526 35.9935C16.3274 36.3346 16.3166 38.2232 16.3238 41.4331L16.3346 46.3522C19.3406 46.3701 20.327 46.3558 20.5646 46.3378C20.7914 46.3163 21.1082 46.266 21.2666 46.2229C21.425 46.1834 21.6662 46.1008 21.8066 46.0434C21.947 45.9859 22.1882 45.8603 22.3467 45.7669C22.5051 45.67 22.7787 45.4545 22.9551 45.2894C23.1315 45.1242 23.3511 44.8836 23.4483 44.7544C23.5455 44.6251 23.6859 44.3989 23.7651 44.2517C23.8407 44.1045 23.9451 43.8675 23.9955 43.7311C24.0459 43.5946 24.1143 43.3577 24.1503 43.2104C24.2079 42.9663 24.2151 42.6324 24.2331 39.7097L24.2547 36.4782C24.4059 36.0329 24.5283 35.7744 24.6219 35.6164C24.7155 35.4585 24.8955 35.2251 25.0251 35.0958C25.1547 34.9666 25.3851 34.7834 25.5327 34.6937C25.6803 34.6003 25.9575 34.4747 26.1447 34.41C26.4255 34.3167 26.5623 34.2951 26.9007 34.2808L27.3147 34.2628C32.254 41.4798 33.7876 43.6988 33.9064 43.8496C34.0288 44.004 34.2808 44.2732 34.4644 44.4528C34.6516 44.6287 34.9396 44.8801 35.1088 45.0021C35.278 45.1278 35.5588 45.3145 35.7388 45.4186C35.9188 45.5263 36.178 45.6628 36.3148 45.7238C36.4552 45.7849 36.6712 45.8782 36.8008 45.9249C36.9304 45.9752 37.2148 46.0613 37.4308 46.1188C37.6468 46.1798 37.9816 46.2516 38.1688 46.284C38.464 46.3342 38.9608 46.345 41.8157 46.3558C44.6705 46.3665 45.1169 46.3629 45.1097 46.3199C45.1025 46.2911 43.1549 43.4295 40.7789 39.9646C38.4028 36.4961 36.4552 33.6452 36.4516 33.6237C36.4444 33.6057 36.4588 33.5878 36.4768 33.5878C36.4948 33.5878 36.7036 33.5052 36.9376 33.4083C37.168 33.3077 37.546 33.1246 37.7728 33.0025C37.9996 32.8805 38.3812 32.6507 38.6188 32.4927C38.8564 32.3347 39.2128 32.0762 39.4108 31.9182C39.6088 31.7602 39.9904 31.4155 40.2569 31.1462C40.5269 30.8805 40.8797 30.4927 41.0489 30.2845C41.2145 30.0762 41.4845 29.7064 41.6465 29.4587C41.8085 29.2109 42.0497 28.8088 42.1793 28.561C42.3053 28.3133 42.4709 27.9758 42.5429 27.807C42.6149 27.6383 42.7301 27.3402 42.7985 27.1428C42.8669 26.9453 42.9641 26.6473 43.0109 26.4785C43.0577 26.3098 43.1369 25.9794 43.1873 25.7424C43.2341 25.5055 43.3025 25.0926 43.3313 24.8269C43.3673 24.5396 43.3889 24.0441 43.3889 23.6061C43.3889 23.1896 43.3673 22.6761 43.3349 22.4212C43.3061 22.1734 43.2521 21.8036 43.2125 21.5954C43.1693 21.3871 43.0829 21.0173 43.0145 20.7695C42.9461 20.5218 42.8129 20.1089 42.7193 19.854C42.6257 19.599 42.4205 19.1358 42.2693 18.8307C42.1145 18.5255 41.8445 18.0551 41.6681 17.7894C41.4917 17.5237 41.2325 17.1575 41.0885 16.9815C40.9445 16.8056 40.6709 16.4896 40.4801 16.285C40.2893 16.0803 39.9508 15.7571 39.7348 15.5704C39.5188 15.3837 39.1768 15.1144 38.9788 14.9708C38.7808 14.8272 38.4388 14.601 38.2228 14.4717C38.0068 14.3389 37.6468 14.145 37.4308 14.0373C37.2148 13.9331 36.8476 13.7716 36.6208 13.6818C36.394 13.5956 36.0196 13.4664 35.7928 13.3982C35.566 13.3299 35.1844 13.2294 34.9468 13.1791C34.7092 13.1289 34.3276 13.0606 34.1008 13.0247C33.7156 12.9673 33.0784 12.9637 24.9963 12.9529L16.3094 12.9422L16.331 13.3263Z" fill="#5B5B5B"/>
</svg>
