<svg width="210" height="201" viewBox="0 0 210 201" fill="none" xmlns="http://www.w3.org/2000/svg">
<path d="M139.213 103.606H180.25C179.55 142.522 171.5 148.939 146.388 163.106C143.5 164.772 142.538 168.272 144.288 171.106C146.038 173.856 149.713 174.772 152.688 173.106C182.263 156.439 192.588 146.272 192.588 97.7724V52.8557C192.588 38.6057 180.425 27.1057 165.55 27.1057H139.3C123.9 27.1057 112.263 38.189 112.263 52.8557V77.8557C112.175 92.5224 123.813 103.606 139.213 103.606Z" fill="#EAEEFF"/>
<path d="M44.5375 103.606H85.575C84.875 142.522 76.825 148.939 51.7125 163.106C48.825 164.772 47.8625 168.272 49.6125 171.106C51.3625 173.856 55.0375 174.772 58.0125 173.106C87.5875 156.439 97.9125 146.272 97.9125 97.7724V52.8557C97.9125 38.6057 85.75 27.1057 70.875 27.1057H44.625C29.1375 27.1057 17.5 38.189 17.5 52.8557V77.8557C17.5 92.5224 29.1375 103.606 44.5375 103.606Z" fill="#EAEEFF"/>
</svg>
