<svg width="38" height="39" viewBox="0 0 38 39" fill="none" xmlns="http://www.w3.org/2000/svg">
<path d="M18.9525 3.68896C10.2125 3.68896 3.11916 10.7823 3.11916 19.5223C3.11916 28.2623 10.2125 35.3556 18.9525 35.3556C27.6925 35.3556 34.7858 28.2623 34.7858 19.5223C34.7858 10.7823 27.7083 3.68896 18.9525 3.68896ZM24.89 20.0765L19 26.774L18.3033 27.5656C17.3375 28.6581 16.5458 28.3731 16.5458 26.9006V20.6306H13.8542C12.635 20.6306 12.3025 19.8865 13.11 18.9681L19 12.2706L19.6967 11.479C20.6625 10.3865 21.4542 10.6715 21.4542 12.144V18.414H24.1458C25.365 18.414 25.6975 19.1581 24.89 20.0765Z" fill="#393939"/>
</svg>
