<svg width="38" height="39" viewBox="0 0 38 39" fill="none" xmlns="http://www.w3.org/2000/svg">
<path d="M30.2733 24.1772L30.78 25.2064C31.0333 25.7131 31.6825 26.1881 32.2208 26.2831L32.9017 26.3939C34.9758 26.7422 35.4508 28.2622 33.9783 29.7506L33.345 30.3839C32.9175 30.8114 32.6958 31.6347 32.8225 32.2364L32.9017 32.6164C33.4717 35.1181 32.1417 36.0839 29.9725 34.7697L29.5133 34.4847C28.9592 34.1522 28.0408 34.1522 27.4867 34.4847L27.0275 34.7697C24.8425 36.0839 23.5283 35.1181 24.0983 32.6164L24.1775 32.2364C24.3042 31.6506 24.0825 30.8114 23.655 30.3839L23.0217 29.7506C21.5492 28.2464 22.0242 26.7422 24.0983 26.3939L24.7792 26.2831C25.3333 26.1881 25.9667 25.7131 26.22 25.2064L26.7267 24.1772C27.7083 22.1981 29.2917 22.1981 30.2733 24.1772Z" fill="#393939"/>
<path d="M25.6342 3.68896H12.3658C6.6025 3.68896 3.16666 7.1248 3.16666 12.8881V26.1565C3.16666 31.9198 6.6025 35.3556 12.3658 35.3556H20.7258C21.28 35.3556 21.6758 34.7856 21.6125 34.2315C21.5492 33.6298 21.5808 32.9173 21.7708 32.094C21.8025 31.9831 21.7708 31.8565 21.6758 31.7615L21.3275 31.4131C19.9817 30.0515 19.4908 28.4048 19.9658 26.9006C20.4567 25.4123 21.8183 24.3673 23.7025 24.0506L24.1775 23.9715L24.605 23.1165C25.4758 21.3431 26.9008 20.314 28.5 20.314C30.0992 20.314 31.5242 21.3431 32.395 23.1165L32.6325 23.6073C32.7433 23.8448 32.965 24.0031 33.2183 24.0506C33.3608 24.0823 33.5033 24.114 33.6458 24.1456C34.2 24.2881 34.8333 23.8448 34.8333 23.259V12.8881C34.8333 7.1248 31.3975 3.68896 25.6342 3.68896ZM25.745 14.709L22.0875 19.4273C21.6283 20.0131 20.9792 20.3931 20.235 20.4723C19.5067 20.5673 18.7625 20.3615 18.1925 19.9023L15.295 17.654C15.1842 17.559 15.0575 17.559 14.9942 17.5748C14.9308 17.5748 14.82 17.6065 14.725 17.7331L10.9567 22.6256C10.7192 22.9265 10.3708 23.0848 10.0067 23.0848C9.75333 23.0848 9.5 23.0056 9.27833 22.8315C8.75583 22.4356 8.66083 21.6915 9.05666 21.169L12.825 16.2765C13.2842 15.6906 13.9333 15.3106 14.6775 15.2156C15.4217 15.1206 16.15 15.3265 16.7358 15.7856L19.6333 18.0656C19.7442 18.1606 19.855 18.1448 19.9342 18.1448C19.9975 18.1448 20.1083 18.1131 20.2033 17.9865L23.8608 13.2681C24.2567 12.7456 25.0008 12.6506 25.5233 13.0623C26.0617 13.4581 26.1408 14.2023 25.745 14.709Z" fill="#393939"/>
</svg>
