<svg width="38" height="39" viewBox="0 0 38 39" fill="none" xmlns="http://www.w3.org/2000/svg">
<path d="M27.1542 16.3556C28.0286 16.3556 28.7375 15.6467 28.7375 14.7723C28.7375 13.8978 28.0286 13.189 27.1542 13.189C26.2797 13.189 25.5709 13.8978 25.5709 14.7723C25.5709 15.6467 26.2797 16.3556 27.1542 16.3556Z" fill="#393939"/>
<path d="M27.1542 25.8556C28.0286 25.8556 28.7375 25.1467 28.7375 24.2723C28.7375 23.3978 28.0286 22.689 27.1542 22.689C26.2797 22.689 25.5709 23.3978 25.5709 24.2723C25.5709 25.1467 26.2797 25.8556 27.1542 25.8556Z" fill="#393939"/>
<path d="M31.2708 21.1056C32.1453 21.1056 32.8542 20.3967 32.8542 19.5223C32.8542 18.6478 32.1453 17.939 31.2708 17.939C30.3964 17.939 29.6875 18.6478 29.6875 19.5223C29.6875 20.3967 30.3964 21.1056 31.2708 21.1056Z" fill="#393939"/>
<path d="M10.7667 16.3556C11.6411 16.3556 12.35 15.6467 12.35 14.7723C12.35 13.8978 11.6411 13.189 10.7667 13.189C9.89223 13.189 9.18335 13.8978 9.18335 14.7723C9.18335 15.6467 9.89223 16.3556 10.7667 16.3556Z" fill="#393939"/>
<path d="M10.7667 25.8556C11.6411 25.8556 12.35 25.1467 12.35 24.2723C12.35 23.3978 11.6411 22.689 10.7667 22.689C9.89223 22.689 9.18335 23.3978 9.18335 24.2723C9.18335 25.1467 9.89223 25.8556 10.7667 25.8556Z" fill="#393939"/>
<path d="M6.65004 21.1056C7.5245 21.1056 8.23338 20.3967 8.23338 19.5223C8.23338 18.6478 7.5245 17.939 6.65004 17.939C5.77559 17.939 5.06671 18.6478 5.06671 19.5223C5.06671 20.3967 5.77559 21.1056 6.65004 21.1056Z" fill="#393939"/>
<path d="M25.175 10.339C26.0495 10.339 26.7583 9.63015 26.7583 8.7557C26.7583 7.88125 26.0495 7.17236 25.175 7.17236C24.3006 7.17236 23.5917 7.88125 23.5917 8.7557C23.5917 9.63015 24.3006 10.339 25.175 10.339Z" fill="#393939"/>
<path d="M12.825 10.339C13.6995 10.339 14.4084 9.63015 14.4084 8.7557C14.4084 7.88125 13.6995 7.17236 12.825 7.17236C11.9506 7.17236 11.2417 7.88125 11.2417 8.7557C11.2417 9.63015 11.9506 10.339 12.825 10.339Z" fill="#393939"/>
<path d="M19.0792 11.6056C19.9536 11.6056 20.6625 10.8967 20.6625 10.0223C20.6625 9.14785 19.9536 8.43896 19.0792 8.43896C18.2047 8.43896 17.4958 9.14785 17.4958 10.0223C17.4958 10.8967 18.2047 11.6056 19.0792 11.6056Z" fill="#393939"/>
<path d="M25.175 32.1891C26.0495 32.1891 26.7583 31.4802 26.7583 30.6058C26.7583 29.7313 26.0495 29.0225 25.175 29.0225C24.3006 29.0225 23.5917 29.7313 23.5917 30.6058C23.5917 31.4802 24.3006 32.1891 25.175 32.1891Z" fill="#393939"/>
<path d="M12.825 32.1891C13.6995 32.1891 14.4084 31.4802 14.4084 30.6058C14.4084 29.7313 13.6995 29.0225 12.825 29.0225C11.9506 29.0225 11.2417 29.7313 11.2417 30.6058C11.2417 31.4802 11.9506 32.1891 12.825 32.1891Z" fill="#393939"/>
<path d="M19.0792 30.9225C19.9536 30.9225 20.6625 30.2136 20.6625 29.3392C20.6625 28.4647 19.9536 27.7559 19.0792 27.7559C18.2047 27.7559 17.4958 28.4647 17.4958 29.3392C17.4958 30.2136 18.2047 30.9225 19.0792 30.9225Z" fill="#393939"/>
<path d="M21.7709 16.7518C22.8639 16.7518 23.75 15.8657 23.75 14.7726C23.75 13.6796 22.8639 12.7935 21.7709 12.7935C20.6778 12.7935 19.7917 13.6796 19.7917 14.7726C19.7917 15.8657 20.6778 16.7518 21.7709 16.7518Z" fill="#393939"/>
<path d="M16.2292 16.7518C17.3222 16.7518 18.2083 15.8657 18.2083 14.7726C18.2083 13.6796 17.3222 12.7935 16.2292 12.7935C15.1361 12.7935 14.25 13.6796 14.25 14.7726C14.25 15.8657 15.1361 16.7518 16.2292 16.7518Z" fill="#393939"/>
<path d="M24.5417 21.5018C25.6347 21.5018 26.5208 20.6157 26.5208 19.5226C26.5208 18.4296 25.6347 17.5435 24.5417 17.5435C23.4486 17.5435 22.5625 18.4296 22.5625 19.5226C22.5625 20.6157 23.4486 21.5018 24.5417 21.5018Z" fill="#393939"/>
<path d="M13.4584 21.5018C14.5514 21.5018 15.4375 20.6157 15.4375 19.5226C15.4375 18.4296 14.5514 17.5435 13.4584 17.5435C12.3653 17.5435 11.4792 18.4296 11.4792 19.5226C11.4792 20.6157 12.3653 21.5018 13.4584 21.5018Z" fill="#393939"/>
<path d="M16.2292 26.2518C17.3222 26.2518 18.2083 25.3657 18.2083 24.2726C18.2083 23.1796 17.3222 22.2935 16.2292 22.2935C15.1361 22.2935 14.25 23.1796 14.25 24.2726C14.25 25.3657 15.1361 26.2518 16.2292 26.2518Z" fill="#393939"/>
<path d="M21.7709 26.2518C22.8639 26.2518 23.75 25.3657 23.75 24.2726C23.75 23.1796 22.8639 22.2935 21.7709 22.2935C20.6778 22.2935 19.7917 23.1796 19.7917 24.2726C19.7917 25.3657 20.6778 26.2518 21.7709 26.2518Z" fill="#393939"/>
<path d="M19 5.79497C18.2242 5.79497 17.6067 5.17747 17.6067 4.40163C17.6067 3.6258 18.2242 3.0083 19 3.0083C19.7759 3.0083 20.3934 3.6258 20.3934 4.40163C20.3934 5.17747 19.7759 5.79497 19 5.79497Z" fill="#393939"/>
<path d="M27.3125 6.22266C26.6475 6.22266 26.1091 5.68432 26.1091 5.03516C26.1091 4.38599 26.6475 3.84766 27.2966 3.84766C27.9458 3.84766 28.5 4.38599 28.5 5.03516C28.5 5.68432 27.9775 6.22266 27.3125 6.22266Z" fill="#393939"/>
<path d="M10.6875 6.22266C10.0383 6.22266 9.5 5.68432 9.5 5.03516C9.5 4.38599 10.0225 3.84766 10.6875 3.84766H10.7033C11.3525 3.84766 11.8908 4.38599 11.8908 5.03516C11.8908 5.68432 11.3525 6.22266 10.6875 6.22266Z" fill="#393939"/>
<path d="M19 35.9576C18.2242 35.9576 17.6067 35.3401 17.6067 34.5642C17.6067 33.7884 18.2242 33.1709 19 33.1709C19.7759 33.1709 20.3934 33.7884 20.3934 34.5642C20.3934 35.3401 19.7759 35.9576 19 35.9576Z" fill="#393939"/>
<path d="M27.3125 35.1182C26.6475 35.1182 26.1091 34.5798 26.1091 33.9307C26.1091 33.2815 26.6475 32.7432 27.2966 32.7432C27.9458 32.7432 28.5 33.2815 28.5 33.9307C28.5 34.5798 27.9775 35.1182 27.3125 35.1182Z" fill="#393939"/>
<path d="M10.6875 35.1182C10.0383 35.1182 9.5 34.5798 9.5 33.9307C9.5 33.2815 10.0225 32.7432 10.6875 32.7432H10.7033C11.3525 32.7432 11.8908 33.2815 11.8908 33.9307C11.8908 34.5798 11.3525 35.1182 10.6875 35.1182Z" fill="#393939"/>
<path d="M2.45414 20.9156C1.69414 20.9156 1.06085 20.2981 1.06085 19.5381V19.5222C1.06085 18.7622 1.67831 18.1289 2.45414 18.1289C3.22998 18.1289 3.84749 18.7464 3.84749 19.5222C3.84749 20.2981 3.21414 20.9156 2.45414 20.9156Z" fill="#393939"/>
<path d="M5.9375 28.6267C5.28833 28.6267 4.75 28.1042 4.75 27.4392V27.4233C4.75 26.7742 5.28833 26.2358 5.9375 26.2358C6.58667 26.2358 7.125 26.7742 7.125 27.4233C7.125 28.0725 6.58667 28.6267 5.9375 28.6267Z" fill="#393939"/>
<path d="M5.9375 12.8091C5.28833 12.8091 4.75 12.2707 4.75 11.6216C4.75 10.9724 5.28833 10.4341 5.9375 10.4341C6.58667 10.4341 7.125 10.9566 7.125 11.6057V11.6216C7.125 12.2707 6.58667 12.8091 5.9375 12.8091Z" fill="#393939"/>
<path d="M35.625 20.9156C34.865 20.9156 34.2317 20.2981 34.2317 19.5381V19.5222C34.2317 18.7622 34.8492 18.1289 35.625 18.1289C36.4009 18.1289 37.0184 18.7464 37.0184 19.5222C37.0184 20.2981 36.385 20.9156 35.625 20.9156Z" fill="#393939"/>
<path d="M32.1417 28.6267C31.4925 28.6267 30.9542 28.1042 30.9542 27.4392V27.4233C30.9542 26.7742 31.4925 26.2358 32.1417 26.2358C32.7908 26.2358 33.3292 26.7742 33.3292 27.4233C33.3292 28.0725 32.7908 28.6267 32.1417 28.6267Z" fill="#393939"/>
<path d="M32.1417 12.8091C31.4925 12.8091 30.9542 12.2707 30.9542 11.6216C30.9542 10.9724 31.4925 10.4341 32.1417 10.4341C32.7908 10.4341 33.3292 10.9566 33.3292 11.6216V11.6374C33.3292 12.2707 32.7908 12.8091 32.1417 12.8091Z" fill="#393939"/>
</svg>
