<svg width="38" height="39" viewBox="0 0 38 39" fill="none" xmlns="http://www.w3.org/2000/svg">
<path d="M10.5608 22.689H6.33332C4.59166 22.689 3.16666 24.114 3.16666 25.8556V33.7723C3.16666 34.6431 3.87916 35.3556 4.74999 35.3556H10.5608C11.4317 35.3556 12.1442 34.6431 12.1442 33.7723V24.2723C12.1442 23.4015 11.4317 22.689 10.5608 22.689Z" fill="#292D32"/>
<path d="M21.1058 16.356H16.8783C15.1367 16.356 13.7117 17.781 13.7117 19.5226V33.7726C13.7117 34.6435 14.4242 35.356 15.295 35.356H22.6892C23.56 35.356 24.2725 34.6435 24.2725 33.7726V19.5226C24.2725 17.781 22.8633 16.356 21.1058 16.356Z" fill="#292D32"/>
<path d="M31.6667 27.439H27.4392C26.5683 27.439 25.8558 28.1515 25.8558 29.0223V33.7723C25.8558 34.6431 26.5683 35.3556 27.4392 35.3556H33.25C34.1208 35.3556 34.8333 34.6431 34.8333 33.7723V30.6056C34.8333 28.864 33.4083 27.439 31.6667 27.439Z" fill="#292D32"/>
<path d="M23.7658 8.20156C24.2567 7.71072 24.4467 7.12489 24.2883 6.61822C24.13 6.11156 23.6392 5.74739 22.9425 5.63656L21.4225 5.38322C21.3592 5.38322 21.2167 5.27239 21.185 5.20906L20.3458 3.53072C19.7125 2.24822 18.2717 2.24822 17.6383 3.53072L16.7992 5.20906C16.7833 5.27239 16.6408 5.38322 16.5775 5.38322L15.0575 5.63656C14.3608 5.74739 13.8858 6.11156 13.7117 6.61822C13.5533 7.12489 13.7433 7.71072 14.2342 8.20156L15.4058 9.38906C15.4692 9.43656 15.5167 9.62656 15.5008 9.68989L15.1683 11.1466C14.915 12.2391 15.3267 12.7299 15.5958 12.9199C15.865 13.1099 16.4508 13.3632 17.4167 12.7932L18.8417 11.9541C18.905 11.9066 19.1108 11.9066 19.1742 11.9541L20.5833 12.7932C21.0267 13.0624 21.3908 13.1416 21.6758 13.1416C22.0083 13.1416 22.2458 13.0149 22.3883 12.9199C22.6575 12.7299 23.0692 12.2391 22.8158 11.1466L22.4833 9.68989C22.4675 9.61072 22.515 9.43656 22.5783 9.38906L23.7658 8.20156Z" fill="#292D32"/>
</svg>
