<svg width="38" height="39" viewBox="0 0 38 39" fill="none" xmlns="http://www.w3.org/2000/svg">
<path d="M29.7667 16.2134C27.9775 16.2134 26.3783 17.0842 25.3808 18.4142C24.3833 17.0842 22.7842 16.2134 20.995 16.2134C17.9708 16.2134 15.5167 18.6834 15.5167 21.7234C15.5167 22.895 15.7067 23.9875 16.0233 24.985C17.575 29.9092 22.3883 32.87 24.7633 33.6775C25.0958 33.7884 25.65 33.7884 25.9825 33.6775C28.3575 32.87 33.1708 29.925 34.7225 24.985C35.055 23.9717 35.2292 22.895 35.2292 21.7234C35.245 18.6834 32.7908 16.2134 29.7667 16.2134Z" fill="#393939"/>
<path d="M32.8542 13.7273C32.8542 14.0915 32.49 14.329 32.1417 14.234C30.0042 13.6798 27.6608 14.139 25.8875 15.4057C25.5392 15.659 25.0642 15.659 24.7317 15.4057C23.4808 14.4873 21.9608 13.9807 20.3617 13.9807C16.2767 13.9807 12.9517 17.3215 12.9517 21.4382C12.9517 25.9032 15.0892 29.244 17.2425 31.4765C17.3533 31.5873 17.2583 31.7773 17.1158 31.714C12.7933 30.2415 3.16666 24.1298 3.16666 13.7273C3.16666 9.13566 6.85582 5.43066 11.4158 5.43066C14.1233 5.43066 16.5142 6.729 18.0183 8.73983C19.5383 6.729 21.9292 5.43066 24.6208 5.43066C29.165 5.43066 32.8542 9.13566 32.8542 13.7273Z" fill="#393939"/>
</svg>
