<svg width="38" height="39" viewBox="0 0 38 39" fill="none" xmlns="http://www.w3.org/2000/svg">
<g clip-path="url(#clip0_1_1354)">
<path d="M18.9998 28.4212C18.7447 28.4212 18.4923 28.4717 18.2569 28.5697C18.0215 28.6678 17.8078 28.8115 17.6282 28.9926C17.4487 29.1736 17.3067 29.3884 17.2106 29.6246C17.1144 29.8608 17.066 30.1137 17.0681 30.3687L17.0681 36.5595C17.0681 37.0719 17.2716 37.5632 17.6339 37.9254C17.9961 38.2877 18.4874 38.4912 18.9998 38.4912C19.5121 38.4912 20.0034 38.2877 20.3657 37.9254C20.7279 37.5632 20.9314 37.0719 20.9314 36.5595L20.9314 30.3687C20.9335 30.1137 20.8851 29.8608 20.789 29.6246C20.6928 29.3884 20.5509 29.1736 20.3713 28.9926C20.1917 28.8115 19.978 28.6678 19.7426 28.5697C19.5073 28.4717 19.2548 28.4212 18.9998 28.4212Z" fill="#393939"/>
<path d="M27.2491 28.4045C27.0803 28.109 26.8359 27.8637 26.5409 27.694C26.2459 27.5242 25.9111 27.4361 25.5708 27.4387C25.2325 27.4399 24.9002 27.5271 24.6049 27.692C24.3854 27.8197 24.1932 27.9895 24.0393 28.1915C23.8854 28.3936 23.7729 28.624 23.7082 28.8696C23.6435 29.1152 23.6279 29.3712 23.6622 29.6228C23.6965 29.8745 23.7801 30.1169 23.9083 30.3362L25.0641 32.347C25.1905 32.5679 25.3592 32.7616 25.5607 32.9171C25.7622 33.0725 25.9924 33.1866 26.2381 33.2528C26.4838 33.319 26.7402 33.336 26.9925 33.3029C27.2448 33.2697 27.488 33.187 27.7083 33.0595C28.1511 32.8013 28.4743 32.3788 28.6077 31.8838C28.7411 31.3888 28.6739 30.8612 28.4208 30.4154L27.2491 28.4045Z" fill="#393939"/>
<path d="M33.3761 24.0362L31.3653 22.8804C31.0654 22.734 30.7325 22.6685 30.3995 22.6904C30.0598 22.691 29.7262 22.7805 29.4317 22.9499C29.1373 23.1194 28.8923 23.3628 28.7211 23.6562C28.5937 23.8765 28.511 24.1197 28.4778 24.372C28.4446 24.6243 28.4616 24.8807 28.5278 25.1264C28.5941 25.3721 28.7082 25.6023 28.8636 25.8038C29.019 26.0052 29.2128 26.174 29.4336 26.3004L31.4445 27.4404C31.6647 27.5679 31.908 27.6505 32.1603 27.6837C32.4125 27.7169 32.6689 27.6999 32.9146 27.6337C33.1603 27.5675 33.3905 27.4534 33.592 27.2979C33.7935 27.1425 33.9622 26.9488 34.0886 26.7279C34.2193 26.5046 34.3046 26.2576 34.3395 26.0012C34.3744 25.7448 34.3583 25.4841 34.2921 25.2339C34.2258 24.9838 34.1108 24.7492 33.9536 24.5436C33.7965 24.3381 33.6002 24.1657 33.3761 24.0362Z" fill="#393939"/>
<path d="M34.4848 16.0398L32.1573 16.0398C31.6731 16.0836 31.2228 16.3069 30.8949 16.6658C30.567 17.0247 30.3852 17.4932 30.3852 17.9794C30.3852 18.4655 30.567 18.9341 30.8949 19.293C31.2228 19.6519 31.6731 19.8752 32.1573 19.9189L34.4848 19.9189C34.9689 19.8752 35.4192 19.6519 35.7471 19.293C36.075 18.9341 36.2568 18.4655 36.2568 17.9794C36.2568 17.4932 36.075 17.0247 35.7471 16.6658C35.4192 16.3069 34.9689 16.0836 34.4848 16.0398Z" fill="#393939"/>
<path d="M31.3656 13.0787L33.3764 11.907C33.6085 11.787 33.8139 11.6211 33.98 11.4194C34.1461 11.2177 34.2696 10.9844 34.343 10.7336C34.4164 10.4829 34.4381 10.2198 34.4069 9.96037C34.3756 9.70094 34.2921 9.45055 34.1613 9.22434C34.0305 8.99813 33.8552 8.80081 33.6459 8.64432C33.4367 8.48782 33.1978 8.37541 32.9439 8.31388C32.6899 8.25236 32.4261 8.24299 32.1685 8.28636C31.9108 8.32972 31.6646 8.42491 31.4448 8.56618L29.4339 9.72201C29.2131 9.84839 29.0194 10.0172 28.8639 10.2186C28.7085 10.4201 28.5944 10.6503 28.5282 10.896C28.462 11.1417 28.4449 11.3981 28.4781 11.6504C28.5113 11.9027 28.594 12.1459 28.7214 12.3662C28.9826 12.8059 29.405 13.1265 29.8988 13.2595C30.3926 13.3926 30.9189 13.3277 31.3656 13.0787Z" fill="#393939"/>
<path d="M27.7083 2.8974C27.4891 2.7656 27.2457 2.67939 26.9925 2.64392C26.7392 2.60845 26.4814 2.62446 26.2346 2.69099C25.9877 2.75751 25.7567 2.87319 25.5556 3.03109C25.3545 3.18899 25.1873 3.38586 25.0641 3.60991L23.9083 5.62074C23.767 5.84056 23.6718 6.08676 23.6284 6.34444C23.5851 6.60211 23.5944 6.86591 23.656 7.11986C23.7175 7.37381 23.8299 7.61264 23.9864 7.82189C24.1429 8.03115 24.3402 8.20648 24.5664 8.33727C24.7926 8.46806 25.043 8.5516 25.3024 8.58283C25.5619 8.61406 25.8249 8.59233 26.0757 8.51896C26.3265 8.44559 26.5598 8.3221 26.7615 8.15596C26.9632 7.98983 27.129 7.7845 27.2491 7.55241L28.4208 5.54157C28.6739 5.09578 28.7411 4.56813 28.6077 4.07311C28.4743 3.57809 28.1511 3.15564 27.7083 2.8974Z" fill="#393939"/>
<path d="M18.9994 0.522617C18.7444 0.522608 18.4919 0.573093 18.2565 0.671157C18.0211 0.769221 17.8074 0.912924 17.6279 1.09398C17.4483 1.27503 17.3063 1.48985 17.2102 1.72604C17.1141 1.96223 17.0656 2.21512 17.0677 2.47012L17.0677 4.81345C17.0677 5.06712 17.1177 5.31831 17.2148 5.55267C17.3118 5.78703 17.4541 5.99997 17.6335 6.17934C17.8129 6.35872 18.0258 6.501 18.2602 6.59808C18.4945 6.69515 18.7457 6.74512 18.9994 6.74512C19.2531 6.74512 19.5042 6.69515 19.7386 6.59808C19.973 6.501 20.1859 6.35872 20.3653 6.17934C20.5447 5.99997 20.6869 5.78703 20.784 5.55267C20.8811 5.31831 20.9311 5.06712 20.9311 4.81345L20.9311 2.50178C20.9374 2.24414 20.8921 1.98784 20.7979 1.74797C20.7036 1.5081 20.5624 1.28951 20.3824 1.10508C20.2023 0.920645 19.9873 0.774097 19.7497 0.674065C19.5122 0.574033 19.2571 0.522539 18.9994 0.522617Z" fill="#393939"/>
<path d="M12.9361 3.60991C12.6799 3.15429 12.2533 2.81908 11.75 2.67804C11.2466 2.537 10.7079 2.60167 10.2523 2.85782C9.79669 3.11398 9.46149 3.54063 9.32045 4.04393C9.17941 4.54724 9.24408 5.08595 9.50023 5.54157L10.6719 7.5524C10.7919 7.7845 10.9578 7.98983 11.1595 8.15596C11.3612 8.3221 11.5945 8.44559 11.8453 8.51896C12.096 8.59233 12.3591 8.61406 12.6185 8.58283C12.878 8.5516 13.1284 8.46806 13.3546 8.33727C13.5808 8.20648 13.7781 8.03115 13.9346 7.8219C14.0911 7.61264 14.2035 7.37381 14.265 7.11986C14.3265 6.86591 14.3359 6.60211 14.2925 6.34444C14.2492 6.08676 14.154 5.84056 14.0127 5.62074L12.9361 3.60991Z" fill="#393939"/>
<path d="M4.6231 11.907L6.63393 13.0787C7.08065 13.3277 7.60692 13.3926 8.10075 13.2595C8.59458 13.1265 9.01699 12.8059 9.2781 12.3662C9.40556 12.1459 9.48826 11.9027 9.52142 11.6504C9.55459 11.3981 9.53758 11.1417 9.47138 10.896C9.40517 10.6503 9.29107 10.4201 9.13563 10.2186C8.98018 10.0172 8.78647 9.84839 8.5656 9.72201L6.55477 8.56618C6.33494 8.42491 6.08874 8.32972 5.83107 8.28636C5.57339 8.24299 5.3096 8.25236 5.05564 8.31388C4.80169 8.37541 4.56286 8.48782 4.35361 8.64432C4.14436 8.80081 3.96903 8.99813 3.83823 9.22434C3.70744 9.45055 3.6239 9.70094 3.59267 9.96037C3.56144 10.2198 3.58317 10.4829 3.65654 10.7336C3.72991 10.9844 3.85341 11.2177 4.01954 11.4194C4.18568 11.6211 4.39101 11.787 4.6231 11.907Z" fill="#393939"/>
<path d="M7.77344 17.9402C7.77344 17.4279 7.56992 16.9366 7.20766 16.5743C6.84541 16.212 6.35408 16.0085 5.84177 16.0085L3.51427 16.0085C3.03011 16.0523 2.57982 16.2756 2.25192 16.6345C1.92401 16.9934 1.74219 17.462 1.74219 17.9481C1.74219 18.4343 1.92401 18.9028 2.25192 19.2617C2.57982 19.6206 3.03011 19.8439 3.51427 19.8877L5.84177 19.8877C6.35553 19.8835 6.84683 19.6765 7.20864 19.3117C7.57045 18.9469 7.77345 18.454 7.77344 17.9402Z" fill="#393939"/>
<path d="M9.27866 23.5928C9.09966 23.3112 8.8513 23.0803 8.55741 22.9223C8.26352 22.7642 7.93395 22.6844 7.60032 22.6903C7.26164 22.6879 6.92838 22.7753 6.63449 22.9437L4.62366 24.0995C4.18389 24.3606 3.86337 24.783 3.7303 25.2768C3.59724 25.7707 3.66212 26.2969 3.91115 26.7437C4.03885 26.9632 4.2086 27.1554 4.41066 27.3093C4.61273 27.4631 4.84316 27.5756 5.08876 27.6404C5.33436 27.7051 5.59031 27.7207 5.84196 27.6864C6.09361 27.6521 6.33602 27.5684 6.55532 27.4403L8.56616 26.2845C8.79342 26.1582 8.99285 25.9873 9.15249 25.7821C9.31214 25.5769 9.42873 25.3416 9.49525 25.0903C9.56178 24.839 9.57689 24.5768 9.53968 24.3195C9.50246 24.0622 9.41368 23.815 9.27866 23.5928Z" fill="#393939"/>
<path d="M13.395 27.692C13.0998 27.5271 12.7674 27.4399 12.4292 27.4387C12.0889 27.4361 11.754 27.5242 11.459 27.694C11.164 27.8637 10.9196 28.109 10.7509 28.4045L9.50002 30.4154C9.24684 30.8612 9.17966 31.3888 9.31304 31.8838C9.44643 32.3788 9.76964 32.8013 10.2125 33.0595C10.4328 33.187 10.676 33.2697 10.9283 33.3029C11.1806 33.336 11.437 33.319 11.6827 33.2528C11.9284 33.1866 12.1586 33.0725 12.3601 32.9171C12.5615 32.7616 12.7303 32.5679 12.8567 32.347L14.0917 30.3362C14.2198 30.1169 14.3034 29.8745 14.3377 29.6228C14.3721 29.3712 14.3564 29.1152 14.2917 28.8696C14.227 28.624 14.1145 28.3936 13.9606 28.1915C13.8068 27.9895 13.6146 27.8197 13.395 27.692Z" fill="#393939"/>
<path d="M20.2163 11.5344L21.4502 14.0186C21.6164 14.3622 22.0627 14.6881 22.439 14.7586L24.6704 15.1286C26.0967 15.3665 26.4293 16.4059 25.4054 17.4454L23.6641 19.1985C23.3753 19.4892 23.209 20.0618 23.3053 20.4758L23.8041 22.6429C24.1979 24.3519 23.2878 25.0214 21.7914 24.1229L19.7 22.8719C19.3238 22.6429 18.6937 22.6429 18.3175 22.8719L16.2261 24.1229C14.7297 25.0126 13.8196 24.3519 14.2134 22.6429L14.7122 20.4758C14.791 20.053 14.6247 19.4804 14.3359 19.1897L12.5946 17.4366C11.5707 16.4059 11.9033 15.3665 13.3296 15.1198L15.561 14.7498C15.9373 14.6881 16.3836 14.3534 16.5498 14.0098L17.7837 11.5256C18.4575 10.1866 19.5425 10.1866 20.2163 11.5344Z" fill="#393939"/>
</g>
<defs>
<clipPath id="clip0_1_1354">
<rect width="38" height="38" fill="white" transform="translate(38 38.5225) rotate(-180)"/>
</clipPath>
</defs>
</svg>
