<svg width="20" height="21" viewBox="0 0 20 21" fill="none" xmlns="http://www.w3.org/2000/svg">
<path d="M15.56 0.522461H4.41C1.98 0.522461 0 2.50246 0 4.93246V11.4325V11.6325C0 14.0725 1.98 16.0425 4.41 16.0425H8.25C8.8 16.0425 9.25 16.4925 9.25 17.0425V18.0125C9.25 18.5625 8.8 19.0125 8.25 19.0125H5.83C5.42 19.0125 5.08 19.3525 5.08 19.7625C5.08 20.1725 5.41 20.5225 5.83 20.5225H14.18C14.59 20.5225 14.93 20.1825 14.93 19.7725C14.93 19.3625 14.59 19.0225 14.18 19.0225H11.76C11.21 19.0225 10.76 18.5725 10.76 18.0225V17.0525C10.76 16.5025 11.21 16.0525 11.76 16.0525H15.57C18.01 16.0525 19.98 14.0725 19.98 11.6425V11.4425V4.94246C19.97 2.50246 17.99 0.522461 15.56 0.522461Z" fill="#393939"/>
</svg>
