<svg width="24" height="25" viewBox="0 0 24 25" fill="none" xmlns="http://www.w3.org/2000/svg">
<path d="M7 8.52246H4C2.9 8.52246 2 7.62246 2 6.52246V4.52246C2 3.42246 2.9 2.52246 4 2.52246H7C8.1 2.52246 9 3.42246 9 4.52246V6.52246C9 7.62246 8.1 8.52246 7 8.52246Z" fill="#393939"/>
<path d="M20.8 7.52246H17.2C16.54 7.52246 16 6.98246 16 6.32246V4.72246C16 4.06246 16.54 3.52246 17.2 3.52246H20.8C21.46 3.52246 22 4.06246 22 4.72246V6.32246C22 6.98246 21.46 7.52246 20.8 7.52246Z" fill="#393939"/>
<path d="M20.8 15.0225H17.2C16.54 15.0225 16 14.4825 16 13.8225V12.2225C16 11.5625 16.54 11.0225 17.2 11.0225H20.8C21.46 11.0225 22 11.5625 22 12.2225V13.8225C22 14.4825 21.46 15.0225 20.8 15.0225Z" fill="#393939"/>
<path opacity="0.96" d="M16 13.7725C16.41 13.7725 16.75 13.4325 16.75 13.0225C16.75 12.6125 16.41 12.2725 16 12.2725H13.25V6.27246H16C16.41 6.27246 16.75 5.93246 16.75 5.52246C16.75 5.11246 16.41 4.77246 16 4.77246H9C8.59 4.77246 8.25 5.11246 8.25 5.52246C8.25 5.93246 8.59 6.27246 9 6.27246H11.75V18.5225C11.75 20.0425 12.98 21.2725 14.5 21.2725H16C16.41 21.2725 16.75 20.9325 16.75 20.5225C16.75 20.1125 16.41 19.7725 16 19.7725H14.5C13.81 19.7725 13.25 19.2125 13.25 18.5225V13.7725H16Z" fill="#393939"/>
<path d="M20.8 22.5225H17.2C16.54 22.5225 16 21.9825 16 21.3225V19.7225C16 19.0625 16.54 18.5225 17.2 18.5225H20.8C21.46 18.5225 22 19.0625 22 19.7225V21.3225C22 21.9825 21.46 22.5225 20.8 22.5225Z" fill="#393939"/>
</svg>
