<svg width="20" height="21" viewBox="0 0 20 21" fill="none" xmlns="http://www.w3.org/2000/svg">
<path d="M14.19 0.522461H5.81C2.17 0.522461 0 2.69246 0 6.33246V14.7025C0 18.3525 2.17 20.5225 5.81 20.5225H14.18C17.82 20.5225 19.99 18.3525 19.99 14.7125V6.33246C20 2.69246 17.83 0.522461 14.19 0.522461ZM5.63 16.6725C5.63 17.0825 5.29 17.4225 4.88 17.4225C4.47 17.4225 4.13 17.0825 4.13 16.6725V14.6025C4.13 14.1925 4.47 13.8525 4.88 13.8525C5.29 13.8525 5.63 14.1925 5.63 14.6025V16.6725ZM10.75 16.6725C10.75 17.0825 10.41 17.4225 10 17.4225C9.59 17.4225 9.25 17.0825 9.25 16.6725V12.5225C9.25 12.1125 9.59 11.7725 10 11.7725C10.41 11.7725 10.75 12.1125 10.75 12.5225V16.6725ZM15.87 16.6725C15.87 17.0825 15.53 17.4225 15.12 17.4225C14.71 17.4225 14.37 17.0825 14.37 16.6725V10.4525C14.37 10.0425 14.71 9.70246 15.12 9.70246C15.53 9.70246 15.87 10.0425 15.87 10.4525V16.6725ZM15.87 7.29246C15.87 7.70246 15.53 8.04246 15.12 8.04246C14.71 8.04246 14.37 7.70246 14.37 7.29246V6.32246C11.82 8.94246 8.63 10.7925 5.06 11.6825C5 11.7025 4.94 11.7025 4.88 11.7025C4.54 11.7025 4.24 11.4725 4.15 11.1325C4.05 10.7325 4.29 10.3225 4.7 10.2225C8.07 9.38246 11.07 7.61246 13.45 5.11246H12.2C11.79 5.11246 11.45 4.77246 11.45 4.36246C11.45 3.95246 11.79 3.61246 12.2 3.61246H15.13C15.17 3.61246 15.2 3.63246 15.24 3.63246C15.29 3.64246 15.34 3.64246 15.39 3.66246C15.44 3.68246 15.48 3.71246 15.53 3.74246C15.56 3.76246 15.59 3.77246 15.62 3.79246C15.63 3.80246 15.63 3.81246 15.64 3.81246C15.68 3.85246 15.71 3.89246 15.74 3.93246C15.77 3.97246 15.8 4.00246 15.81 4.04246C15.83 4.08246 15.83 4.12246 15.84 4.17246C15.85 4.22246 15.87 4.27246 15.87 4.33246C15.87 4.34246 15.88 4.35246 15.88 4.36246V7.29246H15.87Z" fill="#393939"/>
</svg>
