<svg width="24" height="25" viewBox="0 0 24 25" fill="none" xmlns="http://www.w3.org/2000/svg">
<path d="M22.36 8.79246L22.07 6.02246C21.65 3.00246 20.28 1.77246 17.35 1.77246H14.99H13.51H10.47H8.99002H6.59002C3.65002 1.77246 2.29002 3.00246 1.86002 6.05246L1.59002 8.80246C1.49002 9.87246 1.78002 10.9125 2.41002 11.7225C3.17002 12.7125 4.34002 13.2725 5.64002 13.2725C6.90002 13.2725 8.11002 12.6425 8.87002 11.6325C9.55002 12.6425 10.71 13.2725 12 13.2725C13.29 13.2725 14.42 12.6725 15.11 11.6725C15.88 12.6625 17.07 13.2725 18.31 13.2725C19.64 13.2725 20.84 12.6825 21.59 11.6425C22.19 10.8425 22.46 9.83246 22.36 8.79246Z" fill="#393939"/>
<path d="M11.35 17.1825C10.08 17.3125 9.12 18.3925 9.12 19.6725V22.4125C9.12 22.6825 9.33999 22.9025 9.60999 22.9025H14.38C14.65 22.9025 14.87 22.6825 14.87 22.4125V20.0225C14.88 17.9325 13.65 16.9425 11.35 17.1825Z" fill="#393939"/>
<path d="M21.37 14.9225V17.9025C21.37 20.6625 19.13 22.9025 16.37 22.9025C16.1 22.9025 15.88 22.6825 15.88 22.4125V20.0225C15.88 18.7425 15.49 17.7425 14.73 17.0625C14.06 16.4525 13.15 16.1525 12.02 16.1525C11.77 16.1525 11.52 16.1625 11.25 16.1925C9.47001 16.3725 8.12 17.8725 8.12 19.6725V22.4125C8.12 22.6825 7.9 22.9025 7.63 22.9025C4.87 22.9025 2.63 20.6625 2.63 17.9025V14.9425C2.63 14.2425 3.32 13.7725 3.97 14.0025C4.24 14.0925 4.51 14.1625 4.79 14.2025C4.91 14.2225 5.04 14.2425 5.16 14.2425C5.32 14.2625 5.48 14.2725 5.64 14.2725C6.8 14.2725 7.94 13.8425 8.84 13.1025C9.70001 13.8425 10.82 14.2725 12 14.2725C13.19 14.2725 14.29 13.8625 15.15 13.1225C16.05 13.8525 17.17 14.2725 18.31 14.2725C18.49 14.2725 18.67 14.2625 18.84 14.2425C18.96 14.2325 19.07 14.2225 19.18 14.2025C19.49 14.1625 19.77 14.0725 20.05 13.9825C20.7 13.7625 21.37 14.2425 21.37 14.9225Z" fill="#393939"/>
</svg>
