<svg width="16" height="21" viewBox="0 0 16 21" fill="none" xmlns="http://www.w3.org/2000/svg">
<path d="M12.24 0.522461H3.76C1 0.522461 0 1.52246 0 4.33246V16.7125C0 19.5225 1 20.5225 3.76 20.5225H12.23C15 20.5225 16 19.5225 16 16.7125V4.33246C16 1.52246 15 0.522461 12.24 0.522461ZM8 17.8225C7.04 17.8225 6.25 17.0325 6.25 16.0725C6.25 15.1125 7.04 14.3225 8 14.3225C8.96 14.3225 9.75 15.1125 9.75 16.0725C9.75 17.0325 8.96 17.8225 8 17.8225ZM10 4.77246H6C5.59 4.77246 5.25 4.43246 5.25 4.02246C5.25 3.61246 5.59 3.27246 6 3.27246H10C10.41 3.27246 10.75 3.61246 10.75 4.02246C10.75 4.43246 10.41 4.77246 10 4.77246Z" fill="#393939"/>
</svg>
