<svg width="20" height="21" viewBox="0 0 20 21" fill="none" xmlns="http://www.w3.org/2000/svg">
<path d="M14.19 0.522461H5.81C2.17 0.522461 0 2.69246 0 6.33246V14.7025C0 18.3525 2.17 20.5225 5.81 20.5225H14.18C17.82 20.5225 19.99 18.3525 19.99 14.7125V6.33246C20 2.69246 17.83 0.522461 14.19 0.522461ZM9.61 13.3625C9.61 14.4525 8.76 15.3025 7.67 15.3025H6.19C5.12 15.3025 4.25 14.4325 4.25 13.3625V10.6925C4.25 7.61246 4.92 6.92246 6.71 5.86246C6.83 5.79246 6.96 5.76246 7.09 5.76246C7.35 5.76246 7.6 5.89246 7.74 6.13246C7.95 6.49246 7.83 6.95246 7.48 7.16246C6.27 7.86246 5.85 8.12246 5.77 9.93246H7.68C8.77 9.93246 9.62 10.7825 9.62 11.8725V13.3625H9.61ZM15.75 13.3625C15.75 14.4525 14.9 15.3025 13.81 15.3025H12.32C11.25 15.3025 10.38 14.4325 10.38 13.3625V10.6925C10.38 7.61246 11.05 6.92246 12.84 5.86246C12.96 5.79246 13.09 5.76246 13.22 5.76246C13.48 5.76246 13.73 5.89246 13.87 6.13246C14.08 6.49246 13.96 6.95246 13.61 7.16246C12.4 7.88246 11.98 8.14246 11.9 9.95246H13.81C14.9 9.95246 15.75 10.8025 15.75 11.8925V13.3625Z" fill="#292D32"/>
</svg>
