<svg width="24" height="25" viewBox="0 0 24 25" fill="none" xmlns="http://www.w3.org/2000/svg">
<path d="M17 4.02246H7C4 4.02246 2 5.52246 2 9.02246V16.0225C2 19.5225 4 21.0225 7 21.0225H17C20 21.0225 22 19.5225 22 16.0225V9.02246C22 5.52246 20 4.02246 17 4.02246ZM17.47 10.1125L14.34 12.6125C13.68 13.1425 12.84 13.4025 12 13.4025C11.16 13.4025 10.31 13.1425 9.66 12.6125L6.53 10.1125C6.21 9.85246 6.16 9.37246 6.41 9.05246C6.67 8.73246 7.14 8.67246 7.46 8.93246L10.59 11.4325C11.35 12.0425 12.64 12.0425 13.4 11.4325L16.53 8.93246C16.85 8.67246 17.33 8.72246 17.58 9.05246C17.84 9.37246 17.79 9.85246 17.47 10.1125Z" fill="#5B5B5B"/>
</svg>
