<svg width="24" height="25" viewBox="0 0 24 25" fill="none" xmlns="http://www.w3.org/2000/svg">
<path d="M17.62 11.2726C17.19 11.2726 16.85 10.9226 16.85 10.5026C16.85 10.1326 16.48 9.36256 15.86 8.69256C15.25 8.04256 14.58 7.66256 14.02 7.66256C13.59 7.66256 13.25 7.31256 13.25 6.89256C13.25 6.47256 13.6 6.12256 14.02 6.12256C15.02 6.12256 16.07 6.66256 16.99 7.63256C17.85 8.54256 18.4 9.67256 18.4 10.4926C18.4 10.9226 18.05 11.2726 17.62 11.2726Z" fill="#5B5B5B"/>
<path d="M21.23 11.2725C20.8 11.2725 20.46 10.9225 20.46 10.5025C20.46 6.95246 17.57 4.07246 14.03 4.07246C13.6 4.07246 13.26 3.72246 13.26 3.30246C13.26 2.88246 13.6 2.52246 14.02 2.52246C18.42 2.52246 22 6.10246 22 10.5025C22 10.9225 21.65 11.2725 21.23 11.2725Z" fill="#5B5B5B"/>
<path d="M11.05 15.4725L9.2 17.3225C8.81 17.7125 8.19 17.7125 7.79 17.3325C7.68 17.2225 7.57 17.1225 7.46 17.0125C6.43 15.9725 5.5 14.8825 4.67 13.7425C3.85 12.6025 3.19 11.4625 2.71 10.3325C2.24 9.19246 2 8.10246 2 7.06246C2 6.38246 2.12 5.73246 2.36 5.13246C2.6 4.52246 2.98 3.96246 3.51 3.46246C4.15 2.83246 4.85 2.52246 5.59 2.52246C5.87 2.52246 6.15 2.58246 6.4 2.70246C6.66 2.82246 6.89 3.00246 7.07 3.26246L9.39 6.53246C9.57 6.78246 9.7 7.01246 9.79 7.23246C9.88 7.44246 9.93 7.65246 9.93 7.84246C9.93 8.08246 9.86 8.32246 9.72 8.55246C9.59 8.78246 9.4 9.02246 9.16 9.26246L8.4 10.0525C8.29 10.1625 8.24 10.2925 8.24 10.4525C8.24 10.5325 8.25 10.6025 8.27 10.6825C8.3 10.7625 8.33 10.8225 8.35 10.8825C8.53 11.2125 8.84 11.6425 9.28 12.1625C9.73 12.6825 10.21 13.2125 10.73 13.7425C10.83 13.8425 10.94 13.9425 11.04 14.0425C11.44 14.4325 11.45 15.0725 11.05 15.4725Z" fill="#5B5B5B"/>
<path d="M21.97 18.8525C21.97 19.1325 21.92 19.4225 21.82 19.7025C21.79 19.7825 21.76 19.8625 21.72 19.9425C21.55 20.3025 21.33 20.6425 21.04 20.9625C20.55 21.5025 20.01 21.8925 19.4 22.1425C19.39 22.1425 19.38 22.1525 19.37 22.1525C18.78 22.3925 18.14 22.5225 17.45 22.5225C16.43 22.5225 15.34 22.2825 14.19 21.7925C13.04 21.3025 11.89 20.6425 10.75 19.8125C10.36 19.5225 9.97001 19.2325 9.60001 18.9225L12.87 15.6525C13.15 15.8625 13.4 16.0225 13.61 16.1325C13.66 16.1525 13.72 16.1825 13.79 16.2125C13.87 16.2425 13.95 16.2525 14.04 16.2525C14.21 16.2525 14.34 16.1925 14.45 16.0825L15.21 15.3325C15.46 15.0825 15.7 14.8925 15.93 14.7725C16.16 14.6325 16.39 14.5625 16.64 14.5625C16.83 14.5625 17.03 14.6025 17.25 14.6925C17.47 14.7825 17.7 14.9125 17.95 15.0825L21.26 17.4325C21.52 17.6125 21.7 17.8225 21.81 18.0725C21.91 18.3225 21.97 18.5725 21.97 18.8525Z" fill="#5B5B5B"/>
</svg>
