<svg width="1313" height="630" viewBox="0 0 1313 630" fill="none" xmlns="http://www.w3.org/2000/svg">
<rect width="1313" height="630" fill="white"/>
<path fill-rule="evenodd" clip-rule="evenodd" d="M185.633 443.208L266.262 362.58L266.262 201.324L266.262 201.323L266.262 201.323L105.006 201.323L24.3775 281.951L185.633 281.951L185.633 443.208ZM158.752 314.201L158.756 314.198H158.752H65.5852L19 362.575H110.375L110.375 453.953L158.752 407.368V314.201Z" fill="#2644D9"/>
<path d="M415.098 404.428C374.412 404.428 340.091 380.072 340.091 329.421V206.255H374.412V329.421C374.412 365.126 393.786 375.09 415.098 375.09C436.41 375.09 455.508 365.403 455.508 329.421V206.255H489.829V329.421C489.829 380.072 455.785 404.428 415.098 404.428ZM598.192 404.428C577.987 404.428 563.041 395.295 555.568 378.411V455.356H522.632V261.611H555.568V284.86C563.041 267.423 577.987 257.182 598.192 257.182C640.816 257.182 662.405 291.226 662.405 331.912C662.405 372.599 640.816 404.428 598.192 404.428ZM555.568 333.85C555.568 365.126 573.282 376.75 591.826 376.75C610.371 376.75 628.084 365.956 628.084 331.912C628.084 297.869 610.924 284.86 591.826 284.86C573.282 284.86 555.568 298.422 555.568 333.85ZM744.427 459.784C698.482 459.784 679.938 431.553 679.938 415.776L714.258 413.008C716.196 422.696 726.16 432.106 744.427 432.106C762.971 432.106 782.622 426.017 782.622 394.464V378.411C775.149 395.295 760.203 404.428 739.999 404.428C697.375 404.428 675.786 372.599 675.786 331.912C675.786 291.226 697.375 257.182 739.999 257.182C760.203 257.182 775.149 267.423 782.622 284.86V261.611H815.559V388.929C815.559 437.088 792.587 459.784 744.427 459.784ZM710.106 331.912C710.106 365.956 727.82 376.75 746.364 376.75C764.909 376.75 782.622 365.126 782.622 333.85C782.622 298.422 764.909 284.86 746.364 284.86C727.267 284.86 710.106 297.869 710.106 331.912ZM842.779 400V261.611H877.1V289.288C883.742 270.191 897.304 261.611 913.358 261.611H931.625V289.288H907.822C885.403 289.288 877.1 304.234 877.1 337.725V400H842.779ZM1000.61 404.428C965.732 404.428 930.858 381.456 930.858 331.082C930.858 280.708 965.732 257.182 1000.61 257.182C1035.76 257.182 1070.35 280.708 1070.35 331.082C1070.35 381.456 1035.76 404.428 1000.61 404.428ZM965.178 331.082C965.178 359.59 977.633 376.75 1000.61 376.75C1023.86 376.75 1036.03 359.59 1036.03 331.082C1036.03 302.297 1023.86 284.86 1000.61 284.86C977.633 284.86 965.178 302.297 965.178 331.082ZM1110.86 400L1077.09 261.611H1110.3L1133.27 356.269L1163.44 261.611H1191.95L1222.12 356.269L1245.09 261.611H1278.31L1244.54 400H1207.73L1177.84 305.342L1147.67 400H1110.86Z" fill="black"/>
</svg>
